<mxfile host="app.diagrams.net" modified="2023-09-28T17:52:34.842Z" agent="Mozilla/5.0 (Windows NT 10.0; Win64; x64) AppleWebKit/537.36 (KHTML, like Gecko) Chrome/117.0.0.0 Safari/537.36" etag="w9qfDVP0ma4dq0s51_hO" version="22.0.0" type="google">
  <diagram name="Page-1" id="2YBvvXClWsGukQMizWep">
    <mxGraphModel grid="1" page="1" gridSize="10" guides="1" tooltips="1" connect="1" arrows="1" fold="1" pageScale="1" pageWidth="850" pageHeight="1100" math="0" shadow="0">
      <root>
        <mxCell id="0" />
        <mxCell id="1" parent="0" />
        <mxCell id="aM9ryv3xv72pqoxQDRHE-1" value="&lt;i&gt;Mc Chombo 1&amp;nbsp;&lt;/i&gt;:&amp;nbsp;&lt;br&gt;&lt;b&gt;Combo&lt;/b&gt;" style="shape=umlLifeline;perimeter=lifelinePerimeter;whiteSpace=wrap;html=1;container=0;dropTarget=0;collapsible=0;recursiveResize=0;outlineConnect=0;portConstraint=eastwest;newEdgeStyle={&quot;edgeStyle&quot;:&quot;elbowEdgeStyle&quot;,&quot;elbow&quot;:&quot;vertical&quot;,&quot;curved&quot;:0,&quot;rounded&quot;:0};" vertex="1" parent="1">
          <mxGeometry x="350" y="550" width="100" height="510" as="geometry" />
        </mxCell>
        <mxCell id="aM9ryv3xv72pqoxQDRHE-2" value="" style="html=1;points=[];perimeter=orthogonalPerimeter;outlineConnect=0;targetShapes=umlLifeline;portConstraint=eastwest;newEdgeStyle={&quot;edgeStyle&quot;:&quot;elbowEdgeStyle&quot;,&quot;elbow&quot;:&quot;vertical&quot;,&quot;curved&quot;:0,&quot;rounded&quot;:0};" vertex="1" parent="aM9ryv3xv72pqoxQDRHE-1">
          <mxGeometry x="45" y="110" width="10" height="300" as="geometry" />
        </mxCell>
        <mxCell id="9dg1Qpggz0v6w3t59ocL-19" value="" style="html=1;points=[[0,0,0,0,5],[0,1,0,0,-5],[1,0,0,0,5],[1,1,0,0,-5]];perimeter=orthogonalPerimeter;outlineConnect=0;targetShapes=umlLifeline;portConstraint=eastwest;newEdgeStyle={&quot;curved&quot;:0,&quot;rounded&quot;:0};" vertex="1" parent="aM9ryv3xv72pqoxQDRHE-1">
          <mxGeometry x="55" y="350" width="10" height="40" as="geometry" />
        </mxCell>
        <mxCell id="9dg1Qpggz0v6w3t59ocL-20" value="7-&amp;nbsp;&lt;br&gt;&lt;div style=&quot;&quot;&gt;-aplicarDescuento(subtotal)&lt;/div&gt;" style="html=1;align=left;spacingLeft=2;endArrow=block;rounded=0;edgeStyle=orthogonalEdgeStyle;curved=0;rounded=0;" edge="1" parent="aM9ryv3xv72pqoxQDRHE-1" target="9dg1Qpggz0v6w3t59ocL-19">
          <mxGeometry relative="1" as="geometry">
            <mxPoint x="50" y="340" as="sourcePoint" />
            <Array as="points">
              <mxPoint x="50" y="340" />
              <mxPoint x="90" y="340" />
              <mxPoint x="90" y="380" />
            </Array>
          </mxGeometry>
        </mxCell>
        <mxCell id="9dg1Qpggz0v6w3t59ocL-14" value="subtotal +=&amp;nbsp;&lt;i&gt;precioGaseosa&lt;/i&gt;" style="html=1;verticalAlign=bottom;endArrow=open;dashed=1;endSize=8;edgeStyle=elbowEdgeStyle;elbow=vertical;curved=0;rounded=0;" edge="1" parent="aM9ryv3xv72pqoxQDRHE-1" source="9dg1Qpggz0v6w3t59ocL-6">
          <mxGeometry x="-0.0641" relative="1" as="geometry">
            <mxPoint x="49.32352941176464" y="319.6470588235295" as="targetPoint" />
            <Array as="points" />
            <mxPoint x="420" y="319.99571428571426" as="sourcePoint" />
            <mxPoint as="offset" />
          </mxGeometry>
        </mxCell>
        <mxCell id="aM9ryv3xv72pqoxQDRHE-5" value="&lt;i&gt;Hamburguesa&amp;nbsp;&lt;/i&gt;: &lt;b&gt;Producto&lt;/b&gt;" style="shape=umlLifeline;perimeter=lifelinePerimeter;whiteSpace=wrap;html=1;container=0;dropTarget=0;collapsible=0;recursiveResize=0;outlineConnect=0;portConstraint=eastwest;newEdgeStyle={&quot;edgeStyle&quot;:&quot;elbowEdgeStyle&quot;,&quot;elbow&quot;:&quot;vertical&quot;,&quot;curved&quot;:0,&quot;rounded&quot;:0};" vertex="1" parent="1">
          <mxGeometry x="550" y="550" width="90" height="510" as="geometry" />
        </mxCell>
        <mxCell id="aM9ryv3xv72pqoxQDRHE-6" value="" style="html=1;points=[];perimeter=orthogonalPerimeter;outlineConnect=0;targetShapes=umlLifeline;portConstraint=eastwest;newEdgeStyle={&quot;edgeStyle&quot;:&quot;elbowEdgeStyle&quot;,&quot;elbow&quot;:&quot;vertical&quot;,&quot;curved&quot;:0,&quot;rounded&quot;:0};" vertex="1" parent="aM9ryv3xv72pqoxQDRHE-5">
          <mxGeometry x="40" y="130" width="10" height="50" as="geometry" />
        </mxCell>
        <mxCell id="9dg1Qpggz0v6w3t59ocL-2" value="Realizar un diagrama de secuencias para imprimir el ticket de la compra de un “Mc Chombo 1”&lt;br/&gt;" style="text;html=1;strokeColor=none;fillColor=none;align=center;verticalAlign=middle;whiteSpace=wrap;rounded=0;" vertex="1" parent="1">
          <mxGeometry x="120" y="470" width="510" height="30" as="geometry" />
        </mxCell>
        <mxCell id="9dg1Qpggz0v6w3t59ocL-3" value="&lt;b&gt;ENUNCIADO:&lt;/b&gt;" style="text;html=1;strokeColor=#d79b00;fillColor=#ffcd28;align=center;verticalAlign=middle;whiteSpace=wrap;rounded=0;gradientColor=#ffa500;" vertex="1" parent="1">
          <mxGeometry x="20" y="470" width="100" height="30" as="geometry" />
        </mxCell>
        <mxCell id="9dg1Qpggz0v6w3t59ocL-4" value="&lt;i&gt;Papas&amp;nbsp;&lt;/i&gt;: &lt;br&gt;&lt;b&gt;Producto&lt;/b&gt;" style="shape=umlLifeline;perimeter=lifelinePerimeter;whiteSpace=wrap;html=1;container=0;dropTarget=0;collapsible=0;recursiveResize=0;outlineConnect=0;portConstraint=eastwest;newEdgeStyle={&quot;edgeStyle&quot;:&quot;elbowEdgeStyle&quot;,&quot;elbow&quot;:&quot;vertical&quot;,&quot;curved&quot;:0,&quot;rounded&quot;:0};" vertex="1" parent="1">
          <mxGeometry x="650" y="550" width="80" height="510" as="geometry" />
        </mxCell>
        <mxCell id="9dg1Qpggz0v6w3t59ocL-5" value="" style="html=1;points=[];perimeter=orthogonalPerimeter;outlineConnect=0;targetShapes=umlLifeline;portConstraint=eastwest;newEdgeStyle={&quot;edgeStyle&quot;:&quot;elbowEdgeStyle&quot;,&quot;elbow&quot;:&quot;vertical&quot;,&quot;curved&quot;:0,&quot;rounded&quot;:0};" vertex="1" parent="9dg1Qpggz0v6w3t59ocL-4">
          <mxGeometry x="35" y="210" width="10" height="50" as="geometry" />
        </mxCell>
        <mxCell id="9dg1Qpggz0v6w3t59ocL-6" value="&lt;i&gt;Gaseosa&amp;nbsp;&lt;/i&gt;: &lt;b&gt;Producto&lt;/b&gt;" style="shape=umlLifeline;perimeter=lifelinePerimeter;whiteSpace=wrap;html=1;container=0;dropTarget=0;collapsible=0;recursiveResize=0;outlineConnect=0;portConstraint=eastwest;newEdgeStyle={&quot;edgeStyle&quot;:&quot;elbowEdgeStyle&quot;,&quot;elbow&quot;:&quot;vertical&quot;,&quot;curved&quot;:0,&quot;rounded&quot;:0};" vertex="1" parent="1">
          <mxGeometry x="739.04" y="550" width="70.96" height="510" as="geometry" />
        </mxCell>
        <mxCell id="9dg1Qpggz0v6w3t59ocL-7" value="" style="html=1;points=[];perimeter=orthogonalPerimeter;outlineConnect=0;targetShapes=umlLifeline;portConstraint=eastwest;newEdgeStyle={&quot;edgeStyle&quot;:&quot;elbowEdgeStyle&quot;,&quot;elbow&quot;:&quot;vertical&quot;,&quot;curved&quot;:0,&quot;rounded&quot;:0};" vertex="1" parent="9dg1Qpggz0v6w3t59ocL-6">
          <mxGeometry x="30.48" y="280" width="10" height="50" as="geometry" />
        </mxCell>
        <mxCell id="9dg1Qpggz0v6w3t59ocL-22" value="Súper Mc Chombo 1&lt;i&gt;&amp;nbsp;&lt;/i&gt;:&amp;nbsp;&lt;br&gt;&lt;b&gt;Combo&lt;/b&gt;" style="shape=umlLifeline;perimeter=lifelinePerimeter;whiteSpace=wrap;html=1;container=0;dropTarget=0;collapsible=0;recursiveResize=0;outlineConnect=0;portConstraint=eastwest;newEdgeStyle={&quot;edgeStyle&quot;:&quot;elbowEdgeStyle&quot;,&quot;elbow&quot;:&quot;vertical&quot;,&quot;curved&quot;:0,&quot;rounded&quot;:0};" vertex="1" parent="1">
          <mxGeometry x="398.5" y="1690" width="131" height="470" as="geometry" />
        </mxCell>
        <mxCell id="9dg1Qpggz0v6w3t59ocL-23" value="" style="html=1;points=[];perimeter=orthogonalPerimeter;outlineConnect=0;targetShapes=umlLifeline;portConstraint=eastwest;newEdgeStyle={&quot;edgeStyle&quot;:&quot;elbowEdgeStyle&quot;,&quot;elbow&quot;:&quot;vertical&quot;,&quot;curved&quot;:0,&quot;rounded&quot;:0};" vertex="1" parent="9dg1Qpggz0v6w3t59ocL-22">
          <mxGeometry x="60.5" y="110" width="10" height="230" as="geometry" />
        </mxCell>
        <mxCell id="9dg1Qpggz0v6w3t59ocL-26" value="" style="html=1;points=[[0,0,0,0,5],[0,1,0,0,-5],[1,0,0,0,5],[1,1,0,0,-5]];perimeter=orthogonalPerimeter;outlineConnect=0;targetShapes=umlLifeline;portConstraint=eastwest;newEdgeStyle={&quot;curved&quot;:0,&quot;rounded&quot;:0};" vertex="1" parent="9dg1Qpggz0v6w3t59ocL-22">
          <mxGeometry x="70.5" y="279.95" width="10" height="40" as="geometry" />
        </mxCell>
        <mxCell id="9dg1Qpggz0v6w3t59ocL-27" value="6-&amp;nbsp;&lt;br&gt;&lt;div style=&quot;&quot;&gt;-aplicarDescuento(&lt;/div&gt;subtotal)" style="html=1;align=left;spacingLeft=2;endArrow=block;rounded=0;edgeStyle=orthogonalEdgeStyle;curved=0;rounded=0;" edge="1" parent="9dg1Qpggz0v6w3t59ocL-22" target="9dg1Qpggz0v6w3t59ocL-26" source="9dg1Qpggz0v6w3t59ocL-23">
          <mxGeometry relative="1" as="geometry">
            <mxPoint x="75.49999999999977" y="260.0000000000002" as="sourcePoint" />
            <Array as="points">
              <mxPoint x="100" y="260" />
              <mxPoint x="100" y="300" />
            </Array>
          </mxGeometry>
        </mxCell>
        <mxCell id="9dg1Qpggz0v6w3t59ocL-28" value="&lt;i style=&quot;border-color: var(--border-color);&quot;&gt;Mc Chombo 1_1&amp;nbsp;&lt;/i&gt;:&amp;nbsp;&lt;br style=&quot;border-color: var(--border-color);&quot;&gt;&lt;b style=&quot;border-color: var(--border-color);&quot;&gt;Combo&lt;/b&gt;" style="shape=umlLifeline;perimeter=lifelinePerimeter;whiteSpace=wrap;html=1;container=0;dropTarget=0;collapsible=0;recursiveResize=0;outlineConnect=0;portConstraint=eastwest;newEdgeStyle={&quot;edgeStyle&quot;:&quot;elbowEdgeStyle&quot;,&quot;elbow&quot;:&quot;vertical&quot;,&quot;curved&quot;:0,&quot;rounded&quot;:0};" vertex="1" parent="1">
          <mxGeometry x="580" y="1690" width="110" height="470" as="geometry" />
        </mxCell>
        <mxCell id="9dg1Qpggz0v6w3t59ocL-29" value="" style="html=1;points=[];perimeter=orthogonalPerimeter;outlineConnect=0;targetShapes=umlLifeline;portConstraint=eastwest;newEdgeStyle={&quot;edgeStyle&quot;:&quot;elbowEdgeStyle&quot;,&quot;elbow&quot;:&quot;vertical&quot;,&quot;curved&quot;:0,&quot;rounded&quot;:0};" vertex="1" parent="9dg1Qpggz0v6w3t59ocL-28">
          <mxGeometry x="45" y="120" width="10" height="60" as="geometry" />
        </mxCell>
        <mxCell id="9dg1Qpggz0v6w3t59ocL-30" value="4-&lt;br&gt;+getPrecio()" style="html=1;verticalAlign=bottom;endArrow=block;edgeStyle=elbowEdgeStyle;elbow=vertical;curved=0;rounded=0;" edge="1" parent="1" source="9dg1Qpggz0v6w3t59ocL-22" target="9dg1Qpggz0v6w3t59ocL-28">
          <mxGeometry relative="1" as="geometry">
            <mxPoint x="510" y="1820" as="sourcePoint" />
            <Array as="points">
              <mxPoint x="570" y="1820" />
            </Array>
            <mxPoint as="offset" />
            <mxPoint x="610" y="1820" as="targetPoint" />
          </mxGeometry>
        </mxCell>
        <mxCell id="9dg1Qpggz0v6w3t59ocL-31" value="&lt;i style=&quot;border-color: var(--border-color);&quot;&gt;subtotal +=&amp;nbsp;&lt;/i&gt;&lt;i&gt;precioMcChombo1&lt;/i&gt;" style="html=1;verticalAlign=bottom;endArrow=open;dashed=1;endSize=8;edgeStyle=elbowEdgeStyle;elbow=vertical;curved=0;rounded=0;" edge="1" parent="1" source="9dg1Qpggz0v6w3t59ocL-29" target="9dg1Qpggz0v6w3t59ocL-22">
          <mxGeometry x="-0.0641" relative="1" as="geometry">
            <mxPoint x="510" y="1850" as="targetPoint" />
            <Array as="points">
              <mxPoint x="585.5" y="1850" />
            </Array>
            <mxPoint x="640" y="1850" as="sourcePoint" />
            <mxPoint as="offset" />
          </mxGeometry>
        </mxCell>
        <mxCell id="9dg1Qpggz0v6w3t59ocL-32" value="Se pide realizar las modificaciones necesarias al diagrama realizado anteriormente para soportar este&lt;br/&gt;nuevo escenario, y el diagrama de secuencias para imprimir el ticket de la compra de un “Súper Mc&lt;br/&gt;Chombo 1”" style="text;html=1;strokeColor=none;fillColor=none;align=center;verticalAlign=middle;whiteSpace=wrap;rounded=0;" vertex="1" parent="1">
          <mxGeometry x="140" y="1600" width="670" height="60" as="geometry" />
        </mxCell>
        <mxCell id="9dg1Qpggz0v6w3t59ocL-33" value="&lt;b&gt;ENUNCIADO:&lt;/b&gt;" style="text;html=1;strokeColor=#d79b00;fillColor=#ffcd28;align=center;verticalAlign=middle;whiteSpace=wrap;rounded=0;gradientColor=#ffa500;" vertex="1" parent="1">
          <mxGeometry x="40" y="1600" width="100" height="30" as="geometry" />
        </mxCell>
        <mxCell id="9dg1Qpggz0v6w3t59ocL-34" value="&lt;i style=&quot;border-color: var(--border-color);&quot;&gt;Mc Chombo 1_2&amp;nbsp;&lt;/i&gt;:&amp;nbsp;&lt;br style=&quot;border-color: var(--border-color);&quot;&gt;&lt;b style=&quot;border-color: var(--border-color);&quot;&gt;Combo&lt;/b&gt;" style="shape=umlLifeline;perimeter=lifelinePerimeter;whiteSpace=wrap;html=1;container=0;dropTarget=0;collapsible=0;recursiveResize=0;outlineConnect=0;portConstraint=eastwest;newEdgeStyle={&quot;edgeStyle&quot;:&quot;elbowEdgeStyle&quot;,&quot;elbow&quot;:&quot;vertical&quot;,&quot;curved&quot;:0,&quot;rounded&quot;:0};" vertex="1" parent="1">
          <mxGeometry x="704" y="1690" width="116" height="470" as="geometry" />
        </mxCell>
        <mxCell id="9dg1Qpggz0v6w3t59ocL-35" value="" style="html=1;points=[];perimeter=orthogonalPerimeter;outlineConnect=0;targetShapes=umlLifeline;portConstraint=eastwest;newEdgeStyle={&quot;edgeStyle&quot;:&quot;elbowEdgeStyle&quot;,&quot;elbow&quot;:&quot;vertical&quot;,&quot;curved&quot;:0,&quot;rounded&quot;:0};" vertex="1" parent="9dg1Qpggz0v6w3t59ocL-34">
          <mxGeometry x="45" y="200" width="10" height="50" as="geometry" />
        </mxCell>
        <mxCell id="9dg1Qpggz0v6w3t59ocL-38" value="5-&lt;br&gt;+getPrecio()" style="html=1;verticalAlign=bottom;endArrow=block;edgeStyle=elbowEdgeStyle;elbow=vertical;curved=0;rounded=0;" edge="1" parent="1">
          <mxGeometry relative="1" as="geometry">
            <mxPoint x="469" y="1900" as="sourcePoint" />
            <Array as="points" />
            <mxPoint x="749" y="1900" as="targetPoint" />
            <mxPoint as="offset" />
          </mxGeometry>
        </mxCell>
        <mxCell id="9dg1Qpggz0v6w3t59ocL-39" value="&lt;i style=&quot;border-color: var(--border-color);&quot;&gt;subtotal += precioMcChombo2&lt;/i&gt;" style="html=1;verticalAlign=bottom;endArrow=open;dashed=1;endSize=8;edgeStyle=elbowEdgeStyle;elbow=vertical;curved=0;rounded=0;" edge="1" parent="1" source="9dg1Qpggz0v6w3t59ocL-35" target="9dg1Qpggz0v6w3t59ocL-22">
          <mxGeometry x="-0.0627" relative="1" as="geometry">
            <mxPoint x="485" y="1930" as="targetPoint" />
            <Array as="points">
              <mxPoint x="568" y="1930" />
            </Array>
            <mxPoint x="730" y="1930" as="sourcePoint" />
            <mxPoint as="offset" />
          </mxGeometry>
        </mxCell>
        <mxCell id="9dg1Qpggz0v6w3t59ocL-13" value="6-&lt;br&gt;+getPrecio()" style="html=1;verticalAlign=bottom;endArrow=block;edgeStyle=elbowEdgeStyle;elbow=vertical;curved=0;rounded=0;" edge="1" parent="1" source="aM9ryv3xv72pqoxQDRHE-2" target="9dg1Qpggz0v6w3t59ocL-7">
          <mxGeometry relative="1" as="geometry">
            <mxPoint x="410" y="840" as="sourcePoint" />
            <Array as="points">
              <mxPoint x="410" y="840" />
            </Array>
            <mxPoint x="517.75" y="840" as="targetPoint" />
            <mxPoint as="offset" />
          </mxGeometry>
        </mxCell>
        <mxCell id="HJQ2WrZzmwikBVrHChBw-2" value="&lt;i&gt;Item1&amp;nbsp;&lt;/i&gt;: &lt;b&gt;Item&lt;/b&gt;" style="shape=umlLifeline;perimeter=lifelinePerimeter;whiteSpace=wrap;html=1;container=0;dropTarget=0;collapsible=0;recursiveResize=0;outlineConnect=0;portConstraint=eastwest;newEdgeStyle={&quot;edgeStyle&quot;:&quot;elbowEdgeStyle&quot;,&quot;elbow&quot;:&quot;vertical&quot;,&quot;curved&quot;:0,&quot;rounded&quot;:0};" vertex="1" parent="1">
          <mxGeometry x="230" y="550" width="100" height="510" as="geometry" />
        </mxCell>
        <mxCell id="HJQ2WrZzmwikBVrHChBw-3" value="" style="html=1;points=[];perimeter=orthogonalPerimeter;outlineConnect=0;targetShapes=umlLifeline;portConstraint=eastwest;newEdgeStyle={&quot;edgeStyle&quot;:&quot;elbowEdgeStyle&quot;,&quot;elbow&quot;:&quot;vertical&quot;,&quot;curved&quot;:0,&quot;rounded&quot;:0};" vertex="1" parent="HJQ2WrZzmwikBVrHChBw-2">
          <mxGeometry x="45" y="90" width="10" height="330" as="geometry" />
        </mxCell>
        <mxCell id="HJQ2WrZzmwikBVrHChBw-11" value="" style="html=1;points=[[0,0,0,0,5],[0,1,0,0,-5],[1,0,0,0,5],[1,1,0,0,-5]];perimeter=orthogonalPerimeter;outlineConnect=0;targetShapes=umlLifeline;portConstraint=eastwest;newEdgeStyle={&quot;curved&quot;:0,&quot;rounded&quot;:0};" vertex="1" parent="HJQ2WrZzmwikBVrHChBw-2">
          <mxGeometry x="45" y="440" width="10" height="40" as="geometry" />
        </mxCell>
        <mxCell id="HJQ2WrZzmwikBVrHChBw-12" value="8-&lt;br&gt;-aplicarCantidad(subtotal)" style="html=1;align=left;spacingLeft=2;endArrow=block;rounded=0;edgeStyle=orthogonalEdgeStyle;curved=0;rounded=0;" edge="1" parent="HJQ2WrZzmwikBVrHChBw-2" source="HJQ2WrZzmwikBVrHChBw-2" target="HJQ2WrZzmwikBVrHChBw-11">
          <mxGeometry relative="1" as="geometry">
            <mxPoint x="70" y="420" as="sourcePoint" />
            <Array as="points">
              <mxPoint x="110" y="430" />
              <mxPoint x="110" y="460" />
            </Array>
          </mxGeometry>
        </mxCell>
        <mxCell id="uAsUkdCC7uXKx1wc8Jlj-1" value="3-&lt;br&gt;+getPrecio()" style="html=1;verticalAlign=bottom;endArrow=block;edgeStyle=elbowEdgeStyle;elbow=vertical;curved=0;rounded=0;" edge="1" parent="1">
          <mxGeometry x="-0.0019" relative="1" as="geometry">
            <mxPoint x="285" y="670.0033333333334" as="sourcePoint" />
            <Array as="points" />
            <mxPoint as="offset" />
            <mxPoint x="399.5" y="670.0033333333334" as="targetPoint" />
          </mxGeometry>
        </mxCell>
        <mxCell id="HJQ2WrZzmwikBVrHChBw-4" value="&lt;i&gt;factura&amp;nbsp;&lt;/i&gt;: &lt;br&gt;&lt;b&gt;Factura&lt;/b&gt;" style="shape=umlLifeline;perimeter=lifelinePerimeter;whiteSpace=wrap;html=1;container=0;dropTarget=0;collapsible=0;recursiveResize=0;outlineConnect=0;portConstraint=eastwest;newEdgeStyle={&quot;edgeStyle&quot;:&quot;elbowEdgeStyle&quot;,&quot;elbow&quot;:&quot;vertical&quot;,&quot;curved&quot;:0,&quot;rounded&quot;:0};" vertex="1" parent="1">
          <mxGeometry x="90" y="550" width="100" height="510" as="geometry" />
        </mxCell>
        <mxCell id="HJQ2WrZzmwikBVrHChBw-5" value="" style="html=1;points=[];perimeter=orthogonalPerimeter;outlineConnect=0;targetShapes=umlLifeline;portConstraint=eastwest;newEdgeStyle={&quot;edgeStyle&quot;:&quot;elbowEdgeStyle&quot;,&quot;elbow&quot;:&quot;vertical&quot;,&quot;curved&quot;:0,&quot;rounded&quot;:0};" vertex="1" parent="HJQ2WrZzmwikBVrHChBw-4">
          <mxGeometry x="45" y="60" width="10" height="50" as="geometry" />
        </mxCell>
        <mxCell id="HJQ2WrZzmwikBVrHChBw-8" value="" style="html=1;points=[];perimeter=orthogonalPerimeter;outlineConnect=0;targetShapes=umlLifeline;portConstraint=eastwest;newEdgeStyle={&quot;edgeStyle&quot;:&quot;elbowEdgeStyle&quot;,&quot;elbow&quot;:&quot;vertical&quot;,&quot;curved&quot;:0,&quot;rounded&quot;:0};" vertex="1" parent="HJQ2WrZzmwikBVrHChBw-4">
          <mxGeometry x="45" y="460" width="10" height="40" as="geometry" />
        </mxCell>
        <mxCell id="HJQ2WrZzmwikBVrHChBw-6" value="2-&lt;br&gt;+imprimir()" style="html=1;verticalAlign=bottom;endArrow=block;edgeStyle=elbowEdgeStyle;elbow=vertical;curved=0;rounded=0;" edge="1" parent="1" source="HJQ2WrZzmwikBVrHChBw-5" target="HJQ2WrZzmwikBVrHChBw-3">
          <mxGeometry relative="1" as="geometry">
            <mxPoint x="89.5" y="650" as="sourcePoint" />
            <Array as="points" />
            <mxPoint as="offset" />
            <mxPoint x="215" y="650" as="targetPoint" />
          </mxGeometry>
        </mxCell>
        <mxCell id="9dg1Qpggz0v6w3t59ocL-12" value="&lt;i&gt;subtotal&lt;/i&gt;" style="html=1;verticalAlign=bottom;endArrow=open;dashed=1;endSize=8;curved=0;rounded=0;" edge="1" parent="1" source="aM9ryv3xv72pqoxQDRHE-2">
          <mxGeometry x="-0.1273" relative="1" as="geometry">
            <mxPoint x="388" y="950" as="sourcePoint" />
            <mxPoint x="290" y="950" as="targetPoint" />
            <mxPoint as="offset" />
          </mxGeometry>
        </mxCell>
        <mxCell id="HJQ2WrZzmwikBVrHChBw-9" value="1-&lt;br&gt;+imprimir()" style="html=1;verticalAlign=bottom;startArrow=oval;startFill=1;endArrow=block;startSize=8;curved=0;rounded=0;" edge="1" parent="1" target="HJQ2WrZzmwikBVrHChBw-5">
          <mxGeometry x="0.0175" width="60" relative="1" as="geometry">
            <mxPoint x="40" y="630" as="sourcePoint" />
            <mxPoint x="140" y="630" as="targetPoint" />
            <mxPoint as="offset" />
          </mxGeometry>
        </mxCell>
        <mxCell id="9dg1Qpggz0v6w3t59ocL-9" value="5-&lt;br&gt;+getPrecio()" style="html=1;verticalAlign=bottom;endArrow=block;edgeStyle=elbowEdgeStyle;elbow=vertical;curved=0;rounded=0;" edge="1" parent="1" source="aM9ryv3xv72pqoxQDRHE-2" target="9dg1Qpggz0v6w3t59ocL-5">
          <mxGeometry relative="1" as="geometry">
            <mxPoint x="220" y="770" as="sourcePoint" />
            <Array as="points">
              <mxPoint x="410" y="770" />
            </Array>
            <mxPoint x="575" y="770" as="targetPoint" />
            <mxPoint as="offset" />
          </mxGeometry>
        </mxCell>
        <mxCell id="aM9ryv3xv72pqoxQDRHE-7" value="4-&lt;br&gt;+getPrecio()" style="html=1;verticalAlign=bottom;endArrow=block;edgeStyle=elbowEdgeStyle;elbow=vertical;curved=0;rounded=0;" edge="1" parent="1" source="aM9ryv3xv72pqoxQDRHE-2" target="aM9ryv3xv72pqoxQDRHE-6">
          <mxGeometry relative="1" as="geometry">
            <mxPoint x="314" y="690" as="sourcePoint" />
            <Array as="points">
              <mxPoint x="410" y="690" />
            </Array>
            <mxPoint as="offset" />
          </mxGeometry>
        </mxCell>
        <mxCell id="HJQ2WrZzmwikBVrHChBw-15" value="&lt;i&gt;precioTotal&lt;/i&gt;" style="html=1;verticalAlign=bottom;endArrow=open;dashed=1;endSize=8;curved=0;rounded=0;entryX=1.06;entryY=0.29;entryDx=0;entryDy=0;entryPerimeter=0;" edge="1" parent="1" source="HJQ2WrZzmwikBVrHChBw-11" target="HJQ2WrZzmwikBVrHChBw-8">
          <mxGeometry x="-0.1273" relative="1" as="geometry">
            <mxPoint x="280" y="1020" as="sourcePoint" />
            <mxPoint x="150" y="1020" as="targetPoint" />
            <mxPoint as="offset" />
          </mxGeometry>
        </mxCell>
        <mxCell id="HJQ2WrZzmwikBVrHChBw-16" value="&lt;i&gt;return&lt;br&gt;precioTotal&lt;/i&gt;" style="html=1;verticalAlign=bottom;endArrow=open;dashed=1;endSize=8;curved=0;rounded=0;" edge="1" parent="1" source="HJQ2WrZzmwikBVrHChBw-8">
          <mxGeometry x="-0.1273" relative="1" as="geometry">
            <mxPoint x="149" y="1040" as="sourcePoint" />
            <mxPoint x="50" y="1040" as="targetPoint" />
            <mxPoint as="offset" />
          </mxGeometry>
        </mxCell>
        <mxCell id="aM9ryv3xv72pqoxQDRHE-8" value="subtotal +=&amp;nbsp;&lt;i&gt;precioHamburguesa&lt;/i&gt;" style="html=1;verticalAlign=bottom;endArrow=open;dashed=1;endSize=8;edgeStyle=elbowEdgeStyle;elbow=vertical;curved=0;rounded=0;" edge="1" parent="1" target="aM9ryv3xv72pqoxQDRHE-2" source="aM9ryv3xv72pqoxQDRHE-6">
          <mxGeometry x="-0.0653" relative="1" as="geometry">
            <mxPoint x="210" y="720" as="targetPoint" />
            <Array as="points">
              <mxPoint x="410" y="720" />
            </Array>
            <mxPoint x="539.5" y="720" as="sourcePoint" />
            <mxPoint as="offset" />
          </mxGeometry>
        </mxCell>
        <mxCell id="9dg1Qpggz0v6w3t59ocL-10" value="subtotal +=&amp;nbsp;&lt;i&gt;precioPapas&lt;/i&gt;" style="html=1;verticalAlign=bottom;endArrow=open;dashed=1;endSize=8;edgeStyle=elbowEdgeStyle;elbow=vertical;curved=0;rounded=0;" edge="1" parent="1" target="aM9ryv3xv72pqoxQDRHE-2">
          <mxGeometry x="-0.0643" relative="1" as="geometry">
            <mxPoint x="405" y="799.9957142857143" as="targetPoint" />
            <Array as="points" />
            <mxPoint x="685" y="799.9957142857143" as="sourcePoint" />
            <mxPoint as="offset" />
          </mxGeometry>
        </mxCell>
        <mxCell id="HJQ2WrZzmwikBVrHChBw-18" value="&lt;i&gt;Item1&amp;nbsp;&lt;/i&gt;: &lt;b&gt;Item&lt;/b&gt;" style="shape=umlLifeline;perimeter=lifelinePerimeter;whiteSpace=wrap;html=1;container=0;dropTarget=0;collapsible=0;recursiveResize=0;outlineConnect=0;portConstraint=eastwest;newEdgeStyle={&quot;edgeStyle&quot;:&quot;elbowEdgeStyle&quot;,&quot;elbow&quot;:&quot;vertical&quot;,&quot;curved&quot;:0,&quot;rounded&quot;:0};" vertex="1" parent="1">
          <mxGeometry x="240" y="1690" width="100" height="470" as="geometry" />
        </mxCell>
        <mxCell id="HJQ2WrZzmwikBVrHChBw-19" value="" style="html=1;points=[];perimeter=orthogonalPerimeter;outlineConnect=0;targetShapes=umlLifeline;portConstraint=eastwest;newEdgeStyle={&quot;edgeStyle&quot;:&quot;elbowEdgeStyle&quot;,&quot;elbow&quot;:&quot;vertical&quot;,&quot;curved&quot;:0,&quot;rounded&quot;:0};" vertex="1" parent="HJQ2WrZzmwikBVrHChBw-18">
          <mxGeometry x="45" y="90" width="10" height="330" as="geometry" />
        </mxCell>
        <mxCell id="HJQ2WrZzmwikBVrHChBw-20" value="" style="html=1;points=[[0,0,0,0,5],[0,1,0,0,-5],[1,0,0,0,5],[1,1,0,0,-5]];perimeter=orthogonalPerimeter;outlineConnect=0;targetShapes=umlLifeline;portConstraint=eastwest;newEdgeStyle={&quot;curved&quot;:0,&quot;rounded&quot;:0};" vertex="1" parent="HJQ2WrZzmwikBVrHChBw-18">
          <mxGeometry x="55" y="359.97" width="10" height="40" as="geometry" />
        </mxCell>
        <mxCell id="HJQ2WrZzmwikBVrHChBw-21" value="7-&lt;br&gt;-aplicarCantidad(subtotal)" style="html=1;align=left;spacingLeft=2;endArrow=block;rounded=0;edgeStyle=orthogonalEdgeStyle;curved=0;rounded=0;exitX=0.5;exitY=0.788;exitDx=0;exitDy=0;exitPerimeter=0;" edge="1" parent="HJQ2WrZzmwikBVrHChBw-18" source="HJQ2WrZzmwikBVrHChBw-19" target="HJQ2WrZzmwikBVrHChBw-20">
          <mxGeometry relative="1" as="geometry">
            <mxPoint x="59.928571428571445" y="349.9985714285715" as="sourcePoint" />
            <Array as="points">
              <mxPoint x="100" y="350" />
              <mxPoint x="100" y="380" />
            </Array>
          </mxGeometry>
        </mxCell>
        <mxCell id="HJQ2WrZzmwikBVrHChBw-22" value="3-&lt;br&gt;+getPrecio()" style="html=1;verticalAlign=bottom;endArrow=block;edgeStyle=elbowEdgeStyle;elbow=vertical;curved=0;rounded=0;" edge="1" parent="1" target="9dg1Qpggz0v6w3t59ocL-23">
          <mxGeometry x="-0.0019" relative="1" as="geometry">
            <mxPoint x="295" y="1810.0033333333336" as="sourcePoint" />
            <Array as="points" />
            <mxPoint as="offset" />
            <mxPoint x="409.5" y="1810.0033333333336" as="targetPoint" />
          </mxGeometry>
        </mxCell>
        <mxCell id="HJQ2WrZzmwikBVrHChBw-23" value="&lt;i&gt;factura&amp;nbsp;&lt;/i&gt;: &lt;br&gt;&lt;b&gt;Factura&lt;/b&gt;" style="shape=umlLifeline;perimeter=lifelinePerimeter;whiteSpace=wrap;html=1;container=0;dropTarget=0;collapsible=0;recursiveResize=0;outlineConnect=0;portConstraint=eastwest;newEdgeStyle={&quot;edgeStyle&quot;:&quot;elbowEdgeStyle&quot;,&quot;elbow&quot;:&quot;vertical&quot;,&quot;curved&quot;:0,&quot;rounded&quot;:0};" vertex="1" parent="1">
          <mxGeometry x="100" y="1690" width="100" height="470" as="geometry" />
        </mxCell>
        <mxCell id="HJQ2WrZzmwikBVrHChBw-24" value="" style="html=1;points=[];perimeter=orthogonalPerimeter;outlineConnect=0;targetShapes=umlLifeline;portConstraint=eastwest;newEdgeStyle={&quot;edgeStyle&quot;:&quot;elbowEdgeStyle&quot;,&quot;elbow&quot;:&quot;vertical&quot;,&quot;curved&quot;:0,&quot;rounded&quot;:0};" vertex="1" parent="HJQ2WrZzmwikBVrHChBw-23">
          <mxGeometry x="45" y="60" width="10" height="390" as="geometry" />
        </mxCell>
        <mxCell id="HJQ2WrZzmwikBVrHChBw-26" value="2-&lt;br&gt;+imprimir()" style="html=1;verticalAlign=bottom;endArrow=block;edgeStyle=elbowEdgeStyle;elbow=vertical;curved=0;rounded=0;" edge="1" parent="1">
          <mxGeometry relative="1" as="geometry">
            <mxPoint x="155" y="1789.9957142857143" as="sourcePoint" />
            <Array as="points" />
            <mxPoint as="offset" />
            <mxPoint x="285" y="1789.9957142857143" as="targetPoint" />
          </mxGeometry>
        </mxCell>
        <mxCell id="HJQ2WrZzmwikBVrHChBw-27" value="&lt;i&gt;subtotal&lt;/i&gt;" style="html=1;verticalAlign=bottom;endArrow=open;dashed=1;endSize=8;curved=0;rounded=0;" edge="1" parent="1">
          <mxGeometry x="-0.1273" relative="1" as="geometry">
            <mxPoint x="457" y="2020" as="sourcePoint" />
            <mxPoint x="293" y="2020" as="targetPoint" />
            <mxPoint as="offset" />
          </mxGeometry>
        </mxCell>
        <mxCell id="HJQ2WrZzmwikBVrHChBw-28" value="1-&lt;br&gt;+imprimir()" style="html=1;verticalAlign=bottom;startArrow=oval;startFill=1;endArrow=block;startSize=8;curved=0;rounded=0;" edge="1" parent="1" target="HJQ2WrZzmwikBVrHChBw-24">
          <mxGeometry x="0.0105" width="60" relative="1" as="geometry">
            <mxPoint x="50" y="1770" as="sourcePoint" />
            <mxPoint x="150" y="1770" as="targetPoint" />
            <mxPoint as="offset" />
          </mxGeometry>
        </mxCell>
        <mxCell id="HJQ2WrZzmwikBVrHChBw-29" value="&lt;i&gt;precioTotal&lt;/i&gt;" style="html=1;verticalAlign=bottom;endArrow=open;dashed=1;endSize=8;curved=0;rounded=0;entryX=1.06;entryY=0.29;entryDx=0;entryDy=0;entryPerimeter=0;" edge="1" parent="1">
          <mxGeometry x="-0.1273" relative="1" as="geometry">
            <mxPoint x="285" y="2100" as="sourcePoint" />
            <mxPoint x="155.60000000000002" y="2101.6" as="targetPoint" />
            <mxPoint as="offset" />
          </mxGeometry>
        </mxCell>
        <mxCell id="HJQ2WrZzmwikBVrHChBw-30" value="&lt;i&gt;return&lt;br&gt;precioTotal&lt;/i&gt;" style="html=1;verticalAlign=bottom;endArrow=open;dashed=1;endSize=8;curved=0;rounded=0;" edge="1" parent="1">
          <mxGeometry x="-0.1273" relative="1" as="geometry">
            <mxPoint x="145" y="2130" as="sourcePoint" />
            <mxPoint x="60" y="2130" as="targetPoint" />
            <mxPoint as="offset" />
          </mxGeometry>
        </mxCell>
        <mxCell id="HJQ2WrZzmwikBVrHChBw-31" value="" style="shape=image;verticalLabelPosition=bottom;labelBackgroundColor=default;verticalAlign=top;aspect=fixed;imageAspect=0;image=data:image/png,iVBORw0KGgoAAAANSUhEUgAAA9MAAAI7CAYAAADvbcgeAAAgAElEQVR4Aey9TahlXXXuryHYsWvStRdtJI0ggYC9agR7kr7VsRFITxHs5P5JUSAvig178b2UCaRj50rwbSQXUlw/sBqXpET+WGqE0jdYCZgKaioRU29M9q1nm6ccZ9Tca891zlp7zTnXb0HV+pofY47xm2PN56x99nnb2972tgP/8AEMwAAMwAAMwAAMwAAMwAAMwAAMzGJgVmGENz98gAEYgAEYgAEYgAEYgAEYgAEYgAF+8sAPE2AABmAABmAABmAABmAABmAABmBgNgOzK/ATCH4KBQMwAAMwAAMwAAMwAAMwAAMwsHcGENP8BAYGYAAGYAAGYAAGYAAGYAAGYAAGZjKAw2Y6bO8/fWH8/AQSBmAABmAABmAABmAABmAABhCS/DABBmAABmAABmAABmAABmAABmAABmYzMLsCP4Hgp1AwAAMwAAMwAAMwAAMwAAMwAAN7ZwAxzU9gYAAGYAAGYAAGYAAGYAAGYAAGYGAmAzhspsP2/tMXxs9PIGEABmAABmAABmAABmAABmCgVkge2PAAHsADO/ZAba6kHD+ghQEYgAEYgAEYgIHdMFA3UK2hgaLOV/gJP8HAWAyQ/8aKJ/OTeMIADMAADMAADCzEQJ0jWUzW+WmhoPCDCz42AwMNMUD+I/+R22EABmAABmAABmCgwECdU1hM1vmp4GBEUUOiiPjA8XUYIP/BzXW4oQ7cwAAMwAAMwMDwDNQNkMVknZ+YMPgJBsZjgPw3XkyZp8QUBmAABmAABmBgAQbqnMhiss5PCwSEN9m8yYaBxhgg/5H/yO0wAAMwAAMwAAMwUGCgziksJuv8VHAwwqgxYUSMYHkuA+Q/mJnLDOVhBgZgAAZgAAZ2wUDdIFlM1vmJSYOfYGA8Bsh/48WUeUpMYQAGYAAGYAAGFmCgzoksJuv8tEBAhnuTfe/ePeHzyvbs2bPD7du3D48ePTrcv3//5LhV5smTJ8ey+BcOt2BA8G7RL33COwzAAAzAAAzAAAw0zUCdcSwm6/wE7NN+knCWuJ7jJ8T0tE/n+JKy1/Ml+e96foM3/AYDMAADMAADMDA4A3UBZjFZ56fBYZklgku+uKSYlmifeuNdso9rcF5igPwHFyUuuAYXMAADMAADMLB7BuocwGKyzk9MqGk/lcR0/Jj3rVu3jh/pFm/adC+/mdY1f0Q8l7d41j5uc9+GE8fpOO7NP2Jpb2NmvMwBGIABGIABGIABGDjLwNkCx0Uki8k6PwHctJ/OiekorO3LKKbz/diehbWFswS1xbXbYj8dH/xT9g/5r+wXeMEvMAADMAADMAADO2egDgAWk3V+2jlMZ9/eRfFrX1kgSzQ/ffr0cPfu3SvtWEzrS8iiONZ1vaHOm8sgpmHWjN10T/6DpZsyRH0YggEYgAEYgIEhGagbFIvJOj8xSab9dF0xLdH88OHDo3j2m+dT4tsxQExPx8J+Yn/eT+S/8z6CI3wEAzAAAzAAAzCwQwbqgs5iss5POwToylvkc+OfEtOq67fUsR2/mdZeb60lrP32WuX1L5b3MWIaZs3CTffkP1i6KUPUhyEYgAEYgAEYGJKBukGxmKzzE5Nk2k/nxHT+6LbKRzEt/+rN9PPnz4+C2r8nLT61+brKSXDrXJvfZhOf6fjgn7J/xBC+KfsGv+AXGIABGIABGICBHTNQF3wWk3V+2jFIiI0XAp74j+kD8t+YcWW+ElcYgAEYgAEYgIEbMlDnQBaTdX66YTAQYwhSGGiQAfIf+Y/cDgMwAAMwAAMwAAMFBuqcwmKyzk8FByOOGhRHxAme5zBA/oOXObxQFl5gAAZgAAZgYDcM1A2UxWSdn5g4+AkGxmOA/DdeTJmnxBQGYAAGYAAGYGABBuqcyGKyzk8LBIQ32bzJhoHGGCD/kf/I7TAAAzAAAzAAAzBQYKDOKVpMsuEBPIAH9uaBO3fuHIdcSJ780KOxH3oQo7rnOX7CTzAAAzAAAzCwGAN1DWk1idPrfIWf8BMMjMUA+W+seDI/iScMwAAMwAAMwMBCDNQ5ksVknZ8WCgo/uOCNFww0xAD5j/xHbocBGIABGIABGICBAgN1TmExWeengoMRRQ2JIuIDx9dhgPwHN9fhhjpwAwMwAAMwAAPDM1A3QBaTdX5iwuAnGBiPAfLfeDFlnhJTGIABGIABGICBBRiocyKLyTo/LRAQ3mTzJhsGGmOA/Ef+I7fDAAzAAAzAAAzAQIGBOqewmKzzU8HBCKPGhBExguW5DJD/YGYuM5SHGRiAARiAARjYBQN1g2QxWecnJg1+goHxGCD/jRdT5ikxhQEYgAEYgAEYWICBOieymKzz0wIB4U02b7JhoDEGyH/kP3I7DMAADMAADMAADBQYqHMKi8k6PxUcjDBqTBgRI1ieywD5D2bmMkN5mIEBGIABGICBXTBQN0gWk3V+YtLgJxgYjwHy33gxZZ4SUxiAARiAARiAgQUYqHMii8k6Py0QEN5k8yYbBhpjgPxH/iO3wwAMwAAMwAAMwECBgTqnsJis81PBwQijxoQRMYLluQyQ/2BmLjOUhxkYgAEYgAEY2AUDdYNkMVnnJyYNfoKB8Rgg/40XU+YpMYUBGIABGIABGFiAgTonspis89MCAeFNNm+yYaAxBsh/5D9yOwzAAAzAAAzAAAwUGKhzCovJOj8VHIwwakwYESNYnssA+Q9m5jJDeZiBARiAARiAgV0wUDdIFpN1fmLS4CcYGI8B8t94MWWeElMYgAEYgAEYgIEFGKhzIovJOj8tEBDeZPMmGwYaY4D8R/4jt8MADMAADMAADMBAgYE6p7CYrPNTwcEIo8aEETGC5bkMkP9gZi4zlIcZGIABGIABGNgFA3WDZDFZ5ycmDX6CgfEYIP+NF1PmKTGFARiAARiAARhYgIE6J2oxyYYH8AAe2JsH7ty5cxzyAsmWT6nwKRUYgAEYgAEYgAEYGIuBejHNYrLOV/gJP8HAWAxITRPTsWJKPIknDMAADMAADMDAAgzUOZHFZJ2fFggIi/axflpFPAeIJ/mP/EduhwEYgAEYgAEYgIECA3VOYTFZ56eCgxFTA4gp4rpv/sl/+44/85/4wwAMwAAMwAAMnGCgzjEsJuv8dMLJCGoENQx0zAD5j/xHbocBGIABGIABGICBAgN1TtnLYvLevXuHJ0+eHG7duoX46Vj8GPRHjx4d7t+/TywHiKVjusV+L/lvC9/SZ90zGD/hJxiAARiAARhokoE6o66zmJSI0fbs2bPD7du3mxc0EtCPHz8+3L1792irbJbtcbPQ1tgk1HqE2nGJ49IPEVobi/x7yi7F6OnTp2e5UgwVs1r+7BvF/Zvf/Ga3MW4tlr3bo7nS+xiwv+5Zh5/wEwzAAAzAAAzAwAwG6pw1dzE5V8TMMHi1Ra0EmsS030prDBJsFtfRxt7FdA8/CFhCTCtmU+3EmGZme45xHBfHdTluyk9z899UW9y7eTzwIT6EARiAARiAARhohIG6QEwtJrMI1cBK1+YOWG8lJWjm1rtu+SyeehHTEv8SjLK3Zux5nDV1TpV5+PBh8YcNp8rPuT4lgsVXzZtp9SeO1JaOp3yVmV3CT1P9zfEFZevy1Fp+msp/a/VJu9vGHP/jfxiAARiAARiAgQoG6pw0tZjMIkTiJW4WxBI03vJHv+M9fSxXIi1uFtZuSwOLgspvFd94441jNYun2G7sU+08ePDg+BHg58+fH9tS2dj+HDEd+3HfslHH6kd9aJMNGks8jyK4th3brLpq05s/hi7fuA/di+PScbTRkOS2YhmJQrXt7c0337xybt+qjsbnNnUcbdKbf/lDm+yY6lNtZd/ZVzH26kv9eLMttiHyab9EG3N925b9FPtQmdiGyno7Fxvbxb4u97TgJ8W2BTuwoR9miBWxggEYgAEYgIFdMFA3yKnFZBQrhqZ0zfe0l/jQPx9H4eZysYzLuY7O1YffTlqUldoptad2LHp8PwtBt2mRpL3bV/14HO3SdZ/r2GJS/ZTOXVZ7H7usz3M9Xdc1lZOd6sNCU/v48XSPw+JPdeOW/aA2JZ7j74+rL9ui+6UyuqZy7kfnOvb4LWRzO6faK405tuXYZ9Zin2o733d/eZ/LRR/rnvtzmxLtup7bUf+nYpPLcl6Xf7b2k+bL1jbQfx+sECfiBAMwAAMwAAO7YqBusKXFpERD3vxWMAsTQSWBETed+42n2srgScxE4ZXPo8DJAtJtlfrUvSiUYtlox6k2Y33bH8elY4sp7afGYDvmthP9KzujmNYYLDo9tug79+l73lt0x7GorVN+yIJb7Wi80YfRlhivc326rei7OM7YlsrkzRyqnegr91va53LRT/HYdeNYsw32f7TZ9djX5ZyW/CS+WrIHW/pjiJgRMxiAARiAARgYkoG6QU0tJrMIESj5WhYjPreIjALMoKmM/p06Vx9+W1gSLe4j1rfIzW2rTL52SkS6rNqasl/louByvTym67QT/ZvHHgWs+sz9Zr/ofh5HPD/lB5WJb6/VTh5vtCXafK5PtxV9FccZY18aj+r7X+7X1/M+l4vtxmPX81jjGHUvnkebXY/9L2PTiy+m8l8vY8DO/rgjZsQMBmAABmAABppnoM7AqcVkFiEKer4m4WFhZKGmaypbEiq+7jo+dx2f+w1kSbSc6zO27fZi+6dEZC6rdvwmUvfiP7UnceVrKhv71bH7nNNO9G8ee7Zb5/KT7Yh92q5cR+3r49+uE33pOqfEdByf6tk30Wa1UdOn66p89I/a8g9SdKzxaW/b4l5jsI/j9Xyc7Yt+iv2pXuwzltO9OGaNUWPQPvfH+dW50rI/pvJfy3ZjWz+MEStiBQMwAAMwAANdMlBn9NzFZBYmEhMSPNok0vTFUhY4FtfHmy/+s4BSGyqrTYIotqFr+pIyC5WSaInlc58SQPoXoZ2yWf1ps20lAfWLEr/4P4pQH6uv3O9128m2ypfabF/0na7HseY+7QPZ6U3t6K2zbY++VBnHTm1p8w81cr+Ks9pRjLPN6neqT8VXXyhnBtyH6qkti+ncjuyxfbqnY4/f9nlcuu9/2b7sp2ir+nAbmd84Zvev8o6N+2P/S9+37gvFr3Ubsa8fnogVsYIBGIABGICBYRioG8geFpMWRRZJQF7HRst+Kv2QpWV7sa1N5vaQ/2CvTfaIC3GBARiAARiAgaYZqDNuL4tJCWneINYx0cPEjm+le7AXG9tkby/5D/7a5I+4EBcYgAEYgAEYaJaBOsNYTNb5CdDxEwyMxwD5b7yYMk+JKQzAAAzAAAzAwAIM1DmRxWSdnxYICL+bGX6PGX/CXQsMkP/gsAUOsQEOYQAGYAAGYKA5BuoMYjFZ5ycAx08wMB4D5L/xYso8JaYwAAMwAAMwAAMLMFDnxL0sJvmd6ToeFgCPN/Arv4Hn98WXY3kv+Y95vRwz+BJfwgAMwAAMwMAuGKgb5HUWk/nPJrUOlL7NW3/GSX8iKdrqPwt1qW/5nvpW8aUFkmOk+HrTOPOfnor+aP3Y8fJ4tG/xS+Xyn+KKftUY9Ke/MouxzLnjud9kbhb0J8i++c1vXvnzYuf6Gv2+GBp9jIyv7lmIn/ATDMAADMAADMBAYKDOGXMXk3MX8sGgzRatp8SNxKVEtv7u8SXsnBLTS/ef/5ay2+9dTN9UiNoPa+5P8aY+lxDTakc/fKn5IVCer6e4WNMfLbc9N/+1PBZsq3vm4Sf8BAMwAAMwAAMwUMFAnZOmFpMlUVC6VmHMFbEqEaBF/dx61y1/SkBIkHz+858vvrW+bl9T9W4qps/5TbF54403jn49NWaVkSCVyJqy9VL39IMM2VTT31JCVH2pz7V+iKK29UMaxTuPq3YMivWUWNY98av21Y+OSzHNtpziIts5dT7V31S9Fu9N5b8W7cWmuucafsJPMAADMAADMAADN2SgzoFTi8m8ENcCPm4WxFrIe9NHSeOiPt7TR3IlYOKmNtWO29Kg1a8Fn9pSPYlEbRYQsd3Yp9p58ODBsc7z58+PbalsbN99WPDk/kttlK7JTvXhTWVKgtnjee211452lURStLHkZ7Udt9iG7YgfeVZ5+yqCZFscI9dV2/ZX9I985M1txnO3Pacd2WU/ua0YQ933Fq/L5lNvpqN/4jhkX/Sn7n39619388e96sp+86A6ts9+lk1iUPbYplN9uq3sO7Wbx+B+bJDatE/tB9vg69q7D9W373O5OG61r7b1T+26rVwmtlEan+zX+L1F5txmT3uNoyd7sbXuuYaf8BMMwAAMwAAMwMANGahz4NRiMi7YbUzpmu9p7wW7j+PC3eViGZfTNd9XH1FMa/FeasflY3s6zmJKdaNIyH3mMZXaKF1z/9pLZEhYaK++oshQ/6pv4ZRtUf1YRiJMNsX2daw29M/XLWxiX76ncnGzT7JvbbPqxXs6Vh3bWjqPMaptRzZbEMsfeayyO8Za5x6fxxvHFct67LLZ1+OYfF/7WMZjPyemLaJjOz6O7WVf2W6VieNXXdmp6zo+xYfK5L7VR7TXduR9Lhf9m32jc/WjfW4njk9jiPHOZXs6n8p/PY0DW+ued/gJP8EADMAADMAADFQyUOeo0mJSC+e8eTGfF+cyRov9uOn8lDBQeS3o9c8DyedxkZ/Fh+uU+nTbuudy2uvcgkXnti3abLF5qo0oQty27FQ9b24jisRov/uNtrgt2WifaK8tjyP6yW05Lm7H+5K9uhd9W4qzxxDLqV4WUHFcc9pRW45H9JOue0zRP7Hf2KfKx3/2mWNhAX7KD+oj+lfjjeI02xLj435P9Zl9p/Iqq39xDDpW/PKmcu5De9sSY53tjeXjcS6ntj3ueOw6jo3OdT9u9mmMiev1utf4erUdu6/mAPyBP2AABmAABmAABhZkoM6ZU4vJvBCXcflaXpD73AIgCiMPTmX079S5+jj11lN13EesHwVCbNvl47U8hlxGZWP5fF/nURSVzt2Gxm8RMuWTklhTXW22xW2qP/+zILMI9nWVtU98Tfvo22hbLONyUVxmARXHP6cdtW3BJn+oD9mk6yX/xH5jn9He3H88P+UHlYn+yUxkW2yz+4196Fo8jz52eccujiEeu1zc674EdI6tymR7Y714nMtFf8Rj1/E443h0L57LLt5M/3IO2nfs8QkMwAAMwAAMwAAMDMNA3UBuKqa1+NaiXOBYgFiklBbrKqfrruNz1/G538KVFu7n+oxtu73Yfqyv+/oXBVC2z23EdmN53ZfYiKLHdkt06J7K2D8+1zX/K9nkdm17yS7Xd9u2UXvXcxnto90WayV7sgjzeLRXO9r749pz2lFd2aU+ZXMU07qX7da5fxgR+1RZ/8t11L7rxPG6vPbqP/onl9O54mnf2Ga3ca7PWDf6J49B7UY73L769RzwtbjP9sd78TjHMdpdGrP61PVYTu3JRvtUY9Cx9rGvHo+n8l+P48HmX+YFfIEvYAAGYAAGYAAGbsBAnfPmLibz4txCQe1IQOjLvywOLPB0T5sX42pDZbVJFMQ2dE1fUubFemnhHsvnPiUC9C86LtqsuhaBsYxtlT2lNk5dk73aJAqzMJQfoiByH7+o8Yv/fV9l1Ucuo/HJftma/Rbtz8dqK28am9rwW//cpsrHGGk8skflchyyH6NtU+2oLY1VtujYdtoPvm/b4/Xcp8rqX/aZGIy2uw+1aX+qLbWtTfdzv/KD2rCd0eZzfcoXYlh1vLmPPIZsu+3z2E7tzYvu2/e2NdbRvewL1XUZ1Ymb28h2ZZ96bObF7fW219h7sxl7655t+Ak/wQAMwAAMwAAM3ICBOuftYTFpYWChcAOnzlp4S0BF4XKpfumnjv1e/SRB7h829TqGVuzeQ/5rxdfYMXZeIr7EFwZgAAZgYDAG6gK6l8WkhPQl36LpjaDefGo/GFiM57/fiG8V1/hWeisbRul3L/lvlHgxjrrnOn7CTzAAAzAAAzBwYwbqGmAxWeenWiD9Flx+9Ud7a+tSbtlY4E/8eY4B8h+MnGOE+zACAzAAAzAAA7tkoG7QLCbr/MQkwk8wMB4D5L/xYso8JaYwAAMwAAMwAAMLMFDnRBaTdX5aICB8PHrjj0cTQ1jPDJD/YCIzwTlMwAAMwAAMwAAMvGCgzgksJuv8VOtPyuFPGOiHAfJfP7FiXhErGIABGIABGICBCzJQ52wWk3V+umDgeINd+YMgYgK7N2WA/AdDN2WI+jAEAzAAAzAAA0MyUDcoFpN1fmKS4CcYGI8B8t94MWWeElMYgAEYgAEYgIEFGKhzIovJOj8tEBDeOPPGGQYaY4D8R/4jt8MADMAADMAADMBAgYE6p7CYrPNTwcEIo8aEETGC5bkMkP9gZi4zlIcZGIABGIABGNgFA3WDZDFZ5ycmDX6CgfEYIP+NF1PmKTGFARiAARiAARhYgIE6J7KYrPPTAgHhTTZvsmGgMQbIf+Q/cjsMwAAMwAAMwAAMFBiocwqLyTo/FRyMMGpMGBEjWJ7LAPkPZuYyQ3mYgQEYgAEYgIFdMFA3SBaTdX5i0uAnGBiPAfLfeDFlnhJTGIABGIABGICBBRiocyKLyTo/LRAQ3mTzJhsGGmOA/Ef+I7fDAAzAAAzAAAzAQIGBOqewmKzzU8HBCKPGhBExguW5DJD/YGYuM5SHGRiAARiAARjYBQN1g2QxWecnJg1+goHxGCD/jRdT5ikxhQEYgAEYgAEYWICBOieymKzz0wIB4U02b7JhoDEGyH/kP3I7DMAADMAADMAADBQYqHMKi8k6PxUcjDBqTBgRI1ieywD5D2bmMkN5mIEBGIABGICBXTBQN0gWk3V+YtLgJxgYjwHy33gxZZ4SUxiAARiAARiAgQUYqHMii8k6Py0QEN5k8yYbBhpjgPxH/iO3wwAMwAAMwAAMwECBgTqnsJis81PBwQijxoQRMYLluQyQ/2BmLjOUhxkYgAEYgAEY2AUDdYNkMVnnJyYNfoKB8Rgg/40XU+YpMYUBGIABGIABGFiAgTonspis89MCAeFNNm+yYaAxBsh/5D9yOwzAAAzAAAzAAAwUGKhzCovJOj8VHIwwakwYESNYnssA+Q9m5jJDeZiBARiAARiAgV0wUDdIFpN1fmLS4CcYGI8B8t94MWWeElMYgAEYgAEYgIEFGKhzIovJOj8tEBDeZPMmGwYaY4D8R/4jt8MADMAADMAADMBAgYE6p7CYrPNTwcEIo8aEETGC5bkMkP9gZi4zlIcZGIABGIABGNgFA3WD1GKSDQ/gATywVw/wQKx7VuAn/AQDMAADMAADMLAjBgj2joLd3FtyCTP8zxyEARiAARiAARiAARiAARjokAGC1mHQhhGgiGnmH/MPBmAABmAABmAABmAABjplgMB1GrghBDVimvnH/IMBGIABGIABGIABGICBThkgcJ0GDjHNF5sNwQDzjxwMAzAAAzAAAzAAAzDQKQMErtPADSGkeDPN/GP+wQAMwAAMwAAMwAAMwECnDBC4TgOHmObN9BAMMP/IwTAAAzAAAzAAAzAAA50yQOA6DdwQQoo308w/5h8MwAAMwAAMwAAMwAAMdMoAges0cIhp3kwPwQDzjxwMAzAAAzAAAzAAAzDQKQMErtPADSGkeDPN/GP+wQAMwAAMwAAMwAAMwECnDBC4TgOHmObN9BAMMP/IwTAAAzAAAzAAAzAAA50yQOA6DdwQQoo308w/5h8MwAAMwAAMwAAMwAAMdMoAges0cIhp3kwPwQDzjxwMAzAAAzAAAzAAAzDQKQMErtPADSGkeDPN/GP+wQAMwAAMwAAMwAAMwECnDBC4TgOHmObN9BAMMP/IwTAAAzAAAzAAAzAAA50yQOA6DdwQQoo308w/5h8MwAAMwAAMwAAMwAAMdMoAges0cIhp3kwPwQDzjxwMAzAAAzAAAzAAAzDQKQMErtPADSGkeDPN/GP+wQAMwAAMwAAMwAAMwECnDBC4TgOHmObN9BAMMP/IwTAAAzAAAzAAAzAAA50yQOA6DdwQQoo308w/5h8MwAAMwAAMwAAMwAAMdMoAges0cIhp3kwPwQDzjxwMAzAAAzAAAzAAAzDQKQMErtPADSGkeDPN/GP+wQAMwAAMwAAMwAAMwECnDBC4TgOHmObN9BAMMP/IwTAAAzAAAzAAAzAAA50yQOA6DdwQQoo308w/5h8MwAAMwAAMwAAMwAAMdMoAges0cIhp3kwPwQDzjxwMAzAAAzAAAzAAAzDQKQMErtPADSGkeDPN/GP+wQAMwAAMwAAMwAAMwECnDBC4TgOHmObN9BAMMP/IwTAAAzAAAzAAAzAAA50yQOA6DdwQQoo308w/5h8MwAAMwAAMwAAMwAAMdMoAges0cIhp3kwPwQDzjxwMAzAAAzAAAzAAAzDQKQMErtPADSGkeDPN/GP+wQAMwAAMwAAMwAAMwECnDBC4TgOHmObN9BAMMP/IwTAAAzAAAzAAAzAAA50yQOA6DdwQQoo308w/5h8MwAAMwAAMwAAMwAAMdMoAges0cIhp3kwPwQDzjxwMAzAAAzAAAzAAAzDQKQMErtPADSGkeDPN/GP+wQAMwAAMwAAMwAAMwECnDBC4TgOHmObN9BAMMP/IwTAAAzAAAzAAAzAAA50yQOA6DdwQQoo308w/5h8MwAAMwAAMwAAMwAAMdMoAges0cIhp3kwPwQDzjxwMAzAAAzAAAzAAAzDQKQMErtPADSGkeDPN/GP+wQAMwAAMwAAMwAAMwECnDBC4TgOHmObN9BAMMP/IwTAAAzAAAzAAAzAAA50yQOA6DdwQQoo308w/5h8MwAAMwAAMwAAMwAAMdMoAges0cIhp3kwPwQDzjxwMAzAAAzAAAzAAAzDQKQMErtPADSGkeDPN/GP+wQAMwAAMwAAMwAAMwECnDBC4TgOHmObN9BAMMP/IwTAAAzAAAzAAAzAAA50yQOA6DdwQQoo308w/5h8MwAAMwAAMwAAMwAAMdMoAges0cLsQ0z4/WBAAACAASURBVLdv3z48ffr0cPfu3SHGC2vkGxiAARiAARiAARiAARgYhoFhBoLY6vBjz7yZZv7xMIEBGIABGIABGIABGICBThkgcJ0GbogfHswV0/fu3Tvcv39/iLHDHbkHBmAABmAABmAABmAABrpmoGvjEVUdvo2OCeOcmI4f85aIjpuEtdp69OjRy8s6dvs6fvDgweH58+fH+8+ePTuoTjxX+yqv63FDsJMXzBF7WIABGIABGIABGIABGDjBAI454ZiXooz76zEiATvl3yimVU4iNwrdfC4B7fs6fvLkyeHWrVvHPkrnKqv7jx8/5veyO//BzBRH3FtvDuNbfAsDMAADMAADMLBjBgj+joM/KWQv4ZcspuMbYgndKTEtESyxnDeJZtkehbXOs/DWucvqWJvPLzF2+iD3wAAMwAAMwAAMwAAMwEDXDHRt/OZiEPhvxo8E7JQPa8S0P+6d25EwjvemxLTrWsyrrK+xv1mM8R/+gwEYgAEYgAEYgAEYGJQBAjtoYLsQgzcR04qbRG/8KHeM5XXEtOpLUPOGmrwQWeIYHmAABmAABmAABmAABgoM4JSCU7oQoiPYPVdM6+9N+wvE/NZZwjdu8bqP5atTb6bzx8XVPn/XmrwwwvxiDHAMAzAAAzAAAzAAA6sysGrjiNIXIg6AT/vgnJjGd6d9h2/wDQzAAAzAAAzAAAzAAAxsysCmnSM0dy62EdPMPx4AMAADMAADMAADMAADMNApAwSu08AN8YMIxDTzj/kHAzAAAzAAAzAAAzAAA50yQOA6DRxieudv9eGW3AUDMAADMAADMAADMAADmzKwaedDCEIAvj5DvJm+vu/gDt/BAAzAAAzAAAzAAAzAwKYMbNo5Ynrnb1cR08w/HgAwAAMwAAMwAAMwAAMw0CkDBK7TwA3xgwjENPOP+QcDMAADMAADMAADMAADnTJA4DoNHGJ652/14ZbcBQMwAAMwAAMwAAMwAAObMrBp50MIQgC+PkO8mb6+7+AO38EADMAADMAADMAADMDApgxs2jlieudvVxHTzD8eADAAAzAAAzAAAzAAAzDQKQMErtPADfGDCMQ084/5BwMwAAMwAAMwAAMwAAOdMkDgOg0cYnrnb/XhltwFAzAAAzAAAzAAAzAAA5sysGnnQwhCAL4+Q6feTN+6devw+PHjw927d2GEHxrAAAzAAAzAAAzAAAzAAAy0yMD1hRAiEt/dlIGSmL59+/bh2bNnh+fPnyOmSZotJk1sgksYgAEYgAEYgAEYgAExgCDEB9sxkMW030h/5jOf4c00c5OHFAzAAAzAAAzAAAzAAAy0zMB2QgoRi++zmDYTFtU1H/PWm+wnT54cHj58qOaOm87VhttjD2swAAMwAAMwAAMwAAMwAAMLM4BDF3YoAm7GT8+kfEv+nyum9bHw+/fvH9tSXYnpe/fuFdsu9cc18gAMwAAMwAAMwAAMwAAMwMBMBnDYTIch0GaI5XO+XUpMP3369MrvV0tYW1yfs4H75AAYgAEYgAEYgAEYgAEYgIFrMIDTruE0BPVCgnopMa030fq4t2OJmGZemwX2sAADMAADMAADMAADMLASAzh2Jce+FHa0f5oxxPRp38ANvoEBGIABGIABGIABGICBphlo2jgE6UJvgFudhHPE9KNHj46/C63fidbvQ/tPZ/kLyHgzzVxulXPsgk0YgAEYgAEYgAEYGJKBIQeFCO9EhJ8S0yQb5iUMwAAMwAAMwAAMwAAMwEDjDBCgxgM09A8GENPMP+YfDMAADMAADMAADMAADHTKAIHrNHBDiGzENPOP+QcDMAADMAADMAADMAADnTJA4DoNHGK6k4+ywxc5BgZgAAZgAAZgAAZgAAaGZGDIQQ0hNEeZcHfu3Dm85z3vKcak9Gb63e9+90F13vGOdxTrjOIXxkHugQEYgAEYgAEYgAEYgIGuGejaeMRWB29nP/7xjx+++MUvFmNVEtOvv/764ROf+ESxPMmG+QoDMAADMAADMAADMAADMNAIAwSikUAMLR6/9rWvHT784Q+/MsYspt/3vvcdnj59enjnO9/5SlnixFyFARiAARiAARiAARiAARhoiAGC0VAwhhWQ73//+48i+V3veteVMWYx/YUvfOHwkY985EoZ4sMchQEYgAEYgAEYgAEYgAEYaJABgtJgUIYUk5/61KcOn/vc566MLYrpD3zgA4dvfetbV+4TG+YnDMAADMAADMAADMAADMBAowwQmEYDM5yofPvb3374zne+c/jgBz/4cmxRTH/1q189fOhDH3p5j7gwN2EABmAABmAABmAABmAABhpmgOA0HJzhhKWEtAS1hLX8bjEtES0xTSyYjzAAAzAAAzAAAzAAAzAAA50wQKA6CdQwQlMf9f7kJz95RUzr4936mDexYD7CAAzAAAzAAAzAAAzAAAx0wgCB6iRQwwhNfQmZvrFbX0qmTV84pi8eIw7MRRiAARiAARiAARiAARiAgY4YIFgdBWsYwak/k6U/l6VNwlp/Eos4MBdhAAZgAAZgAAZgAAZgAAY6YoBgdRSsoQTnF7/4xaOYfv3114caFzyRU2AABmAABmAABmAABmBgFwzsYpCItRdf9tXahP6t3/qtw/e///3Du9/97uZsa81X2NMev8SEmMAADMAADMAADMDA7hkYwwHHV5z8hwfwQHMe4CEzRo4ljsQRBmAABmAABmAABl5h4JULXb4llIIguGPEkjiOE0fm5TixZF4SSxiAARiAARiAARh4hYFXLnQpSlm0jxFHJuhYcWRejhVP5ifxhAEYgAEYgAEYgIErDFw56VJIK6As2seII5NzrDgyL8eKJ/OTeMIADMAADMAADMDAFQaunCCmG/yiLoAdg9E9xhExDbt75J4xwz0MwAAMwAAM7IaBMQbKon2MOJJ4xooj83KseDI/iScMwAAMwAAMwAAMXGHgyglvpnkz3S0DTOz25jJiur2YME+ICQzAAAzAAAzAAAwsxsBiDW0qwli0jxFHJvZYcWRejhVP5ifxhAEYgAEYgAEYgIErDFw52VQQ3yQwLNrbjOOjR48UmuN27969bvm6CZt7rqvA73n8jL3NvERciAsMwAAMwAAMwMBCDIzhSBbt7cZRghoh3W58FkokRdHMvNxn3NdkirZhCgZgAAZgAAZgoCEGxggGi/Z24xjF9K1btw46v337dlF8NTQxsG+B7w9gXrY1LxUPNjwwxwPk5LbmMPEgHjAAAzDQHAPNGXQtEaPFAXC1GUuLaQnoZ8+evVzHPXny5CBxrX869nb//v1jLFVe1x8+fOhbRyGu+97UNnFvM+6Kizbi0058iEc7sehhXsALvPTAKTbCKQzAwMYMjBEAHvrtxtFiWqBbIMc30/G+hbU+Fm7xHcW1xHg8f/r06eHu3bsItgXeIq+RiJiXbc1L4tFWPNaYc0u2CS/wsiRPtAVPMAADgzIwRmB56LcbxyiWs5i2YFb84ibBrHtRLEtoP378+KV4jsJ70MnZ/Q8JFFNi087cJB7txKKHeQEv8NIDp9gIpzAAAxszMEYAeOi3G8dzYjoK5jgZsvBGTLcb4xi3eMy8bCtmxKOteMS50uIxvMBLi1xiE1zCAAw0xsAYAeGh324cp8S0JoPu61+eGIjpdmOaY3XqnHnZVgyJR1vxODVvWrkOL/DSCovYAYswAAMNMzBGcHjotxlHiWRv/vNYvnbqC8ieP39+/Cg3YrrNmM5JZszLtmJIPNqKx5y5tEVZeIGXLbijT7iDARjojIExAsZDf4w4djZ5Xnmbjv1XOWReXvXH1nwQj7bisTUP5/qHF3g5x0iP9/OvjPU4BmxmbsJAUww0Zcy1xQkP/THiSHIYK47My7biOUI89AkXfau/PrkS84U+8eJPv8TrHF+fwRF4If7Xj/+ovkNMw8SobDOuzdjerOMrC6GbAsBDf4w43pQD6rfFAfOSeCw9J/V35/Wt/lk4I6aXZ435u7xPl54PtDc/RkuIaf1JTuUi/D/f//gMnw3IwBhB5aE/RhwHnGC7ftgyL9ual73Hw9+jICEtQa1FsXPGdcT0WgtiLbLVtm3rdd87L736Hbt/8cWkDx48OOg7VLTFT6Nobmn+6742/SlN+czfx6JrsbzuqYw3/QURfWeL52jOHcov/k4X1dW5N9nz9a9/3afHvfuP5XRD56qvPKX2vGXbVIZ/+AAGumaga+NfJiAlKUAcI5bEcZw4Mi/bimXv8dCiVf9Kb5a0ID61+JYI1wLWmxa2f/mXf+nT417tlhbpua76cY7Ki+Q333xzqEWzHOOxsm9rLo8eD82zKGg1P32ueSpRq2v2g47j3MzlJaD9qyESuf6iU9VXPQtfnes49hXruj+Vif3JplhO58o52ueyboM9cwoGhmFgjIFcWRVxggfwwOYeuHPnztEGHhbt5FgFpId4eGEcF6hZQKuM/nk8U4vvXNZ18iJX/eVFustqn21Qn9GGUplYR2XjAjy23eJxL7y06Dtsqs978QdWFrF5bqmM7mkf84L87B9qaT7b77F8nndxTqq8+op1dWw7cl23n3NHqZzb9fiigHc77Os5wVf4qmEGxggOD/0x4tjwRHn5kMbGetaYl/W+ug5Xf/zHf3z4+Mc/Xs1mD/HwojQvmC10NQZvXvDKd+cW31rI5o9X5gVx7lPteiHsPrVXPV3XmyjVibHLC3Xdi4t9jy/WafVYY62xTQzqh2c1ZSmzbk4Yxb/n5nP8NY84vzz+lsS0bbKdOQ/5PnvmBgx0y0C3hl95cNc+9AF1jHgTxz7iyLxcN07vfe97D1/84hcPX/va1w7vf//7r+TE0hxpPR5ebHohHRedEqH653GprBbUFrOu4/txMR2vqU2L8JKYnlqk277rimmPIY7LtrW4P8eLmBN7YvA973nPy9i0OBZsWjcXLe1fzWfPU7WtueNzzfk4T31fdWxHLK/5Guec6uv8VO6IfatM/Pi22y/ljlgu9+F6OW/5Ovu++CRexCsxMIZDzj3006BfJlyujxF/4thmHJmXl4nLhz/84eOC75Of/OTh7W9/+8n81ks8tBDWgtYL2c9+9rPFt8Aup/kfF8A6j4vpmB+iyC4tiOMiPb99lj16w6167lP9xPbzYjmeR3tjnVaPT/Eixj71qU8dYyL2WrUfuy6Tf9bws+bzqe9A0DyM89T9q463KJ51X3PPm0SvhLna0T3Pa99Xv7H9WNcf1VZuUB/anAOUF+LmPJGvy07bzL5fRokdsQsMjOEMJbAwKI5fPCDwBz7YmgHm5eUYfNe73nX43Oc+d/jOd75z+OAHP1ic/73GQ4tRv5WKTGsR7LdB+gbtN9544yh2Nc64mI6LYd3z4jcviEuL9LgQlg1aZHuRHOurXS+S3V+0Idrdy7HGlG0VW2JMrIm5fJ/zy835kX2tueR5NvI4GRvzBQaGYGCIQeiZz0MdAQ0DjTHAvLx8fp0SO8Tj8vHoeaEUean5YU3PY8X2tuYGYrqteDA/iAcMTDIwebMbcRIf+lsGXA8Av/XIdpTeeuQypfPaeurXb0ZK7XBtDNZ7imMr87Inny1h66mP4RIPcsAcvsxL7a8RzGmbsrA4xQBiGj6m+OAefDTGwBgB8UO/Mede+WFErSjOY7huvdwO52Ow3lMce5iXPflzrq3xC6J+8zd/U+G4kpPmtkf5feUQ8TLnC+7gY198EG/iDQMwAANHBsYAYatFon5PT2K3BqbriuJcb06fp+xaoo1TbXN9jDm1RBw1L72d+tM5/nvULuc95X/B0VL++f73v3907RJxpY19zHEB873vfe/IDf/hATxw1QNf+tKXqtZ+5Mt95EvivOs4jzF4pbgakCVM9W2M3vwFF/pIkbf4pTH66LSEp7+1UWVUx38iJdeJH/POZfTFNfEbIk/1OVXPX3hT+ih5/Ji3Bbj686b+cttxrDX+o8wY8+VScRR7l+qLfl5l8yMf+cjxC7pef/31w7vf/e5jKsBPr/oJn5R9ImDEjr7kTSzhp7Kf8Ms+/aL5Qez3GXviTtwTA2M4pCapSYhqUSChmZxw5Vyi1GJV+yg4JaT9rbISphKrsb0opqO4VX+657q5/9ynyrrMVD2X0T725x8a+IcFcewlu2M7HI8xJ1qIY828bMHO0Wz40Ic+dPjWt751+MIXvnB43/ve9zKXEA/m9hzWzYsYEktiSmzNaYOyMDcqA54fo46PcTF3YaCageqCTT9AS0lNQtKbhGYUwhkQCda4WcxGgao6EqUSxNqXRKnqqY7fAFvMqq7fFuuezkt91tTLtvs82qq+/CdjfF/9yZ6S3S7Dfoz50EocNadasWUPdnzgAx84fPWrXz3+03Ee81LxcJ6KOVP5R/1p7+Pcf2vn8RmhscQfnLZg61Sunrq3lO2Zl3N8LdUv7fAc6oGBPD96sBkbmVswsAoDqzT6yiJu7eDVJLVTYjqKUNkZz/PCcCkxHfuIfXqROiXCT/kytpmFu+ogpsdg/VT8W7xeMy9btLs3m2rfHC4Vj5gHs6+cZ/L1Fs9zfm/Nxik/T91bahyneDn1yYeafi/xQ4AaOyjD8/CmDJyaHzdtl/qwCQPdMdCdwUWhXpPUtPgofcxbiz8tqgSvxayu6TwvtuICprQoiG3p2O24LX/MO5bLfU7Vm5pgiOkxWJ6KcW/3auZlb2NqyV79HvSc32ldKh6lH9bJL6dy7CV9Jtv0PRc1fSrXxh9c1tQplVHuXaKd3PapHwCr3NS93M51z8/xkn8n/1w/4kNv//W9JYrTufLc55nWMgPn5kfLtmMbcwsGFmVg0cY2ezjWJjUtQOKmcz/gdV0P+QcPHrwUwVNiWiDqvjZ/PLAkko8FXvwXv4Bsqk+L66l66jdPBF1T/7peWuzGhWO2O7fF+RjzYus4iuGtbRi5f33T9yc+8YnDO9/5zio/LxUP5U3nmujfnHecZ9Svc5Zyn+oqz2pT7vzoRz96/PUZnfsHjmo35knnWF1XW2+88caxbqwT+7Ngi22orGxXG6UfhnossR31I3tVPudmiXbZ603Hr7322stfBfIYdF125LHbllP96bqeG+5De9lgH+i+x+IyHrfHcpO9xnWuvtgTg6e+fd/17e/PfOYzr3zXiMuw57nTEwM186On8WAr8w8Grs3AtSuefcheMigktTHieElm6Gt9ZpiX6/r4He94x6w8vFQ8JC7jZlEXRbauWQBLZPs7HFRGm+uoLQtAiU1/esgiOJbTsQWt2451fM8i1W34XHvXk03q15uvxzJuz2JaglXHMXfEsel6/oGC2rMI1rE2j0nlT/Wne9E3tkXlfU/Hvm671LaPVe4m/2Rrbf1aFmVv/uLOU30ofvKdfmjhzb48VYfrN4s5/qv335z5gV/r/Yqv8FWHDIwRNJLaGHHscAJVLzb3ODbmZVvzcol4WLxZ1EWuJeKi4HUZXbMIimIvt2XxpL3quk4UxTq24FbfUczG+rqnNqKwjPfzPZXP9uia6qtsFsm6V+ojjk/3da5/Po72TPUXx+y+bEv0QRy/23N/rnfd/RK85L5l4xwxrR9yeDwen+KR2+W8rVyzh3isMT/24DfGyFwdkIExgkpSGyOOA06wXS/6mJdtzcsl4hGFXJyvUehYCKo/bRaQsYzqqpwEs/Y6l0iygJaA8uY317mMz91+Frxqw0LMZWP78Z7uZ3t0buFeEt+qk/uw4NW9ON54rHvn+osi2WVtS7wnu+K2pNBUu7Z1qb38MEdMe8zuP/vb19m3lWv2EI815sce/MYYmasDMjBGUElqY8RxwAm2+GK0Jx8xL9ual0vEIwtW8xiFaDz2fe2jONV5bisKpXgc29B1i2ddj+Xise+5bBazUfS6/Wify1t8R6Hv8lkYuo4Frfrwx8dLPjnXn+uqP7Xlsaj90rHtWmq/BC/ZluyzfD+el3yWYxzLc9xWvhk9HmvMj9F9xviYo4MyMEZgSWpjxHHQSbZbQc28bGteLhEPCbm4WfBlYRzL+c1yLpOFkQSihaiFqfuyeMxl4ltO92mbchvqTzlmStCpfW2yWV8+Fr8Z3Pd0P9oTz9WHt/jlZXnsznVuM/endkpfsqZ6Jb+5T4t/t3+Tvdq8Sf1S3Snf5/KI6bbyR47P3s/XmB979ynjZ853ysAYgfNCgj0ewANteEDf7qut08Q4pN3EY4zn3aXm1Bq8lMS0fqDgHwLoByL+4QtiGl4vxfp1+lljflzHDuowT2BgcwY2N2CRRStJbYw4khDGiiPzsq14Eo+24tF6voMXeGmd0S3tY34wP7bkj76b4q8pY64trElqY8SR5DBWHJmXbcWTeLQVj9bzHbzAS+uMbmkf84P5sSV/9N0Uf00Zg5h+8ftwTBB8MAoDLDbaYpl4tBWP1uc5vMBL64xuaR/zg/mxJX/03RR/TRlzbSFJUhsjjiSHseLIvGwrnsSjrXi0nu/gBV5aZ3RL+5gfzI8t+aPvpvhryhjE9Jk30/pyFn9RCxOpf3b1xTv+huER48lioy1GFQ82PFDjAb5AsK25O+LzofcxaR71PgbsZ57DwCIMLNLI5gnlOknNf8LEf0aldaDyt6Dqm05le9wstDU2/+mW1seV7XNc4rj853Jy2S3P5d9TdunP4Dx9+vT4d3WnbCx9W+1UeftGcf/mN7/ZfIyvMy+nxs+9m+Vr4nEz/+2NP3iBl70xP2e8zA/mxxxeKDs0L2MMbm5SmytiWpgE+e+UagwSbLqe7etdTPfwg4AlxLTiNtVOjGtmtocYz52XcbwcL5+bicfyPh2ZU3iBl5H5vunYmB/Mj5syRP1hGBpjIFNJLYtQwVu6NhdqvZWUoJlb77rls3jqRUzrjboEo+ytGXseZ02dU2UePnxY/GHDqfJzrk+JYPFV82Za/YkjtaXjKV9lZpfw01R/c3xxquzUvDxVh+vr5WTisZ5vR+S2lpd//clPVJQND0x64PnPfnbQrw+MMlc02FHGwjh4NsDAjRi4UeVmEslUUssiROIlbhbEEjTe8ke/4z19lFoiLW4W1m5LUEZB5beKb7zxxrGaxVNsN/apdh48eHD8/ejnz58f21LZ2P4cMR37cd+yUcfqR31okw0aSzyPIri2HdusumrTmz+GLt+4D92L49JxtNETPLcVy0gUqm1vb7755pVz+1Z1ND63qeNo0+PHj4/+sE1Tfaqt7Dv7KsZefakfb7bFNkQ+7ZdoY65v27KfYh8qE9tQWW/nYmO7ltirzyXaoY1l8jTxWMaPe+GxlheV+/9++7f5hw8mGRAn2kYR1BrLXnIB4+TZAQOTDEze7CZRTCW1KFYMQ+ma72kv8aF/Po7CzeViGZdzHZ2rD7+dtCgrtVNqT+1Y9Ph+FoJuU2P35vZVPx5Hu3Td5zq2mFQ/pXOX1d7HLuvzXE/XdU3lZKf6sNDUPn483eOw+FPduGU/qE2JZwlf+TjbovNSGZdzPzrXscevttSXx+R2vC/16boqo3o+j7HXsWxV/dynzvN995f3uVz0cezPbUq063puR2M+FZtc9qbniuNN26D+cjmaeCznyz1wWcuLyiGm+WHCOQbEyf95/XXthhDUGsce8gBj5LkBA2cZOFugi2RRSmoSDXnzW8EsTASKBEbcdO43nlGAGSqJmSi88nkUOFlAuo1Sn7oXhVIsG+041Wasb/vjuHRsMaX91Bhsx9x2on9lZxTTGoNFp8cWfec+fc97i+44FrV1yg+yOQputaPxRh9GW2K8zvXptqLv4jhjWyqTN3OodqKv3G9pn8tFP8Vj141jzTbY/9Fm11tyr3Ev2R5t3SxftxSPtdkzK6XcFXOAy53al+bWqbKjXa/lReXOCSnuI7bNySiCunZ+jJYXGM/NnsP4b0j/jTGoqaSWRYhAztfygsnnXoiVFl8qo3+eGPlcfcQ301FQqo77iPUtcnNbLh/7OyUiXVZtTdmvclFwuV7swzbObSf6Ny+ao4BVn7lf9+l72uf+4/kpP6jMXDEd3yDHPko2yHfRV3GcMfal8cSxRV/F6/k4l4vtxmPXc2yzv+N5tNn1ltxPzcsl+6GtujzeUjzWZs9M5Hnq6+zPM1PLi8ohlhHL5xiInIwgqGvnB7nmfK7BR/iocwbGCOBUUssiRAHL1+KCyyJK11S2JFR8XfcMQC6nc7+BLC0cz/UZ23Z/tknnajN+XNp25LJqx28iYxkdq734gwKVjf3q2H3OaSf6N489261z+cl2xD5tb66j9vWRbNeJvnSdU2I6jk/17Jtos9qo6dN1VT76R235Byk61vi0t21xrzHYx/F6Ps72RT/F/lQv9hnL6V4cs8aYf8iT+73J+dS8vEm71L1e3m4pHkuzV/qyQedy54nMja7HfJDv7/28lheVOyekuI/Yzpz0Lqhr58fe8wjjv97zGr915beujC2KEQE3N6llYaKFnQSPNok0fbGUBY4XZMebL/6zgFIbKqtNi7LYhq5pcWehUlo4xvK5Ty3w8iJvymb1p822lQTUL0r84n8vLjVGH8uPud/rtpNtVT/abF/0na7HseY+nVBkpze1o7fItj36UmUcO7WlzT/UyP0qzn4bnW1Wv1N9Kr76Qjkz4D5UT21ZTOd2ZI/t0z0de/y2z+PSff/L9mU/RVvVh9vI/MYxu3+Vd2zc3xJ7tbtEO7TxSw5u4ouaeDhXxS9ZzGx4Pqu9zL3mk/55M6fxXGMo9ZPnheaX2ncfmWXPG89/n0cf6Zrr5+u2SXvNF5XV/NB4Na8153TNdulYflF73jzP1HacgyqjsvF+7L+HY42xxk6VQywjls8xUOKkZ0Gt8dTMD8os8/zCj/ixYQbGCM4ekpoXkj0vzhqeCJs8FC0otB/RN3uYlz3FrSYeWZjmvBPFpcauc4vt/MOg0rl/yHSqH7WndiVgswjWNee/bNdUHKLIdX3b7v58bhHt9uJ4dRxtUlseu8YTPymUx+72etrX8KLxaDsnpLiP2D7F9OmriwAAIABJREFUSa+CWuPpaT5j6xh6hzg2GccmjZqdoPaS1OLijQnVP7sSB3ExP1pM9zIve4lbKR5RaIrFLAo1Nl3Xv5KAVXkJSu0lIC2WVS/e87kFZ6kf2eK3wHluqHx8I6yxaJszf7LA9bgcP527/9K1fD+Or5Sb1Zauu63e9vJvjc0ql8Xyn/3BHxz+5Yc/PPzTi08pxHv/63/8j+N17eN1jscX2yVOHPceBbXGUzM/KNP/Wo0YEsMzDIzhIJLaGHE8AysPrhcCpScfMS/bildNPKJANGsWnTVi2r82obq5LZ3PEdNRiMa6tus6e49FdeNx6dzXLLBz+Tg+xPRVMWgxLeb+9i/+4qVwRkxf9ZPF5B72YmFqnL0Jao3nOjmIOm09F4kH8ViAgTGcSFIbI44LAM3DrSHBzbxsa17WxCMKRM/HKCJ1bHGp+zr3R5315neOmNabZtVXOxbqPi+91dW12Lftq927D4t09eX+PJZ47mvuM5ePvtLYNR7tVU/3dO6+am1sqVwNL7JXWxZJEtM/+sEPDn//jW8c/v3f/u3gN9FzxPSX/uf/PPzDt7/9Stu5L877EOglTnLsehLUGk9L8xVb2nreEo9dxWOMwZLUxogjyWesODIv24pnTTyiQPR8zCJS4tKbBKPqqOxcMa129IVf3ixa1ZaOsxC1GHZ5/36zhWsWwrm86sUystdfIKi+8jhlh67Zrnw/+0pteJNf9EOGPAb7tIe9xlJjp8plUWQxLUGsj3o//r//91gmi2nd//lbb6mJ4+Zyepsdt9L1KNJz/5y3J7AVz5q49CKoNZ6a+UGZtp6DxIN4rMDAGE4lqbUTRy0e/aZqBWBfeXh5wdzzovUSftqiD+ZlO/NS8Scel41H6QcCW8zD6/ZZy4vKZZEUxbQE9E9//OODhHMU0/G66utcAtkfC9c+/s616uttt9pWed3X72X7PNvAeVuC+vt/+7dCpXp7/rOfvfK8vy7La9TTQNZolzYvm6fxN/5egIExnLh2UtOiyG804vECAXiZjNV+3OIbnyX60VsU/75iqb3rLvxiPQlbfczTH3VUP/Htz9e//vUrX1BUsuM61/IbsXNtyGZtEv1vvvnmy9ieq8f9eflCPsZn83y2pr+Ix+VioZykHB5z4ZqxXaPtWl5ULgvXKKZ1T2+WJXz/6tOffvkFZCUxrHLxLXQU07qeN95OtyWYMwc3OVes1+B6qTZbt2+pcdLO5Z4b+LpbX3dr+JUku3ZSW0tAe+JISC8tnt127T6K4to6KhfrlURtvh+/7XdOP1NlSyL+VPls49qxPWXHHq6vPS/34MMlx0g81nve+RMy8rE3/wB2yRhesi2No6Y/lcuiKYtpnUtMf+crX7mRmI7iOvfJ+VjCupa/GkbXKNO6fWuMmTbXe4bg265927XxLx/0aye1NQXXWm8w1O7Dhw9f+ujcRI2i91zZeD/W0+JR576fRa5sWkJMa1xqy/1or769eJ0auz4OHm3UsevF9uYcT/U3p53Ryq49L0fz19rjIR5jPO/W5sTt1/KiclnIZjGt+/79aL9Nvs7HvFVX7eT+OB9LSCuetfyZ10vvW7fv0v6gP54vO2ZgjODXJjWJJm/+8hoFX2JIH0/WP29RYEXBFY9VV+fe/LvCas9fbKN7bsv9+Et3dP3c7xj7y3Xch/ozsDpWW+7LY1KbcVM/+WPesUz+spxT9qvfqXrRN9lu+ebP//zPr4jpqX5K9/Lbn/g2X3bZNxpvvGd/6XrcXEfXXUZteMttlO5Ff6hebMtt7nUvf+x17C2Om3iM8by7FFu1vKhcFrMlMa0yerNsMa1zC2y1oc0f8dY9/w51vK6PhsfNb6q19+9Pq4y+1AzR3bfAVpwvxfp1+mndvuuMiTo8I2DgWgxcq1JzCe46Sc1CSuBYuOmazi0EfR5FYjyWcNL5FHxqS0JSe/cTBVdNG24/v+lV3xbwKhPbiuPzmPw707LFx7pnuzxe9+d6tv9cPdkT28j2qh+/mc5t6VziNda3HbpnG3KbLpPH6+t5n8tNxVP+jP6Nbeme/ulabjOW2/Pxdeblnv219tiJxxjPu7U5cfu1vKhcFtOc9y1kW4hfLX/m9dL71u27tD/oj+fLjhkYI/ilpCaB482iR/u4WShFkWcYoliKgsvHfkuqflzHe4tT9+U3xqV+VN92uH7cW2S6Le3dp21xebXvv/OqMrrve1G8lvpUWbd7yv5z9WIb6jcL3zj+UlvR56dsyG16fGovjtfX8z6XUx31W4pnFPFqR2Xj5v5ym7nPvZ7LV3sde4vjbiUeMQ/cxE8xR3z5y1++8gPCm7RL3V+sC2p5UbkWxBc2jCXga/nbar62bt9WfqHfMXQVcZwVx1mFm10Y1yS1LN7ieWlxF4WdBZfg8nFJfOl+FK35XP1Y7BpUXdMbWe19zfvcRz6XLRqHy8f2s8CLdsWxu67biuV0L55P1VPZ6DOdy16N12PT3m+mS225fuwz25Db1H39y+P19bzP5abiKTv8Rly2qazbi+e5TZfZ+75mXu7dR5cc/2jxcM6SD3POuKRfR+2rlheVQ8iOJWRbiGctf1vNv9bt28ov9DuGriKOs+I4q/BLIdGak2uSWhQ/sl8LMb8RlsjT22OJIt3Twix+5NiCy/XUlo5zm7oWBaPO1WZ8M53FtNvMv5+r63mBmO2Mi0n37fazwIttqZ0o4ON4z9l/qp76z/7Iwje2He3xWO3zWE73og9zm7rvvh0XXyvts19ibLP9OjcjsZxs0HVdUx+5zVK/e7xWMy/36JetxtxjPDS3SvM654GcT67r49KXG163rd7r1fKici2IL2wYS9DX8rfVPGvdvq38Qr9j6CriOCuOswofhUOLDq5JahZAKqtNX9xl4SnxpmP98xYXcFFIxePcpoWX6npzu+rD/ahe9qPajVsUar6u9tWeFpiqrzI+1nls3wJZdWVPXmyqnjeJWLXttk7Zrz6m6sX+VTYveHXfb6Ztr37Q4C36fMoG35PdGpfjEO33PfUT/6mMfavrOo796txbbCP6UzaLH7cT78W2Yr97PJYf9zjuVsdcEw+xrFwgUenNnGtc4lvsq4x/SOj55/JxDmjOxzmu+TcnD6hv9RVzZpxv6lP3X3vttSsf8879Ttmke3kMce63Gs+17ZJva/pQOYTsWEK2hXjW8lfD6BplWrdvjTHT5tX1JP7AH//NwBiOuGlS08JLIjUu2Jgk89nwgtSi9lI+JH7zY3WJ2Nx0Xl7Cxj31URMPC1WLT89pn2tvEW3fSfB6zru8ztVW/KJDl49iOpdx/27PdfJe/Shnqy3di+3EY9+TOC61qbIS49rnNnOfezuv4UU+0VYSX/qGbW3+xu1SmbWu+Vu/4zeHr9UX7a7zgwSx0/Kca92+ln2HbW2u2YjLteNy7YpNJbmbJjXE2HIcaMGa3yStOUHj4n3Nfmh7PiM3nZf4fL7Pp3xWiofmqzcJ5SxE1Z7K+O20yvhY91ReQjVvKncqF0QxXSqjuvo3NZYsfKPd59pU//FtuX84kNuc6n8P9xTTmnGqXElQSkRL1MZ7Ftj6M1b/+O1vLyq09aewfvSDHxz0Z7nUp/60lvrR3jbEP7clu7XFP8flcnP3Gqd/aCA7fvrjH1/pd257slNtqK14XGqn5OdSuXwt2pzvtXCu2NTwt1WZ1u3byi/0u+xzG3924c8ujDybUG+a1BDTY3BA0mkrjjedl8Rz2XjWxCOKUvs/i+kodEvlY73SD9a2FNPZ3niOmL7KWw0virW2kvjKIi+L3VKdm1zL7UuERjFtIb2EeM52Li1Mzwno2H/2c7w3dby0zVN9XedeLX/ON5fet27fpf1Bf1fzJ/7YlT/GGCxJbYw4knzGiiPzsq141sRD4lJvmi2Y/ckPn2vvY89XvamOb6t9PQpVX9M+iulcxv1LwMc6+TgL39hOPFa92GbsW/fUD2+my5zW8CIfaiuJpSzy1hZv58S07NG/kq03vbb02BDTv33kKs/7ls5lYEv2YEs5j+EX/HIBBsZwMkltjDheAHgefi8Wv5fyM/Pycr6uiWlNPCQ89TZ56gvIspi24Fb72ixOZZPEatx0ngWtzuPHrmP7Eumlt9tTYlr9TrWp9r3FL4hUPd/jC8h+IZJruSqJ0Sim9TY4bhKfuqYyfmOsa2onn+u6t/g70Po4t948e9NHvE99zNtl3ccpe91W7Ed2/v03vnHs6+dvvfXyo9cq4y0KdYl6f8zbAl92eYuCXvfVpje/NY9iOh7L7uwP+cDjsu/cXuyrdC/eL/lky2saQw1/W5Vp3b6t/EK/bT33icdF4nGRTlZPiCS1MeLIpB8rjszLtuJZEw+Lae2Zj23F79LxqOFFNmkriS4JNYs8i8Ao3iymdS8KxljPYtS/B632JB51HuurDdXzPbepc7Ud29e9c//UtoWt9hbRrqe+fN9C3WPLYlp17YcpO3SvZG+sE49li8W427d92ssuiXiV0fmUzbFeK8e1/F16Xri/1u2znez3nceJ/0Xif5FOVl+UkdTGiCOTfqw4Mi/bimdNPBDTbcVsy5xYw4vs01YSYBJvUeTp2IJT5SVG47nua4vXVCZveiP8lT/906PwjO1n4R3FqQVvLJ9tVr9xsx3Zzixo1U4cWxbTfkvt/tSu7bAYdr8W7bGPeKx68QcGajO2p7LxjbnaVZ3Yhu2INvtaS3vZviX/5/pu3b5z9nOfXA8DizGwWEObJj2S2hhxZGKPFUfmZVvxrIkHYrqtmG2ZE2t4kX3aSiIsijzdz+Iti1Td12YRqzq5jPspieMpMa16aje27bZK/cR+dax/Ln9OmGYxHT96bjtKAje2e+pY9U6J6eyTeB7b8zhyPHy9lb1Y2JL/c323bt85+7lProeBxRhYrKFNkx5JbYw4MrHHiiPzsq14Eo+24tF6vqvlReVKAmyOmI4CVPUsXnVdb1q1z31kcaw6UWhKQPpj06qrNvTm123H9mKfFqG6pjIqH+v4frwWbYlj0fEpMR3LqR+J23NvplUn+kNj1HlJnKusP2J+zuboi1aOa/nbah61bt9WfqFfnjM7ZGCMoJPUxojjDifgpj+EWtvfzMu25iXxaCsea8+/m7Zfy4vKlQSYBKZEnu/lN6ESoyoTRZ/KZuGnenGzyHU535NojcI1i2m17b5cJ4pXfzxa1/SFY+4ni2m1YxHrdlTW5dWHP9qt42iT6qqc/aK2vdl+1VH7p/7OdPSHbNYPDNxevKfratP3pmyWXa39k19uyvCa9Vu3b82x0zbPEhi4wsCVk6YT11TgSGpjxHEqxtzrL8bMy7Zipniw4YEaD9y5c+dYrCbvqmBJiEXRWLq/9rWSmF67T9pfTpSLqxr+tirTun1b+YV+23ruE4+LxOMinayeEElqY8SRST9WHJmXbcWTeLQVj9bzXS0vKlcSkRLT2vzGtlRmrWt+Q6s3txLVa/VDu8uJ5+xLsdPyHGndvpZ9h208iwZjYIyAktTGiONgk6vphcAlfM28bGteEo+24nGJOXiTPmp5UbkshDhfT2Tuxbe1/N2E8ZvUbd2+m4yNujwrYGAWA7MKNysOSGpjxJHJO1YcmZdtxZN4tBWP1vNdLS8qtxeBxzgv90OCWv62mket27eVX+iX58wOGRgj6CS1MeK4wwnY7A+ologF87KteUk82orHEnNszTZqeVE5ROblROZefF3L35pzYKrt1u2bsp17PAtgYFEGFm1sM2FAUhsjjkzuseLIvGwrnsSjrXi0nu9qeVG5vQg8xnm5HxrU8rfVPGrdvq38Qr88Z3bIwBhBJ6mNEccdTsDNfgB1CV8zL9ual1vF4969e+r65fbo0aNNuL9///5BfWsvm2rmgG1/9uzZ4ctf/vKxfk29EcooYDXjULksMvOfrVKZVr8MTLbqT0jpT1LlcSx1ri9hi3+X+lS78c9qnSqzxHV/QVv8u9zn2lWdmi+TUxn/Oa5zbU7dFzM1/G1VpnX7tvIL/bb13CceF4nHRTpZPSGS1MaII5N+rDgyL9uK51bxkHjVP83v27dvH54+fXq4e/fuIs8FtaP21O5U/pAofvLkyeHWrVvHvh8+fDhZvmRrHMdUX6Pcq+VF5bIospheQlTltpc+v4SYXtrmm7SnmPgHGzquFdQqi5j+ZU6vnR+j5APG8cvY4wt8kRgYwyGHn/9ceY0ND/Ttgf/8z77tL1ifEs5ZAUP59XKywnPKvxKjemsrsXmqTO31/OZX7fpNsNqXqPV5bZs3Kac+H794W2YBXztWlVc91V/Kbol423GTMV2i7hQvsX+Vy+IOMX25j0Nn3587j2+O58QJMX01N9fOjzhXOL7qQ/yBPwZhYIxAlh7m5x4o3G/3Yb/X2IhjbXfu3LmxoBkkQeGHF29zl4ql2DrV1imB6Y85q+6DBw+OgttvgeM9C3EJZW86/tjHPnZFyKqOPjKtNtyn2tVmgS0x7s1vtGV3vO63zLrmMmpPbXtze9rLPo9d5VRfewlb1ckCN/al+5/97Gdf1lE7p/rSPfXnzT5T/WhbtMd2tbbXGGpsUrmcs6dEmj7KrI9V65+30htPfSw6Xo9t+tj1/RFqCb64+Q1stk/lvf30xz8+vp31x7xPtR3b0N+u1hvdf/j2t93M0dbYbrRdx7ZRx3//jW8cfv7WW8e62rvv+DHvkp/Uhup7c5uyTeXdpu7He7ZdY8sfaY+2uZz2GqP8503l9M9loh35ehxfjkGMUbwne1VPfvU4avjbqoz8slXf9LvccxFf4ssFGBjDiUpqTvDsEcm9MiCO/8/rr2uHoF5QRC6QKIdYNImr7Iso/HRf2/Pnz4/iUvd8rHoSgBax8Z6EpT+6LVEaP3atc7XhTYJS5dWe+7YY1jUdu0xsK173GOLbYotbtem23Y7s9nXdU1mLaV13Obfrvfq0bbLFb6mn+lI5tae92sk+s//cR8t7xazGPpXLOTcLUpXxx4kt+iSqVE+iTYJW12M7Fqza67rKuw2JN9d3Xz53GxaePvde/ai/2G4UtDVtq66EoAVr6TyOSW26rI49DtkU7Yy2ZT+Vzj0O9R/7sz3ZJ7mc+7dt9pH20Wb7WNdKdWLZ0vg8Xo1BYl7tqZ0YU9kQ4yBmavjbqkzr9m3lF/odQ1cRx1lxnFW42cSmpBYfAhwjqHtkwBwjqMfIS609jKYWfxKIEn4SqLZb5xaTuhbFZbwXBamOdc9t5HNfd3uxbBTHvi/xmd9uu40simNbvvfaa69deTOuulEYu628L9ni9vOY3Jd9eMpn0X+5vxbPp3iJ9jpvxZxr8ZXFnMpEweg6EmClslmkSXBZKKrfuEVBGEWa+/Be5dSuz2Wr39bWtK16WZTGNnQ/j780DvcfBWb0TTx2nxKl6tvnFtCl8Wqc0Se2y2N1/6VyeXwqqz40Do8t+l7H9mkcq+203eorb347rXtuQ/W0Rc5aO27dvtb8hT2sawZmYIzgKqn5wcAeId0rA5FjBPUYuamlh8fU4s9C0GJa+/h7xlFc+ljtaYtvW7NgzOf2h9uQMPU12aC3ut4sXqNYdVntVdd95358T2JaZdSG62Yx7Otxn/uULepDZU71lUV/HqPaiOON/bV4rDjU2KVyOedacJUEchSPricRNVX2rz796ePbXIm8ktBzO9pnERrv6TiLtiiEz7XttlTOAlHXYhs+132PKQrMPNboj2h7vK42c5/RVvWj/mSHbSyJ5FJcsj3uy0Ld7akPlS214TLax7G6Lfsq+z7Wy/bW8lfD6BplWrdvjTHTJusSGCgyULxY9QBtyaGlh3lM0hwjsHtgIHOMoB4jP7WSK+cs/kpC0B/51r0otD2+0vVTAjKLVbVRuubr/hi5+9I+ilodW3xH23Ob8V7+SHZs22Jc5fO4TvUV21ZbsscfIc92xL5aPa7lJect5dopwZVFosqXBJ3b0ZtU/S6tyjiP6zie+3oUmL6W9xKFfhuqe7JH59rr/FTbsZ0sbDXe+MY3j19tSiy6fYts96+6qiMb/NHt7KfcZxxrPFabOteYYj+2PwraXM9lbL9t1vXoF13P4t11VS7ei2Wzr11He5WL/dXyt9X8ad2+rfxCv6xbdsjAGEEvPcxjkuYYMd0DAyWOEdRj5KgWHi5zF38Sjd70RVr+nWGNRUI0/i6037hKQGrTPovQ6INTH7VWO94s3lUvXrdAVR/u10LWdWW76mURG/udEtNRMOc2TvWl/qLP3njjjZd+iHVsW/RHi8fyZY1dKpfzq8WY7nmzgM0iUXUlwErCT/cksOLv0upabt/3VTZuvp7ti+UkXiX+ZNdU27ENiVC/bXWdLcW0bJD9Gq+3KEyj7dl3p8pZkLu9KKbVns7j5vjpS9m+85WvvLTFcbcNKhc3taN7siPaojI1/G1VpnX7tvIL/bJm2SEDYwRdSc2Jmj3CuVcGTnGMoB4jT239gLnJ4i+Ky63HMbd//zmqKXGf24xCPd/by3ktL6fyVq95GLvbWEPU8rfVfGzdvq38Qr+sV3bIwBhBLz3M/dNX/9TTD8j8E2VfZ9/GA3TPcShxbH8gqMfIVVs+ZK67+NObWb0N9lvgLcdwnb5ltwS1fne65q2wxlv6WPl1+u65Ti0vU3nL+Ys9z9e5DNTyt9Uca92+rfxCv6xVdsjAGEEvPcwtpnXPHz9SMkdM81Cf+1C/VPkSx7FvBPUY+WqrB434qu07f4y7RoTWtt1yOY1T217GOxUL+WHqvu+pXMxTHPOMXYKBWv7M4aX3rdt3aX/QH+uTHTMwRvBLD3OJaX9xSfydnTliWr+DpN//WeLBQBssMM4xUOI410FQj5GztnjosPiDnTnc1fLyrz/5iYqy4YFFPSCu5vB66bIa7KX7pD9yOAw0yUCTRs1OUEpqWXRYTEsQ66Pe/mKLLKZPfWlH/pIM14/Xo0jP/XOOeJ7LQInjUhsI6jHy1qUfiuLr0n3SX7+swku/sWPerR875sf6PoZjfNwJA2MESkkti44opiWg/TcTo5iO11Vf5xLI/li49vF3riW8/ScsVF7345+AyDZwjqCew8D3//ZvhXL19vxnP0McvfgG5U6S7eZ2Cix8BS+1DMALrNSyssdyzA/mxx65Z8xF7osXu1twKall0RLFtO7pzbKE7199+tMv/6RFSQyrXHwLHcW0rueNt9MI5szepc7FIoltjBx2iTjCC6zM4Qxe4GUOL3sry/xgfuyNecZ7kvmTN7papCupZQGTxbTOJab19w/99yGvI6ajuM59co6wviQDPMzHyF+XekDBC7zMYQ1e4GUOL3sry/xgfuyNecZ7kvmTN4YT0xI5/v1ov02+zse8VVftXFI00RcivcQAD/Mx8telHlDwAi9zWIMXeJnDy97KMj+YH3tjnvGeZP7kjSHFtASJ3ixbTOvcAluJUZs/4q17/h3qeF1vs+PmN9Xa+/enVebnb72F6H7hw5II5NoyfhGHJLcxctgl4ggvsDKHM3iBlzm87K0s84P5sTfmGe9J5k/e6GqRrqSGQFtGoOHHfvzIw3yM/HWpBxS8wMsc1uAFXubwsreyzA/mx96YZ7wnmT95AzHNW1V+QNE4AzzMx8hfl3pAwQu8zGENXuBlDi97K8v8YH7sjXnGe5L5kzcQ040LKd4g9/MGea1Y8TAfI39d6gEFL/AyhzV4gZc5vOytLPOD+bE35hnvSeZP3kBMI6Z5M904AzzMx8hfl3pAiRe2Vz3wsxd/r52t7IFLsUk/5LLeGNCM6c1m7GWewcAqDKzS6MUTjJLaWm//aJc3wK0ywMN8jPzFw227OP77v//74Uc/+tHhpz/96cWfW8R9u7jje3x/UwZ4/sLQTRmi/jAMjTGQU2Ja37Ctzd+4fUlR5G/9jt8cfsn+6Wv8HwKIbZLxGDmMOF4+jt/97nePIvrXfu3XDv/1X/91+JM/+RPm09suHwfYx+c9MsDzF2575BabV+F2lUYvviBRUiuJR4loidp4zwJbf8bqH7/97UWFtv7M1o9+8IPDn/3BHxz71J/WUj/aRxv057f8Z7Ti9dGP49/1PuWb3n0gBn764x+/EnOPq8Sk703tS/V4mI+Rv3i4XT6Ov/d7v3cU0H/4h394fF79xYvnhN5SE4vLxwKf4/MeGeD5C7c9covNq3C7SqMXX5DUiuksdqfEy3Xu5fZLglFCW8JIolvlr9PPCHVKvhlhXOfGUBLF5+rofqkeD/Mx8hcPt8vHUR/r/pu/+Zsrz6q33nrr8Nd//ddXrhGby8cGn+PzHhjg+QunPXCKjRfh9CKdrL44qRXTekstUVIjXq5TpkZMu8z//7//96q2XMf+m9TxDwkkkmvauamY/ocXnypo4YcRskG21IxZZUqiuKZuqR4P8zHyFw+7y8bxwYMHh//4j/84/Mqv/MqVZ5M+5i1BTTwuGw/8jb97ZIDnL9z2yC02r8LtKo1efDFSI6b10eq4SVjrmkSKhJ1+t9kfCc/nuu4t/g60BKQ+ru1Nb5vPfczboqgkJqONaldlLRh1/J2vfOVop23QvZ+/WPxp095lJc6m2or1VFdlVcc2qR9t6jMLvdiu+7S/jpVe/Cfbv/qnf3rcx7ZUTh+BVv/uS0LUW+xP/dgu2aA6qvuV/27XdeyLHIupj9GrH28ul8dgW0p2uk7kQu3JXtuperI7lpGtqmvOTsXhXD3HRH2SGMfIYcTxMnH81V/91cN//ud/Hj7xiU8U586/vZijjx49Kt4jRpeJEX7Gzz0wwPMXTnvgFBsvwulFOll9YaKkZoER9xJEFi4WKBZJOpf48bnEj4VerCfBEwWy2rOYivXVnur5ns4txCys8nnuJ/6urfqxWHXbFo6ltqOIi8cqm9vSNf+LNulYfdgnLnNqr3ZdNraj8qW2dM0+9n0LZothn2vvY7UXx6Sy+WPysiOW17lti/arTOl6LBPbP2Wnxq460QfZzjhe31NMXTc1EuhhAAAgAElEQVT2qbJiR/vaejzMx8hfPOwuF8dnz54dHr/IDad8/kd/9EeHn//85yfvn6rH9cvFEF/j6xYY4PkLhy1wiA1NcNiEETdeuCwhpi2M1FYUWxJfeZPg9BvSKIyy8I4CKbYf23NfWeRFQae6KhfFovrNm8X3ubZkp8p6c70s4qLY83H2h394kMdaaitei8duOwpT9RPHOyWmS23lWKgPC/YYM/etNhTXuKlcqe1oW7RZbUU7dc/+cT+Ko/s/FYdz9dyWbCWRjpHDiOP6cfz85z9//NKx3/iN35icN//0T/90+Md//MfJMsRr/XjhY3zcMgM8f+GzZT6x7aJ8XrSz1RYnSmoWGHEfhYuuZ+EjUWQx6/tqK17LZdx+SZhlASch5reNqpftifdzPyUxbRFmW7NQs21TbWVxGM+jPW4r7rPIi+e5bj5XO7kvv6V2HzE+GoP++V4Uqdk3sd1YPn6iQNdLMStdj+VK44i2RZvVVrQz+sd2mYFsczyfqud2tNdGwhwjhxHH9eOo34f+sz/7s7Nz5kMf+tBRdL/3ve89W5a4rR83fIyPW2SA5y9ctsglNm3C5SadLr5AUVKLIsPHFi4+z8Inis4oglTPQk7X9cZSe7fjvcrpn89VJwrcKMRi+y6vvfuSbepHdXQ996tyKuO6Kqfy8ZrvTbWV7VDZ+GY6in+35330l67JJo83jlX38rmvWUDbfvvZAtbnuS+d2z9ZTNsW1/V5jI2u6V9uV9dki+3SuXwkn8g3pXGoDfelMrGf6N8cQ49ZdWI59RnjMFVPZf2Ph/kY+YuH3/px/OGLX6H453/+5+pnz9/93d8d/uVf/qW6PDFcP4b4GB+3xADPX3hsiUds2ZTHTTtfbKFyUzEt8WLxJKGShZ2ETtwsnlzO9/QmNL4NjUKsJOIsoixIVcabxJ2uyzaVU5+yw0JKe9vtOm5H96baivdss9qK9sZ+fJzH+/ff+MaV8cpGbbLDX0CmNl1fxxatOlZ5teHNflV53Zd49qYvKlO7bs9jiAJb971FX7h/7fMYXC7GWNfkF11Tfzp3v2pDfetftlPX5EeN0eVju7JVbTmOHoNsjnFQu1P15Ce1o40EOkYOI47rxvFnP/vZcb7M+U91fv3Xf5059rZ1YwP7+LdHBnj+wm2P3GLzKtyu0ujFFx9KahIg+Z9Eh4VLvneJ85IQq+1Xok8Cy2K6tl6p3JJtldrn2qvsXcInPMzHyF883LaNI/NoW//DP/7vkQHyBtz2yC02r8LtKo02JaaV8OIbz0uIHPXhN4t+czq3X9W/bt3c15Jt5bY530ZIy+88zMfIXzzcto0j82hb/8M//u+RAfIG3PbILTavwu0qjTYjpnsSenqLLfEct+u+VV+yrZ58uDdbeZiPkb94uG0bR+bRtv6Hf/zfIwPkDbjtkVtsXoXbVRpFTBc+cr43ocd4139jzcN8jPzFw23bODKPtvU//OP/Hhkgb8Btj9xi8yrcrtIoYhox/crvryOulxfXPMzHyF883LaNI/NoW//DP/7vkQHyBtz2yC02r8LtKo0iphHTiOkLMMDDfIz8xcNt2zgyj7b1P/zj/x4ZIG/AbY/cYvMq3K7SKGL6AkKKN73Lv+ntzac8zMfIXzzcto0j82hb/8M//u+RAfIG3PbILTavwu0qjSKmEdO8mb4AAzzMx8hfPNy2jSPzaFv/wz/+75EB8gbc9sgtNq/C7SqNIqYvIKR6e4uKvcu/SedhPkb+4uG2bRyZR9v6H/7xf48MkDfgtkdusXkVbldpFDGNmObN9AUY4GE+Rv7i4bZtHJlH2/of/vF/jwyQN+C2R26xeRVuV2kUMX0BIcWb3uXf9PbmUx7mY+QvHm7bxpF5tK3/4R//98gAeQNue+QWm1fhdpVGEdOIad5MX4ABHuZj5C8ebtvGkXm0rf/hH//3yAB5A2575BabV+F2lUYR0xcQUr29RcXe5d+k8zAfI3/xcNs2jsyjbf0P//i/RwbIG3DbI7fYvAq3qzSKmEZM82b6AgzwMB8jf/Fw2zaOzKNt/Q//+L9HBsgbcNsjt9i8CrerNIqYvoCQ4k3v8m96e/MpD/Mx8hcPt23jyDza1v/wj/97ZIC8Abc9covNq3C7SqOIacQ0b6YvwAAP8zHyFw+3bePIPNrW//CP/3tkgLwBtz1yi82rcLtKo4jpCwip3t6iYu/yb9J5mI+Rv3i4bRtH5tG2/od//N8jA+QNuO2RW2xehdtVGkVMI6Z5M30BBniYj5G/eLhtG0fm0bb+h3/83yMD5A247ZFbbF6F21UavbiY/tef/ER5jQ0P7MoD4p7EOEYOI47bxVFJA/9v5398j+97ZIC8Abc9covNq3C7SqMsTN6GX5mwMAADMNADAyyK4bQHTrGxLU7JG23Fg/lBPDZkAOdv6Hx+6MAPHWAABmBgYwZYFLMOYB0AA3MZIG/AzFxmKD8sM8MOjAXqxgtUkgZzCwZgoAcGWBTDaQ+cYmNbnJI32ooH84N4bMgAzt/Q+Qh+BD8MwAAMbMwAi2LWAawDYGAuA+QNmJnLDOWHZWbYgbFA3XiBStJgbsEADPTAAItiOO2BU2xsi1PyRlvxYH4Qjw0ZwPkbOh/Bj+CHARiAgY0ZYFHMOoB1AAzMZYC8ATNzmaH8sMwMOzAWqBsvUEkazC0YgIEeGGBRDKc9cIqNbXFK3mgrHswP4rEhAzh/Q+cj+BH8MAADMLAxAyyKWQewDoCBuQyQN2BmLjOUH5aZYQfGAnXjBSpJg7kFAzDQAwMsiuG0B06xsS1OyRttxYP5QTw2ZADnb+h8BD+CHwZgAAY2ZoBFMesA1gEwMJcB8gbMzGWG8sMyM+zAWKBuvEAlaTC3YAAGemCARTGc9sApNrbFKXmjrXgwP4jHhgzg/A2dj+BH8MMADMDAxgywKGYdwDoABuYyQN6AmbnMUH5YZoYdGAvUjReoJA3mFgzAQA8MsCiG0x44xca2OCVvtBUP5gfx2JABnL+h8xH8CH4YgAEY2JgBFsWsA1gHwMBcBsgbMDOXGcoPy8ywA2OBuvEClaTB3IIBGOiBARbFcNoDp9jYFqfkjbbiwfwgHhsygPM3dD6CH8EPAzAAAxszwKKYdQDrABiYywB5A2bmMkP5YZkZdmAsUDdeoJI0mFswAAM9MMCiGE574BQb2+KUvNFWPJgfxGNDBnD+hs5H8CP4YQAGYGBjBlgUsw5gHQADcxkgb8DMXGYoPywzww6MBerGC1SSBnMLBmCgBwZYFMNpD5xiY1uckjfaigfzg3hsyADO39D5CH4EPwzAAAxszACLYtYBrANgYC4D5A2YmcsM5YdlZtiBsUDdeIFK0mBuwQAM9MAAi2I47YFTbGyLU/JGW/FgfhCPDRnA+Rs6H8GP4IcBGICBjRlgUcw6gHUADMxlgLwBM3OZofywzAw7MBaoGy9QSRrMLRiAgR4YYFEMpz1wio1tcUreaCsezA/isSEDOH9D5yP4EfwwAAMwsDEDLIpZB7AOgIG5DJA3YGYuM5QflplhB8YCdeMFKkmDuQUDMNADAyyK4bQHTrGxLU7JG23Fg/lBPDZkAOdv6HwEP4IfBmAABjZmgEUx6wDWATAwlwHyBszMZYbywzIz7MBYoG68QCVpMLdgAAZ6YIBFMZz2wCk2tsUpeaOteDA/iMeGDOD8DZ2P4EfwwwAMwMDGDLAoZh3AOgAG5jJA3oCZucxQflhmhh0YC9SNF6gkDeYWDMBADwywKIbTHjjFxrY4JW+0FQ/mB/HYkAGcv6HzEfwIfhjogIEvfelLWjexDeqBH//4x4OOjGH14AHlF9Yh/a1FxRZx6y9uxIyYrcAATl3BqSTYDgQScWfu1zLAoglWalmhHKzMZYD80iczxK3PuM2dn5QnzhUM4KQKJyGOEccwsGMGWDTxnOA5AQNrMUB+6ZMt4tZn3Naax7S7ax52PXgE0o4FEomPuV/LAIsmWKllhXKwMpcB8kufzBC3PuM2d35SnjhXMICTKpyE6EZ0w8COGWDRxHOC5wQMrMUA+aVPtohbn3Fbax7T7q552PXgEUg7FkgkPuZ+LQMsmmCllhXKwcpcBsgvfTJD3PqM29z5SXniXMEATqpwEqIb0Q0DO2aARRPPCZ4TMLAWA+SXPtkibn3Gba15TLu75mHXg0cg7VggkfiY+7UMsGiClVpWKAcrcxkgv/TJDHHrM25z5yfliXMFAzipwkmIbkQ3DOyYARZNPCd4TsDAWgyQX/pki7j1Gbe15jHt7pqHXQ8egbRjgUTiY+7XMsCiCVZqWaEcrMxlgPzSJzPErc+4zZ2flCfOFQzgpAonIboR3TCwYwZYNPGc4DkBA2sxQH7pky3i1mfc1prHtLtrHnY9eATSjgUSiY+5X8sAiyZYqWWFcrAylwHyS5/MELc+4zZ3flKeOFcwgJMqnIToRnTDwI4ZYNHEc4LnBAysxQD5pU+2iFufcVtrHtPurnnY9eARSDsWSCQ+5n4tAyyaYKWWFcrBylwGyC99MkPc+ozb3PlJeeJcwQBOqnASohvRDQM7ZoBFE88JnhMwsBYD5Jc+2SJufcZtrXlMu7vmYdeDRyDtWCCR+Jj7tQywaIKVWlYoBytzGSC/9MkMceszbnPnJ+WJcwUDOKnCSYhuRDcM7JgBFk08J3hOwMBaDJBf+mSLuPUZt7XmMe3umoddDx6BtGOBROJj7tcywKIJVmpZoRyszGWA/NInM8Stz7jNnZ+UJ84VDOCkCichuhHdMLBjBlg08ZzgOQEDazFAfumTLeLWZ9zWmse0u2sedj14BNKOBRKJj7lfywCLJlipZYVysDKXAfJLn8wQtz7jNnd+Up44VzCAkyqchOhGdMPAjhlg0cRzgucEDKzFAPmlT7aIW59xW2se0+6uedj14BFIOxZIJD7mfi0DLJpgpZYVysHKXAbIL30yQ9z6jNvc+Ul54lzBAE6qcBKiG9ENAztmgEUTzwmeEzCwFgPklz7ZIm59xm2teUy7u+Zh14NHIO1YIJH4mPu1DLBogpVaVigHK3MZIL/0yQxx6zNuc+cn5YlzBQM4qcJJiG5ENwzsmAEWTTwneE7AwFoMkF/6ZIu49Rm3teYx7e6ah10PHoG0Y4FE4mPu1zLAoglWalmhHKzMZYD80iczxK3PuM2dn5QnzhUM4KQKJyG6Ed0wsGMGWDTxnOA5AQNrMUB+6ZMt4tZn3Naax7S7ax52PXgE0o4FEomPuV/LAIsmWKllhXKwMpcB8kufzBC3PuM2d35SnjhXMICTKpyE6EZ0w8COGWDRxHOC5wQMrMUA+aVPtohbn3Fbax7T7q552PXgEUg7FkgkPuZ+LQMsmmCllhXKwcpcBsgvfTJD3PqM29z5SXniXMEATqpwEqIb0b0LBrQ4YMMD8gB58dVnI2TgATyAB0b0APn+1XyPT/DJDAZw1gxnscBEVA/NgBYJzAdyIhyUGcAvZb+QM/ALDPTLAHmt39gx75qJXTOGsIhHqMLAxgzwUCUf6uEMB2UO8EvZLyzo8AsM9MsAea3f2DHvmoldM4YgpDYWUkxK5gIPVRhQHoCDMgf4pewXnh34BQb6ZYC81m/smHfNxK4ZQxDTiGkY2JgBHqrkQ8T0aQaYH6d9w6IO38BAnwyQ1/qMG/Otqbg1ZQxiamMxxeTc93zgobrv+Hv+w0GZA/xS9ou5YY9/YKA/Bshr/cWMedZczJozCEGNoIaBjRjgoUo+1EMaDsoc4JeyX1jY4RcY6JcB8lq/sWPeNRO7ZgxBQG0koJiMzAEzwEMVFsQCHJQ5wC9lvzh/sMc/MNAfA+S1/mLGPGsuZs0ZhKhGVMPARgy0/lC9f/++THy5PXv27HD79u1FeLl79+7h8ePHh1u3bi3SXs8POzm4Z/vXsh2/sF44x9aaOUp9k6dg8ByDc++T12BqLjOUf4WZVy6wiNpIyAAnLG7NQOsPVS1UHz169DJH6fzJkyeLCGAWqb+cf61zsNU8wS+/ZGSrGLTcr/LRkj/gK42VPAWDJS5uco28BlM34Ye6R36ACBBgAAZ+wUDrD9UsprWwfPr06SJvp5dYpN67d+8gG3vnqXUOtvIvfuFZcYo95Q8Jae1PlVni+hJ5agk7aGOcuUBeGyeWzMvNYrlZx6s+cACKuMLAfAZaf6hmMa1zv5nW8YMHD47nz58/Py5q9ZFt3ffmsmIj39NHvP0xb310XGXjR8j1RjwKZZ17U9mHDx/69LiXsFY/sdzab62WYl4DWKqtkdrBL/NzykjxnxqL5nvML7lszjexrPKK8ofygzblL7UXzy3SLaaVq7zFvKT7qu8t3ss2cQ7PYkAbLMACDNyIgRtVZgLykXAYGIiB1h+qWhjGLS9ILaL9UCgJYF3TfbXlY53r2O2dE9O5rvvTdf2L57EP3XMfLtPivnUOtvIZfmG9cIq9UznB5ZUHYm7QuXODrscftJXOXdZi2T+sU65SXZ3rWJ/UsfCO92wHexjODJDXYCIzwflsJmZXeLlQxNn4DgbGYqD1h+rUgjXfywtLseq3Oh/72MeOotYL0nhPb5BUV6JXezPuxbDfMMW6LiMb9E/npXKldl23pX3rHGzlK/wyVr5bkiPlg1M/KJvKRcoTOXepLYtn2RjbVg7Lv9rivBPLeWy+53P2MJwZIK/BRGaC89lMzK7wcnGJs/EdDIzFQOsP1bzojPzlRePUAhYxPc1t6xzEuF/yGL9Mc3PJWLTWl0Su3hD7rXC0byoXWUwrf7kOYhrOzMIl9uQ1eLsEZ4P3AUSDB/jlA5pxwvo5Blp/qM4R0xqr3yZ73Dr3G594rPtq22+W8uJX51ooe8F7yg5ddxm36f587j5sU4v71jnYymf4hRw6xZ7mevy4diyrezE3xPyT88Y5Me3fqVb7zk2qcypv6V60hWM4jgyQ1+Ah8sDxtXi4ViUS84uHGMDhg9EYaP2hqkVnFKfR/3lBqnv+qLXGpS0K2XwvfgGZ6qo9b1og6wuCdG2qXb2V8pf/eAEre72dWmjHcbRwLHtbsKM1G/ALOf8ck3G+ixfnq5xvYi7KueucmFYuiv04L8m2mIPUf7x3znbu75NvcULs9xl74r5Y3BdriMmIwIaBzhngoUo+1MMVDsoc4JeyX1iQ4RcY6JcB8lq/sWPeNRO7ZgxBiHUuxJjU/c8lHqr9x3CJeQgHZQ7wS9kvSzBHG/gWBrZhgLy2jd/hfSi/DzUYBDmCHAZuwAAPVfKhHvBwUOYAv5T9wqIQv8BAvwyQ1/qNHfOumdg1Ywgi6AYiiAkFx0swwEMVjsQRHJQ5wC9lvyyRe2gD38LANgyQ17bxO7wP5fehBoMgR5DDwA0Y4KFKPtQDHg7KHOCXsl9YFOIXGOiXAfJav7Fj3jUTu2YMQQTdQAQxoeB4CQaOKor/du2BO3fuHMe/BE+jtbFrMBg8HsADw3mAfM/acbTn9EbjAaSNHM8PD/jhQXMMaKXAfCAnwkGZAfxS9gs5A7/AQL8MkNf6jR3zrpnYNWMIi3jEJQxszAAPVfKhHs5wUOYAv5T9woIOv8BAvwyQ1/qNHfOumdg1YwhCamMhxaRkLvBQhQHlATgoc4Bfyn7h2YFfYKBfBshr/caOeddM7JoxBDGNmIaBjRngoUo+REyfZoD5cdo3LOrwDQz0yQB5rc+4Md+ailtTxiCmNhZTTM59zwceqvuOv+c/HJQ5wC9lv5gb9vgHBvpjgLzWX8yYZ83FrDmDENQIahjYiAEequRDPaThoMzBXL/cu3fv6Mv43/3796/kN53nTfUUh1z/yZMnh1u3br2sn+s+e/bscPv27cOjR48OuR9dV33t1YaO4+a6uq/jXP/u3buHx48fH1577bXj/VjXx7bbbfj68+fPD6pfswAs2V5T7yZl5A+NLdvoccyx/yZ2ULc87/DLun7RPMXH6/oY/w7v3+EHSJLYSJiRPPqbWzxU+4vZGvMMDsoczPWLxGUUwBaxEoyOm0RrPPd1CbunT58exa+vxb3qWQDH6zouCVIJwyymLX5j/VMC0mI6innVz7arnMRnbFvHrQrSU+P1ddmuY8Uii+3oN47Lcwa/tO+XuXmNmLYfU2J08RhdvMOXiwiCje9hoC0GeKi2FY+t5gcclDmY8sspsRnFtOKZhdkpMS0Rl+uaB/UlIX1K3N1UTKvfhw8fXun/1PiymC71LbvjOCXIVU6+8Jjm7pdqQ2+kP/OZz7zyZlr+j2OL9s+1lfLl+YRf2vDLVF4jRm3EiDg0H4fmDbz2wxb4iC0MzGOAh+o8f43KFxyUOZjyyymxWRLEUXCeEml+M6r7mbMpoa2ysX3XVXuyRXu/IVc7vu+9y330ox89lneZU+OLgnOq3Vhfx/nttfuPtmvsEvX6wYE32WPf+Fr2cb7vch6L+/JeduePeavv6HvVzf24PvvyfMEvffhF84NY9REr4tRsnJo1jMn9YlHExMEHl2SAhyq8iTc4KHMw5ZcoFj1nTwmwLBiPDv/v/+LHoS1OdSsKOYm8KGLdn/exfV+zSNY+tuu+3X4spzH5o+anxhftUN1TH4eObdmm0j7arnHGj7JHf0Y7S+3MuVYS09EOtVUa/5w+KFueU/hle78oBxCH7eNADLqOQdfGkwAQ3DCwIAM8VMmHeqDDQZmDkl8k8PJmARjFX1woRaF2Thi7nupY8J5qN5aNb1V1PYpPi2m14zrex3K6pn71ryQmVV/3XHeq3VJ914t7tWfbs2+ibfE41r/OcUlMq2/boTZr7b9O/9Qpzzf8chm/lPIavr+M7/HzMH4eZiAvH+jASUxh4HoM8FC9nt9G4w0OyhxM+aUktkqiVyIwvr3NgvEUS1E8qq+p35nOQlBtqo7fMk+J3tiP6tneN9544/hRaNW1jVlM63oUwy6nfe04Y/08jmhbPI796Fj34kfDFTdtpR8eqPwpMR1/UFAaa+6X8/K8wS9t+0Vzgxi1HSPi03x8mjeQSf7iYc9EwgeXYICHKpyJMzgoczDllxoxbZEXRVqtyMzCXG34DXjODSWxrfLud46YVtvqW5vfjLu/ksBU3/n3oVUufnzd9Ut72Sif6N51xXSp3alrJTEdf/igutGuqba4V547+KVdv0zlNeLWbtyITVOxacoYROOLhzYTBB9sxQAPVdgTe3BQ5mCuXyxCjw797/8sFD3HdZ431ct1S8JZAi9uFstqO9eP9yymY123X3rj6/I1Ylp9+4cGbj8L6ZLgtj+iaJ0S0yrv8We73FbtviSmVTfG5qZ91NpCufLcwy/r+UXzFP+u5198uwvf7mKQJIoXCwMmND44xwAPVRgRI3BQ5gC/lP1yLq9wH7/BQLsMkNfajQ3zppvYdGMoYhBBDAMrM8BDlXyohzcclDko+eXOnTtHf/Hf/jyg2LPYLc8V/NKPX0p5jfj1Ez9i1USsmjCCB9LKIonJBuc1DPBQhRNxAgdlDvBL2S81uYUy+A4G2mSAvNZmXJgvXcWlK2MR3YhuGFiRAR6q5EM9wOGgzAF+KfuFRR9+gYF+GSCv9Rs75l0zsWvGEETSiiKJCQfnNQzwUIUTcQIHZQ7wS9kvNbmFMvgOBtpkgLzWZlyYL13FpStjEdwIbhhYkYGjiuK/XXvAvwPMg/zVZ+OuwWDweAAPDOcB8v2reZ5nHz65BgM47RpOQ9CtKOiIx3ZzUisF/L+d/1vxPRyUGcAvZb+0wi12EB8YmM8AeW2+z+AMnyUGcEhyCGICobxbBniokg+VD+GgzAF+KfuFZyh+gYF+GSCv9Rs75l0zsWvGkN0KGCYDDLbCAA9VWBSLcFDmAL+U/dJK/sIO4gMD8xkgr833GZzhs8QADkkOQdTzZnq3DPBQJR8qH8JBmQP8UvYLz1D8AgP9MkBe6zd2zLtmYteMIbsVMEwGGGyFAR6qZRZ/93d/9/C9733v8N3vfvfwO7/zO4evfe1rhx/+8IeH3//93x8yb8FBmQP8UvbL3uZHK/kaO8o84pd5fiGvzfMXfOGvAgM4peCUIRfIjBPWzzHw/9o7u5dLjqrt/wX+Bx574IHwHHgoyJyJiEeCCAMiKCp6oINC5HlVgpggEcUPQh5iAvEDwUcfHKMvYlQijKJmxiiGCepoXjPxazTJMybGexztd34dr511r6nuXfvevffuj6th39XVtWqtVauurqqrq/e+Dz2p3nrrrc3R0RFutMc//vGP5ic/+Unzqle9atB78rbbbmv+/ve/Nz/4wQ+q9N55552t/O23397K33LLLc1zzz3X3H///VX18f/ixYvNv/71r+b69evNz3/+87adDzzwQFX9df02dDnBH1rnHPQdOi6+PzyGz+E+chvGheNDj2vGw7jw4P44UX+cqJIXWn4V2hiYIQYOPamKLDzxxBPNV77ylYaU40c/+tGgeHvnO9/ZPPbYY81nP/vZtXpf9KIXteSXnejXvOY1rfxLXvKS5pe//GVz+fLl5tSpU2t1fOYzn2mJ9KVLl5ovf/nLzde//nWT6QneP74/bl4vLPH+8GLzZhw4JtONyaHHNWNnuthx3636bnWydkHooDlWxsC8MdA3qb7tbW9rHnzwwebVr371IGPFm9/85uapp55q4u6syPQjjzzS2njTm97U/PWvf60mrbvA5+te97rmL3/5S3P+/Plj7f7mN7/Z/O1vf2ve+973ttc/+clPtqT/9OnTx+TwiTZy3H333W2Z2hnbflLfpUu6T6on1uvDQZRb2nlfXHx/LOf+WBru3d7lzvvu+3n3vft3sP4dTNFNC0h3kmNrDEwLA31kAdJ25cqVJpLFl770pc33v//99tVlXs9++OGH29efRRJ5vZlrvNrMK86Q0g984AMNO8NPPvkk5tqDuugXMRSZfsc73tE888wzzeOPP9684hWvaLj+m9/8poHIUgc7XTbAHrtm7AQ/++yzrR1eGz979uzKjvx85Stf2fz4xz8+5ufHPkNlRIcAACAASURBVPaxdkx7//vf377i/dWvfvXYGAd5/ec//9l86lOfaq/jW8wL+/fee28bk383tX0wcN999638R67P/ste9rI2xryWzkEbzp071xD7D3/4w8d0X7169Vj/yIdNU+xsWmcJ8n1x8f2xnPtjCVh3G6c1d2/TX33j2jZ6XXc5GHJfT/BVO3eab1BjYDcYKE2qkN+f/vSnza9+9auWVPLd34ceeqhhJ+4LX/hCS5Ih2byWzavQHJBUiCwEle8Wf+ITn2gJ9O9+97vmz3/+c8N3lvkRLw703XPPPc1rX/vaFcnl9e6vfe1rLflGRqQXwsoBOYdgf+QjH+m0wY+DQXSRhcRDhvE7kvboJ2Sf7zJ/4xvfaAk8O+Jvf/vbVz7lnV8Rf12H1L/73e9uXvziFx8jouxc00YOvqP98Y9/vPn0pz+9ItOKU5d9sA6x55X0t771re13yEXa3/jGNx7TfddddzX8GNS29we+bqtjjvVLcfH98fzvHOg+UL/P+f5QG53uZh5yXPcb19K45j7Ybx843pOP9+Qb4EWfH4gYAwNhoDSpQkjZ8WR3FxLHTjGE+H3ve1/76jM7pXfccUfbBx/60IdWJFGvR6MzHuywstvL4ptDRJnJRAtwyUPEv/e9760IImT62rVrzUc/+tHW3jobvJod/dOEJTvYlo74nejvfOc7rQv4KNlMFtTWfF02YoodDslKZ419dq0h4dpdbxUFXVl3tHvSc2yctO6c65Xi4vujTKbnfH/MGeNu2/LWxKVxzThYHg7c51v1+VaVveAaiMQYxMbhGDDQN6lCAPNr3pmslkgiu8Lvec972tePeUX8DW94Q/uKMsSSAzKotqs+pFnXYsr1+CqziHCXjeyfdMlODZmtfc1buktpJryb2GdHnYPX6dn9zrpyvmR/02vY27TOEuT74kKf+v54YRzn/tYbFOuwkTE89vtjXXtc/gIOHIvxx6JvXHP/jb//3Eej6KNROOGFm0m5MTACDPRNquxE833l17/+9au+iq95f+lLX2rL0cHiOL++zPeEeRX8W9/6VltfZPq3v/1t+wo2+rWIriXT62zIP73mzevq/JK27JT8zK95Q/6ffvrptT9Aht4//OEP7aveeXLrIwu5Ddm+yPSFCxeaL37xiy1hI8ba5ZZuYsb3w3n9PtvfNI/+TessQb4vLr4/+n+AbE73xxKw7jYuZ23cN64ZB8vBgft6q77eqrIXXCMgQL4BjOGhMLDppJp/gAxCx2vVEDx80g9rcY2D9Nvf/nZbxi7rr3/96/Y711zndVmR3Foyvc4G/vFjZbwuzkH6uc99bmWn5Kd+KE0/QMa/wXr00Ufb74P3/Wusn/3sZ+33s/lOdO4PEV4RYLWzxj6/aM53yPGLV7358THaIV18j/pPf/pT2z6+5w2py/Y3zaNs0zpLkN80Lr4/XvjXcXO6P5aAdbdxOeuKTcc1Y2M52HBfV/d1taAXVybOxsDMMbDtpKrdZpHEuQzEd955Z/vja7fffnt7D9xyyy3tv8Xil8HVRogTDwiUn3K6LQ6m3PY+37eNi++PedwffRhxmdeUU8PAtuPa1Nprf32P7gADDuoOgjqLBbXjsrx7Y9NJlV+v/u53v9vwCvfnP//55ve//33n7uyU8cQvZLOL/otf/KJ5+ctf3v6COD9Yxi+GT7ldXb5vioMuPXO7vmlcfH/M8/6YG67dnuXN9bHPNx3XYl2fLxs77v9V/69OZrkodEe7f42BegxsOqlCFvg+Mq8gc/CaMa9R8z1gx70+7mOL1aY4GJv/u/Jn07j4/pjuPbArDFmvMTE2DGw6ro3Nf/vje2oEGHAnjKATTDxm/vr0VDDmSdXjIVg1Dso4cFzKcZnK+GY/3X/GwM0Y8Lh2c0yME8dkQww4YBsGzMTXxHe2GPCk6vGQ8dA4KOPAcSnHxXOo42IMTBcDHtem23e+70bTd6NxZLYExWA3xqaCAU+qxipYNQ7KOHBcynEZ6/h26tSp5vLly6tfvt+Hn/zIHDaxvQ97tjEtTI6xvzyuGUNjxOXEfDKIJtZhnqC9M74zDHhS9XjIeGgclHGw67jwL+H0S/jxfIg56vTp083Vq1fbvtWfuZM+iG3+N3vkOWj7+fPnbyofItbYwHaNLv2bPHzif8lfuXKloa9q6lqmfJ86LpvFBew5ZpvFzPFyvBIGHJAUEA8qJquLxYAnVY+HjIfGQRkHu47L0AQ6zm0QNIga5E3XIe4Q7LmSt0xqafulS5dWu8a0HxnFY6i0ROK7dEcf8c9kunzvdcXP17eP167HNffR9n3kGI4+hqN3cPCJzqB0nxsDZQx4Ui3HZWl4MQ7KONh1XPZNpsH1Lm0Ofd9ANtlNrtFbeniQSe4QZLrkE7bZ+dZDCnxGLvvNq+CQe5WRDkGmu+xl+86X7/OlxWXX49rS4un2LvK+WmSjb5rUDH7jwBjwjqQx8Pw44MVVeTysjQskTcfR0dExsgR54qMDWeEuEtt4Tjl5HXo9G/KFfh3SxXVsnDt3ri3ieolcoheCKX3ZDjblW2wTSvUac/aB67Kv7w3n7y4rn/0WCYUM6pBv6I2H2pqvR78iMS35z7XYxhjjvGNfKsu25VMkybQJXSpTPHVdbaKd99133zEynWMbdZTKclxzG2Tbafn+XmpcwOBS2+52+14YCAMO5ECB9GB0Y2HmWE47Bp5Up91/Q91/xkEZByeJC4RLhE0ESIRPhEp55ESY4jnXpKOrj0VESWVHuqjD9fyaN9exLcKKfKwjH6LuaL9LJ/Yh85A75EXyYjt1HsvQF4lnLJOvMQ7YiYSZPPVJsw+l+jGu8RxZ8ooL+fihjE9JJ9fwm/bjQ6yXz7Mc8mpPjq1io7hFXZThK2nWGeV8frwfHY/n43GScc2xM5aMgWMYOJbpHfgdOMfKGJg3Bjypzrt/a+9f46CMg1JcIDc6RLBI4yFSFsmS+iISM5FXynSeCaXqkaIv7kxrF7xkJ5Mz6cF//Dtz5kybRr85F3kl5VAbqa+6+Ch98quLTIsUtsrCH/SWfIzxwZ78wQ5lMc818sgRg+gDZV31SzHGFxFU6Q3uruxmncjWEtosF/sNvcINOvnEWHT1fdapuk7L97Tj4jfSjAHfGwNgwEEcIIjHFhLWZ0xNFQMsFqfqu/0e7r4zDsqxrIlLJkExH8mS8BoJEkSQPGU6LxE9yjPxjPkSkYzlsl1jJ8pyjn8ctCu2Lcpl+7ENXX5Qn7JIYGVPMcFeJM9cj3nkySNX0tVVP/qndsT62U7MZ53UryW0WS7iA71dZDrHMOazTrXHafmedlxMpo0B3xsDYMBBHCCIJiA3FhCO4/RjUEMW3M/T7+d1fWgclPu4Ji6RaBFnyJ1IEWSJ3WOIEmWQIF5LVh5Z6quezrNOyiPxIo+OuDOdd2Uj4UJeNuL3arEjXyVTSpHjU9KJfPYtt5t28sm60bcJmS7Z0WveJd+IUbQb4xrP8Yu8YhH7RcRberJO6pbakdtKPhPf2J7sP3lhJcqhJ/Z91lmy62vl+3upcakZ15YaG7fb90olBhyoykDdNPG7nrEzNwx4UjWmwbRxUMZBTVxEttog3vjDj4CJ2EKCOOejA9KmcSSStniedYrkUVeH9GJDdqgn3SJjkieVHsmQYjceELVcNxJwyuNBPuvBDv6pLLdHDwGwgyypfKKNilH0Q9e67MsH2STPuUgweXTEfGx7bGO0i6/0qerFsuiTYqtylaldpMSBuNBf5En1nWnlsacj6uBcR+x76qkstoHr/jgGJQyAo9J1XzNejIFqDFQL+mbzZGQMzBwDnlQ9HjJ5GgdlHGwblxLJ9WKlHOsh4gJ5FqkdQl+tDoh2JPG19Sy3Oyw4tt2x3XZcc2y7Y+vYLCY2i2moieDMiaAHre3vZU+q28dwDjg0Dso42DYuJtPluO7qntEO+D6J7aEI/K5iaL37xewh4r3tuHYIn21z/ricWB+7QybWYX4o4IcCO8OAJ1WPh4yHxkEZB9vGxWS6HFfPwY6LMXA4DGw7rrnvDtd3jv1oYj8aR3ZGEAw297ExUIcBT6p1cZo7noyDMg4cl3Jc5n4/uH3u9zljwOOa8T1nfO+pbQbRngLthwXeUR49BjypejxkPDQOyjhwXMpx8RzquBgD08WAx7Xp9p3vu9H03WgcGT3RMGiNlbljwJOqMQ7GjYMyDhyXclzmPi66fe73OWPA45rxPWd876ltBtGeAu2HBd6ZHj0GPKl6PGQ8NA7KOHBcynHxHOq4GAPTxYDHten2ne+70fTdaBwZPdEwaI2VuWPAk6oxDsaNgzIOHJdyXOY+Lrp97vc5Y8DjmvE9Z3zvqW0G0Z4C7YcF3pkePQZaFuU/jsCNCHhcvHluBBiOy81xcUwcE2NguhjwuDbdvvN9N5q+G40jXqSYbBoDxoAxYAyMFgNedHq94MWrMTA3DHhcM6bnhukDtMcgOkDQR7tYdCx8PxgDxoAxUMaAF53luBgvjosxMF0MeFybbt/5vhtN343GERNM70gZA8aAMWAMjBYDXnR6veDFqzEwNwx4XDOm54bpA7THIDpA0Ee7WHQsfD8YA8aAMVDGgBed5bgYL46LMTBdDHhcm27f+b4bTd+NxhETTO9IGQPGgDFgDIwWA150er3gxasxMDcMeFwzpueG6QO0xyA6QNBHu1h0LHw/GAPGgDFQxoAXneW4GC+OizEwXQx4XJtu3/m+G03fjcYRE0zvSBkDxoAxYAyMFgNedHq94MWrMTA3DHhcM6bnhukDtMcgOkDQR7tYdCx8PxgDxoAxUMaAF53luBgvjosxMF0MeFybbt/5vhtN343GERNM70gZA8aAMWAMjBYDXnR6veDFqzEwNwx4XDOm54bpA7THIDpA0Ee7WHQsfD8YA8aAMVDGgBed5bgYL46LMTBdDDTXrzO0+XAEFhGBo+eeaz74wQ8OzcOmOwB48HbfGQPGgDFgDOwLA6w09mXLdoxrY8AY2AcGGNf+z3/8hz+OwSIwAN45BibUHqz2MVjZhnFmDBgDxsC0McAEPIY+PHXqVHP58uXm7rvvHoU/Y4jJlH1wf057XJgy9vCdw2TaDxOWggHw/p277iIZklB7EJv6QGj/jWFjwBgwBnaPASbfXcUZYvzII48U9UO2Ll261Nx6661teZZ94IEHcO3Ygczp06ebK1eurOrtyvdd6BXBjI26evVq26Zd2DupTmLMgw3Skg76lP4plcVr9C19TLvj9aHO8aELX7u2PVQbrGc3Yxz32FKIlNvphwbC+8CEejc3pwc9x9UYMAaMAWNgThhgEt5VezJBjnYymYYUIS+ZLqI0BzId26n2jikdikznPt5nG02mlz1Oi1yYaJpoLgEDEe8DEuplDyL7nLBsy1gzBowBY2C6GOgj09sSkloyXSLIUyHTtLFml5Z7RDvTQ5Bp+ub8+fOrhw9D3oNDkWl8IjaKzy59zu3fFrtZn/PTGuMiuVgCmXIbl/3QION9IEI9rZveg7T7yxgwBowBY+AQGNiUTEO0eDVZR3zNtlQWyyFVOnhVm1eJIT18yFNfMUA21tV1ZOJr3tQ9Ojpq1ZKSRxY59EM4daAv+hD1d+nhOq8q89GhelEXZSLJlOuIr3H3kemoK7aDtqBXB2UXLlxQtk2pq/bGGKq96OD87Nmzbd/Jp9hmFKGnL3aUSZdklZdDio1k8V3XqCPbKi/FBL+EB5VLP33KNeqjT7qznPpMsrLndBnjLHgxwVw2wVxS/5fwPgChXsZg4UnB/WwMGAPGgDGwDQaYhLvqi0h2ERKuQ1qQQwfERiRL5EZkJxIkZCFZIo0lO+iJh2Qjmc4EMtqgDOImf0p5kfI+PejEtogysqpHO9AvG8qrzcqLAComsV0qQ1afSEBjm1ROGmXI5zZwLfYH55nIRn2xPucxdvJb7Yx6c/tjWcnPaFPnuS1RRzxHnjwfzrFdOpdcKbay6fQFvM0xFtxjSyJTbuuyHxx04X1LQj3vQWKOA5/bZMwaA8aAMbB/DDAJ57hDbvIhIiaiFcuR53okmeiMJCkSH8oiEe8i0yJK0b9op+RniXRne8pDttDRp6dEZvGLOuiJZFKkU2WU4y92SEvlyEhPjKmIYI6b5LER4xPtSIZy6pOP5yrXgwLZ7Yod8tGedKk9qq80+hXryW5OY592natOxIpiIz9i3KOc6jrd//hyqJiDxUww733LW5r//eMfmz/deAAYy/77P/+zvU4ar/t82QR1Sv1fwrv834JQL2fAONRAZbvGmDFgDBgD08cAk3BXP2ZCkklLzEcSJH2RSIn4qIy62tUuEcEsr3rRDvpFOlWuNOuM9pCJvvfpyTGgLmRRxA0/+WSdJT+iTZWTZvsx3xUHZCJpze1Fr0ivzuUz+RjHnM9llEd70tvVHuT1ifV0rZQqjlG+5EfsD8Wm5EeUK9nztRf6aI6xKJELkWnKHvqf/1kRZ5Npk2YRz6mmJbzHtpyQUM97kJjjwOc2GbPGgDFgDOwfA0zCXXHPhCSTG8r1CrQIjYglOiFdInyQJO1uU0Zd8qRZL+UiStm3KMs5OtBdktOOMGX4J/KuPOXU7dOTY0Bd2iSbIoGyn/0mL8KvGKluVx30qw729f1hyZOiQ7ElH+OiPLHBPvnoM/msF31xZzrWld9Rl85j+9CbP5RLNpfFvOJMH8X44HesT17t5rrO43X0UqYYRjs+v7mP5hiTErmATD/5+OPN/3v44ebvzzzTaCd6EzL93f/6r+aJixdXRDwSFp+blB8KAyW8Z19OQKiXMVjMcQB0m4xdY8AYMAb2h4E+Ml3qB4iODshKJD8ipSovERyVQRCpD4nCDrKRREGG8kF5Jo3UhwTqEIFCjnNS9PeRacq79IjkUV/xiL7GevKfch2Q0ugDPklO+kRWVefcuXNtXGUzxiITXupQjq4oh11+fE1l0WfZjfL0ox424C/y+KGDvOpxLr1cIx8PtU/tUp46MR7SRypZ9Z/KdF36Yzn65FeWU3u4Ll1O9zeuHDrW4CWTCZFpCDGvel/64Q9bmUymKb9+7Zogt5JjNzseqh+vR5Ke7Ttvsr0rDIDLGt0bEurlDBiHHrBs31gzBowBY2C6GGASHkP/QbgiURqDT/ZhO1yXHkQ4ptvF1PGri1+JXEQyDYF+9qmnGohzJNPxOuSEPARZr4WTxu9cU5/dbnQjTznfy1a+huBYxiR7Wwz85qGHgHz1cfTcczXzft3N5kHJcTIGjAFjwBhYMgaYfcfQfu0sahdzDD7Zh5OPDe7Pk8fOuNs+doxrmaBEMk0ZO8sQ3/97xx2rHyArkWHk4i50JNNcz4d3p02OM/bGlgezFePM9jdihZEaRyxz4/Utx9IxMAaMAWNgnBionFQ9jnsuMwaMgclggHEtE5hMpslDph998MGtyHQk19mm8ybWY8RA5bw/zkWLF5PuF2PAGDAGjIExYaByUp3MInpMsbUvvteNgcNgoIZMQ3L0/WjtJp/kNW/qomeMpMk+mcyXMFA57x/m5vWg6bgbA8aAMWAMTAkDlZOqybR3JY0BY2AyGKgl0xANdpZFpsmLYKODQ694U6bvUMfrvBoeD+1Uk+r708jwo2Ym3Sa3JXK772vgtWKd4sVcRZBqAmkZT57GgDFgDMwYA5WT6mQx4B82m9d6KP+SuNc68+rfofqTcW3fBMX2TJSngoHKed+Dy1ADkvUYS8aAMWAMzBcDlZPqJMk0P4Klf/cEhvmXT/xrpnjoF8SnTNLiv7hS28b4Q27EuMsvfvm79P+089hDH9Jn+ndjuXzbfJ8fGU/b2nL93Y2r3AdTITb20yR83xjg/qgYf3Z3g1YYr3HQMjPe6TFGfP8ZA8bAVDBQOalOcs7K/5oJAgZh43run6mTafzPbRpbfggyTZv69OyyzSbT0xnXGdf2TVBsz6R4KhionPenc8PvcuC3buPAGDAGjAFjoA8DfZNqJqN9esZYxo5tJJlTIdOQNvyu3X3N7dymL86fP1982LCNTtXtI8F9O8Kqr5TdbfXrprGSjpOkJtPTGUtNpk1sp0JsD+Fn37wfxsbp3PDB6dE/VbavxpUxYAwYA/PCQN+kWiLTELdz5861r9oeHR2tiBfkRoeIDljhHHlkOXjNGjIU85E0Rj3IUoa8XscW/pDDF/KU61Ad2ZYM+U3IdPSD82j3pO3p06NY4mN8FV3tpi8UM9oa28V51C1fs64oAzFEt47HHnvsWF5xpA7xlc7YF8IH8eDAjz6b6MqxQx7dmUx39alkeX2fNigu0Udkop/yHfuKG+c61Fbpjq+bI6+D68QMm9LpdJzjIX12CJJimybxU8AA90fF2DXOm7vC8ZrGWebGROlYOgbGgDFgDGyPgb5JVWQJ0qJYQy5E/OI1kRSuZdIiQqiynFddUupGvcieOXPm2HefI/HKPkYSha5IsjLRo+2yF33GD/kkn5VHLvuf85LdRA+y8gU/0SmiSRpfT1c71DbqxiP3D23Iu6qxvYp3llHbZYd8jC+xx5baKz1Ks74cO+opdrV9iu7c57IX02w76o+xpk6fH5FY0/ZSbKNdn28/Jg0RQ+6HEqnhF7Y59IvbJZldXdOvfsdfDt+VLes1qe/DAPdAxX02jpu5wtGaxljmxmTnWDoGxoAxYAwMj4HSpAppyId27zIRgbRAiPIhYphJG/X5qC+lT3oicYukUnLUy+fZtnzFdtYXSal8IJWf8iPrPGl7avVEghjbjW+0QaRTPhMDPuRjPFROKtIdfUAX10txyAQUHTmG0ZdIUGW3y6Z0yWf5p4cGURcy+VCfUi/GSnZLaYyLztW/GRddfqjf0V+KT8murw0/Tm0aU/BTIhOQaEhtLBPB5t9Y/e7ixUGJNv8K68nHH2/ufctbWpv8ay3skEYffG7yu08McH9U3FOHv5ErnKxpiGVuTGCOpWNgDBgDxsBuMNA3qZZIC6SEj/qjRE5URprJWK5fS3JEMN/1rncd26VW/WhT59lWF4mUn8jvsj3yS/YioYuxVltJkY0EVjpi20oxyO2I+a44IBN//bzkZ/Ql+oxstFHKgwV8VRtiO9GlXeBSe1SHNNuNZfFc+iNmso/IS460z49SfKI9n+9mjDpJXBnXSuQkk+lMdkt1trmW9ZtMmzRvg6eh6vbN++F+G88NHZxaTSC+5v4xBowBY8AYGAMG+ibVEmmJJE7+cy3vnKqslkwjn0lU1osuvnOr78tSBx/ZtSSVTaVZH2SptCOLfCR62a70SS6SYGT5SCba3ERPjHUkd+jNfpOnzfIj2pQfuQ76eUVZdWJ7VadEFrMcefV19LnkZ8mm6iIf44OsyDTnXX1KPdqAH/K7L0UuYybHq8sP7OQd8T6/+vxw2X7H+1oyzS71Ll/5Npk2eR6KAA+pp2/eD2PVfm/aYLhqcLe8+8cYMAaMAWNgDBionFRXcxvEg0/2HdISj0jadE6dXJ98JEZRTyQy1EUPR9QXr8u+9JXIHjrjIXJHndiu6Afyssl1nW/anj492VfZl3+UQ4Z1RF9zDPErxwU9PISQ7yLk0oc9tYdrin22G4lp9nmdTX4p/OzZs6t2yAb10CUynfXgj/yjjHO1X/6pXZTHD9c5crniS1mfH9jRgX/EEZvRhs+Px3wM8aDPSuQj7kxf+uEP1bVtCrHmGjLsIPPdZr0SnvNc1xG/A83r3LzGrYNXvP2atwl1CYuHvAY+K+7T8d3YFU7XNMwyaaJ0XI11Y8AYMAZOjoHKSXWSc0/plV5j5eRYGUPseAgAoSUdgz/2YZx4YlwrkZVIpinPO9Mi05RBoJ996qmG3eVYL+82owMCDZGO9dFBPZVJp78zbXINFg75qZz3x3lze9B1vxgDxoAxYAyMCQOVk+pkiQs7ktrdHVPc7cvJxoG4K+0YniyGS4jbEGQasqMdaEixyE/e0cYWu9MP3nNPS5ypI9lMvP2d6cOSSPXL0tPKed8DzBIGS7fRODcGjAFjYDsMVE6qkyXTxsd2+HD8HL8pYoBxrUSY4g4z5X070ypHVybTMS87esXbZNqEWZgYawqmK+5rD34VQaoJpGX8WrkxYAwYAzPGQOWkagzMGANeL3jNODcMMK6ViMwmZJpdZV7zZjeZeuxIo5Pr7ESTZhvIRaJNHb/mbXKdcXLofOW874FxbgOj22NMGwPGgDEwPAYqJ1WTaZNpY8AYmAwGtiXTEOXr166tfoBMu84i1Hr9GzscItCSe/5q0/74mH+AzGT60OQ52wefFeup4RccFUZrHLOMJyNjwBgwBoyB0WCgclIdjb+ei8e1vvGPvI2rP7a9P/Kvqm+r71D1GdcygSAP6Y2vYZdkdnnN35k2sd4lvmp1V8778xrcDjUY2a5xZAwYA8bAvDFQOakOTqZFwrCvQ/+iaMoLev0rJrWJVP/GaUz3EjGO/687+pb/R3Usy+e0N/7bqvivpBQDZKbcp/nfiNGuMf6o3VB9Sh/uErN9PyKX8ZTxVpunj0rEAjLNoZ3kksyurmk3O/4rrV3Zsl6T9j4McA9U3EvzXvxUBKAmSJbx7pgxYAwYAwvHQOWkOjhORKZZPOc5bcrEi/aMkWiVYjwEmYYYxT6EhEVyLbtT7tNNHi6ovYdIhyLTfXp23a5dk+k+guEyE9ClYKBy3jeZ3vWAZ/3GmDFgDBgD08dA36Q65KIa8gzJ0v8HnhKZPn/+fLuzWoP3Ick0una1Q9jXt7XksSQ3FTK9SZ+W2lmDhZIMccd2qWzba0P0KT5wb/KgBX3kd4nD3GaTaRPapRDaQ7azb94P9+T0FzihMTsZdK3fGDEGjAFjwBjom1RLi3ORYOpxQAwgyVwHT9Q5Ojpqy0jJQ0Z4hVsHO7dnzpxpd3BZPGccUufKlSsr4o2MDr0KLlss+vnoEJmLeenv0kMd2hF9RDa3Vbbz9bgTTb2Yl21S4qRDulQey6iPP/FAb+4P+UEZMabe2bNn1TgsNgAADsJJREFU22roQzdt06H+4Lp05dhRlsmj7EgPOqUj9pPsyTZ5fXKfks84kc5N+nQTPfiV2xL7IfZBvJ7joTaRdsWXMvpFB229cOGCsm1KXfUDflFH/lGXPD7Rp/gjn7psStc2fYpN2Y0+ZEyXYoK85GK/0FhhRrqVRw/t0kF7+ciPk6boOyRZsW0/FBgzBrg/Ku6tFwbwCuEahZb59wDreBpbxoAxYAzMBwN9k6oW51ro0+8sguNil3MtoFkYc06KLPVFtnKZSAP2dUhPrJd9KC3YtehHFtIS87Lfp4c2iajgd7SBn5AT6gv3tFlkgGvkFRPq5kP+qD4p9aWDVPW7ZLie26AYol+kpKRHOpFTeY6V6ksXcVObqaM2RJvZH7Urtl8EHln1RcZCLOM892HOn0QPNtWmUp/mPiAvPCo2sV2Ko2JLmuMrP7tkuJ5jGONLOXYiNqMuzrPNGCv5vUmfSn/sc13LKTHiw/Xod4w1ZdEP8uhWvXguHVzLtjbN01djJjP2zWT7kBjg/qi4p+az0KlobE1ALHNjAHcsHQNjwBgwBo5joDSpsvjOBwv62267rSUYlCuOkQyU6olMsaCORFsL56gr6hQRYdGdD5GLSMKom23ERX2fHsriAj7qwc9IpqPO6C8yyNIekTCVK8VGPMj3xQG/+Kh+jDXXYt2SX8jkdsu3HDvJIh91cU6884Fc9kc6Yiy5xifa68NJlKMe9iNuom+b6EEXflEn92mMo/yNdqNNlSvtii/XS3HAfryeY5h9QRZdskfaZTPHTrLIxzZw3tWnsqNYKV9Ko714ThuFM9XDB7VDbYo+SS7HR9c3TcFrJiv531Yhs+7HwPj1bf7XdOl/Smf9S83v8hfSiXv812K7ijF29D/Fh7RBbPTv1IbUu60usF9xTx1fLFRUqFFqmRuDuGPpGBgDxoAxMB8M9E2q6xb64CDKlBbRwgoL50iKMmmQnHRGMh3JR5YTieV6thEX6yzku/TEhX7Wk4lX1ClfamKQ7SvfF4fsV7SD7Vg3t53y3B8xjy7FWO2QvdjGeC45pSWbapdklEZ70Q+VK81tzDaiP5voQb8IYu7TGEf5Ee1GmyonzfZjvisOyEQc5vZmX+Sz7EYb2YcYY8lv2qeql+3qek4lJzuUZx+5FsupQ74U1xyfbK82z7iWCYfI9Cb/Gstkev0Ossn0+hhlLB463zfvh3tsPgud0CgT2RsDsuPhGBgDxoAxMBwG+ibVvNAn7iyE+agPWBRrF4rFMTteLIhVrjSSE65l0iA50kgKOEcnaZSRXC2Z7tMTF/rojb5m4kW5yID8iTEpEYlcR21XHLGvc+kkzX7FuFBOXq/1Rp+lI+vFhvoq1kU+9h3nEG1kKIvtk27ViXJcyzYlH32PtlSuFLnaPt1ED/ppB/1T6tPsN3nFKsdDvuY6Ob75YQX1MlmMcaGcvPo0+lxrM9aN8clt6OpT7JTiI/s5pT30Fx98pzzbin5Qjm1ip/uAc+nt80syNemuyPQTFy/ufJf60Qcf3LmNSObYlaVd8dom5ybTJtOrG7jm5rTMcAs4x9KxNAaMAWPg8BjoI9Ol/tECmHocWkhzHXmRgedLj/8/XhbKHJAU/QCZ5EghzSy8M8FgwR4P9MhWLfFCvksPi/m4oMcHfCSlHmUc8i/HQKRLNmKea3xEKNAD4Tl37tyKQHfpi7HEd/QohujBDu2nLPuMbNaLTcUL3frxOHRxKAboiiQ568F/6ssf+UZesXpe4/N/Kc99GtuGlGLGdfmIvtyu7Futnuyr/FSfqlx+x+vZJrJ8clxifCmXDXQqZuhCN4fi3dWn8inGt88msRiiT9ETHwTgn/pHbVeq9uie1PXcL2qr2qS86rcBufEHPVmXdG6Soi8Twr6daQjl9WvX5Mbq1VztTD98//3N//7xj6tyvR5OOec6IJbY5TrykFQd5PEh+5Xz8hN/8CuXK8/rw+iXfeTZdY/5WF//5xp/5H+8xnW9kpyvk5fdWIYe2hXLiYEO2aFujlUpHmq76vOKd3zNO/ZTX3yij1Guyzf0xte8++zU6FbbsKeY5rZJhtjkvqT9MaZd/tTEVP0WU/RX3E+HX6BUOFnTEMv8e9JyPI1pY8AYMAaGx0DlpNo5F7FojuTHfTR8H405phC9LqI1Zr/tWzdOIboiu1ONE+NaJA+cZzKDTCQ0khcRJuWj70xTH2IHsZFsTGO5SE4mUpEgxbqlc/lb8hF5dEeyWsqL3ONzJKX4Ib2cSw69yGZiiR2ux3hIViRePkVd+CQ7nPNBrutDeazPuepjm3NS2Y5+Smf2X9ezbvLSHev02Yly0kuadasM/ykjH8+VV1uRiX0Z+6fPH+pJv2zWpGC/4t7uHiQqKtcYsIxJrjFgDBgDxsDkMVA5qXa2c6idJM/N01y3aKc07p66L6fZl/Rb3pWeal8yrmVSIXJaIrSQJEihDu1mQmT6yDTlkKB4oD/Wkx9dxIfrOrJv0i/SJ12k1BMZI0/dnFe9aEO2RN5yvawX3ehFjo90yheVleKL/8iTKsayq/pKS/Wpo4cA2M6H+kk6SEv+l3Rn30TM++zU6pY/xIY62BKOVBbblvVG3/r8WRdT2copcay4t6c7kFU0riYAlvEi3xgwBowBY2AtBion1ZUeSFM84uuwnr+89jAGjIExYIAxKhOIEqFCJhOdmI/n1I8701lfzEcyJD8gTHyU70trSFLWB+nqI9OxLNrO9TKxQ1aEGdmTkmnZJDYQ6qwnxk+ykXCWbEsupiX/S7pjH2Enkunsm/TX6pb8JmQa3aoXfatpd1dMpS+n3B8V96kHs4og1QTSMl6MGwPGgDEwYwxUTqrGwIwx4PWC14xzwwDjWiYQJUKFTCRS5CEv2vGEpGhHkfqRTMcy6aEe9SMZkh+QpUiYdD2nyHSRuSib9WE3EuZIwmgjBJY06uA818vxiHXjOXVF4tBBHp+iD11tKcWH+tTtqp9tIV/6ZP8l0+dbrNNnJ8pJL2nWrTLaQhn5eK682oqM5CiL8enzR3ZynXi9dF4573tgnNvA6PYY08aAMWAMDI+ByknVZNpk2hgwBiaDgU3INGQDIqMDwizSDJERmY5yelUZEqkDAkw9rkUyJDKTCZOunzTN+jIpJh9JefQVn0XkRNa4JkKXZcnLz1imHeZYjl4dihN1Y4yjLekl1QMP1VdfcJ1yyCwPLHTE9kU90ZYejFDe5VsmyX12Srqz3/ILe4pplwx+ISM58hk/Xf5EX7piGuOic2Qr1lPDLzgqjNY4ZhlPRsaAMWAMGAOjwUDlpDoafz0Xe31jDBgD6zDAuCbi4LS8g+u4LDculfO+B5p1A43LjRFjwBgwBoyByknVZNoPgIwBY2AyGDCZXi5R9EOC9X1fOe97geRFsjFgDBgDxoAxsA4DlZPqZBbR69rrct8TxsD8MWAyvZ5QmXQuN0aV8/78BwpPBu5jY8AYMAaMgW0xUDmpmkx7V9IYMAYmgwGT6eUSRT8kWN/3lfO+F1jbLrBc3xgyBowBY2D+GKicVCeziDZm549Z97H7eB0GTKbXEyqTzuXGqHLe90CzbqBxuTFiDBgDxoAxUDmpmkx7V9IYMAYmgwGT6eUSRT8kWN/3lfO+F0heJBsDxoAxYAwYA+swUDmpTmYRva69Lvc9YQzMHwMm0+sJlUnncmNUOe/Pf6DwZOA+NgaMAWPAGNgWA5WTqsm0dyWNAWNgMhgwmV4uUfRDgvV9Xznve4G17QLL9Y0hY8AYMAbmj4HKSXUyi2hjdv6YdR+7j9dhwGR6PaEy6VxujCrnfQ806wYalxsjxoAxYAwYA5WTqsm0dyWNAWNgMhgwmV4uUfRDgvV9Xznve4HkRbIxYAwYA8aAMbAOA5WT6mQW0eva63LfE8bA/DFgMr2eUJl0LjdGlfP+/AcKTwbuY2PAGDAGjIFtMVA5qZpMe1fSGDAGJoMBk+nlEkU/JFjf95XzvhdY2y6wXN8YMgaMAWNg/hionFQns4g2ZuePWfex+3gdBkym1xMqk87lxqhy3vdAs26gcbkxYgwYA8aAMVA5qZpMe1fSGDAGJoOB5vp1hjYfjoAjUIjAX59+uuZe9gLJi2RjwBgwBowBY2AdBphn18m43DgyBoyBKWHA45rxOiW8jtRXg2ikHeNFm59sGwPGgDEwIgx40en1gtcLxsDcMOBxzZieG6YP0B6D6ABB9wJ5RAtk97/HAGPAGKjBgBedxkkNTixjnEwJAx7XjNcp4XWkvhpEI+0YE24TbmPAGDAGRoQBLzq9XvB6wRiYGwY8rhnTc8P0AdpjEB0g6F4gj2iB7P73GGAMGAM1GPCi0zipwYlljJMpYcDjmvE6JbyO1FeDaKQdY8Jtwm0MGAPGwIgw4EWn1wteLxgDc8OAxzVjem6YPkB7DKIDBN0L5BEtkN3/HgOMAWOgBgNedBonNTixjHEyJQx4XDNep4TXkfpqEI20Y0y4TbiNAWPAGBgRBrzo9HrB6wVjYG4Y8LhmTM8N0wdoj0F0gKB7gTyiBbL732OAMWAM1GDAi07jpAYnljFOpoQBj2vG65TwOlJfDaKRdowJtwm3MWAMGAMjwgCLTh+OgCPgCMwtAl4HmwsZA1thYKvKXuiNaKHnG8FYNgaMAWPAGDAGjAFjwBgwBowBY2BvGNibIRNvE29jwBgwBowBY8AYMAaMAWPAGDAGjIG5YMBk2k9ujAFjwBgwBowBY8AYMAaMAWPAGDAGjIENMeCAbRiwuTxFcTv8RNAYMAaMAWPAGDAGjAFjwBgwBoyBk2PAZNpk2hgwBowBY8AYMAaMAWPAGDAGjAFjwBjYEAMO2IYB85Obkz+5cewcO2PAGDAGjAFjwBgwBowBY8AYmAsGTKZNpo0BY8AYMAaMAWPAGDAGjAFjwBgwBoyBDTHggG0YsLk8RXE7/ETQGDAGjAFjwBgwBowBY8AYMAaMgZNjwGTaZNoYMAaMAWPAGDAGjAFjwBgwBowBY8AY2BADDtiGAfOTm5M/uXHsHDtjwBgwBowBY8AYMAaMAWPAGJgFBv4/GfhFkBaQzT4AAAAASUVORK5CYII=;" vertex="1" parent="1">
          <mxGeometry x="39" y="10" width="771.54" height="450" as="geometry" />
        </mxCell>
        <mxCell id="HJQ2WrZzmwikBVrHChBw-32" value="" style="shape=image;verticalLabelPosition=bottom;labelBackgroundColor=default;verticalAlign=top;aspect=fixed;imageAspect=0;image=data:image/png,iVBORw0KGgoAAAANSUhEUgAAA9MAAAI7CAYAAADvbcgeAAAgAElEQVR4Aey9TahlXXXuryHYsWvStRdtJI0ggYC9agR7kr7VsRFITxHs5P5JUSAvig178b2UCaRj50rwbSQXUlw/sBqXpET+WGqE0jdYCZgKaioRU29M9q1nm6ccZ9Tca891zlp7zTnXb0HV+pofY47xm2PN56x99nnb2972tgP/8AEMwAAMwAAMwAAMwAAMwAAMwAAMzGJgVmGENz98gAEYgAEYgAEYgAEYgAEYgAEYgAF+8sAPE2AABmAABmAABmAABmAABmAABmBgNgOzK/ATCH4KBQMwAAMwAAMwAAMwAAMwAAMwsHcGENP8BAYGYAAGYAAGYAAGYAAGYAAGYAAGZjKAw2Y6bO8/fWH8/AQSBmAABmAABmAABmAABmAABhCS/DABBmAABmAABmAABmAABmAABmAABmYzMLsCP4Hgp1AwAAMwAAMwAAMwAAMwAAMwAAN7ZwAxzU9gYAAGYAAGYAAGYAAGYAAGYAAGYGAmAzhspsP2/tMXxs9PIGEABmAABmAABmAABmAABmCgVkge2PAAHsADO/ZAba6kHD+ghQEYgAEYgAEYgIHdMFA3UK2hgaLOV/gJP8HAWAyQ/8aKJ/OTeMIADMAADMAADCzEQJ0jWUzW+WmhoPCDCz42AwMNMUD+I/+R22EABmAABmAABmCgwECdU1hM1vmp4GBEUUOiiPjA8XUYIP/BzXW4oQ7cwAAMwAAMwMDwDNQNkMVknZ+YMPgJBsZjgPw3XkyZp8QUBmAABmAABmBgAQbqnMhiss5PCwSEN9m8yYaBxhgg/5H/yO0wAAMwAAMwAAMwUGCgziksJuv8VHAwwqgxYUSMYHkuA+Q/mJnLDOVhBgZgAAZgAAZ2wUDdIFlM1vmJSYOfYGA8Bsh/48WUeUpMYQAGYAAGYAAGFmCgzoksJuv8tEBAhnuTfe/ePeHzyvbs2bPD7du3D48ePTrcv3//5LhV5smTJ8ey+BcOt2BA8G7RL33COwzAAAzAAAzAAAw0zUCdcSwm6/wE7NN+knCWuJ7jJ8T0tE/n+JKy1/Ml+e96foM3/AYDMAADMAADMDA4A3UBZjFZ56fBYZklgku+uKSYlmifeuNdso9rcF5igPwHFyUuuAYXMAADMAADMLB7BuocwGKyzk9MqGk/lcR0/Jj3rVu3jh/pFm/adC+/mdY1f0Q8l7d41j5uc9+GE8fpOO7NP2Jpb2NmvMwBGIABGIABGIABGDjLwNkCx0Uki8k6PwHctJ/OiekorO3LKKbz/diehbWFswS1xbXbYj8dH/xT9g/5r+wXeMEvMAADMAADMAADO2egDgAWk3V+2jlMZ9/eRfFrX1kgSzQ/ffr0cPfu3SvtWEzrS8iiONZ1vaHOm8sgpmHWjN10T/6DpZsyRH0YggEYgAEYgIEhGagbFIvJOj8xSab9dF0xLdH88OHDo3j2m+dT4tsxQExPx8J+Yn/eT+S/8z6CI3wEAzAAAzAAAzCwQwbqgs5iss5POwToylvkc+OfEtOq67fUsR2/mdZeb60lrP32WuX1L5b3MWIaZs3CTffkP1i6KUPUhyEYgAEYgAEYGJKBukGxmKzzE5Nk2k/nxHT+6LbKRzEt/+rN9PPnz4+C2r8nLT61+brKSXDrXJvfZhOf6fjgn7J/xBC+KfsGv+AXGIABGIABGICBHTNQF3wWk3V+2jFIiI0XAp74j+kD8t+YcWW+ElcYgAEYgAEYgIEbMlDnQBaTdX66YTAQYwhSGGiQAfIf+Y/cDgMwAAMwAAMwAAMFBuqcwmKyzk8FByOOGhRHxAme5zBA/oOXObxQFl5gAAZgAAZgYDcM1A2UxWSdn5g4+AkGxmOA/DdeTJmnxBQGYAAGYAAGYGABBuqcyGKyzk8LBIQ32bzJhoHGGCD/kf/I7TAAAzAAAzAAAzBQYKDOKVpMsuEBPIAH9uaBO3fuHIdcSJ780KOxH3oQo7rnOX7CTzAAAzAAAzCwGAN1DWk1idPrfIWf8BMMjMUA+W+seDI/iScMwAAMwAAMwMBCDNQ5ksVknZ8WCgo/uOCNFww0xAD5j/xHbocBGIABGIABGICBAgN1TmExWeengoMRRQ2JIuIDx9dhgPwHN9fhhjpwAwMwAAMwAAPDM1A3QBaTdX5iwuAnGBiPAfLfeDFlnhJTGIABGIABGICBBRiocyKLyTo/LRAQ3mTzJhsGGmOA/Ef+I7fDAAzAAAzAAAzAQIGBOqewmKzzU8HBCKPGhBExguW5DJD/YGYuM5SHGRiAARiAARjYBQN1g2QxWecnJg1+goHxGCD/jRdT5ikxhQEYgAEYgAEYWICBOieymKzz0wIB4U02b7JhoDEGyH/kP3I7DMAADMAADMAADBQYqHMKi8k6PxUcjDBqTBgRI1ieywD5D2bmMkN5mIEBGIABGICBXTBQN0gWk3V+YtLgJxgYjwHy33gxZZ4SUxiAARiAARiAgQUYqHMii8k6Py0QEN5k8yYbBhpjgPxH/iO3wwAMwAAMwAAMwECBgTqnsJis81PBwQijxoQRMYLluQyQ/2BmLjOUhxkYgAEYgAEY2AUDdYNkMVnnJyYNfoKB8Rgg/40XU+YpMYUBGIABGIABGFiAgTonspis89MCAeFNNm+yYaAxBsh/5D9yOwzAAAzAAAzAAAwUGKhzCovJOj8VHIwwakwYESNYnssA+Q9m5jJDeZiBARiAARiAgV0wUDdIFpN1fmLS4CcYGI8B8t94MWWeElMYgAEYgAEYgIEFGKhzIovJOj8tEBDeZPMmGwYaY4D8R/4jt8MADMAADMAADMBAgYE6p7CYrPNTwcEIo8aEETGC5bkMkP9gZi4zlIcZGIABGIABGNgFA3WDZDFZ5ycmDX6CgfEYIP+NF1PmKTGFARiAARiAARhYgIE6J2oxyYYH8AAe2JsH7ty5cxzyAsmWT6nwKRUYgAEYgAEYgAEYGIuBejHNYrLOV/gJP8HAWAxITRPTsWJKPIknDMAADMAADMDAAgzUOZHFZJ2fFggIi/axflpFPAeIJ/mP/EduhwEYgAEYgAEYgIECA3VOYTFZ56eCgxFTA4gp4rpv/sl/+44/85/4wwAMwAAMwAAMnGCgzjEsJuv8dMLJCGoENQx0zAD5j/xHbocBGIABGIABGICBAgN1TtnLYvLevXuHJ0+eHG7duoX46Vj8GPRHjx4d7t+/TywHiKVjusV+L/lvC9/SZ90zGD/hJxiAARiAARhokoE6o66zmJSI0fbs2bPD7du3mxc0EtCPHz8+3L1792irbJbtcbPQ1tgk1HqE2nGJ49IPEVobi/x7yi7F6OnTp2e5UgwVs1r+7BvF/Zvf/Ga3MW4tlr3bo7nS+xiwv+5Zh5/wEwzAAAzAAAzAwAwG6pw1dzE5V8TMMHi1Ra0EmsS030prDBJsFtfRxt7FdA8/CFhCTCtmU+3EmGZme45xHBfHdTluyk9z899UW9y7eTzwIT6EARiAARiAARhohIG6QEwtJrMI1cBK1+YOWG8lJWjm1rtu+SyeehHTEv8SjLK3Zux5nDV1TpV5+PBh8YcNp8rPuT4lgsVXzZtp9SeO1JaOp3yVmV3CT1P9zfEFZevy1Fp+msp/a/VJu9vGHP/jfxiAARiAARiAgQoG6pw0tZjMIkTiJW4WxBI03vJHv+M9fSxXIi1uFtZuSwOLgspvFd94441jNYun2G7sU+08ePDg+BHg58+fH9tS2dj+HDEd+3HfslHH6kd9aJMNGks8jyK4th3brLpq05s/hi7fuA/di+PScbTRkOS2YhmJQrXt7c0337xybt+qjsbnNnUcbdKbf/lDm+yY6lNtZd/ZVzH26kv9eLMttiHyab9EG3N925b9FPtQmdiGyno7Fxvbxb4u97TgJ8W2BTuwoR9miBWxggEYgAEYgIFdMFA3yKnFZBQrhqZ0zfe0l/jQPx9H4eZysYzLuY7O1YffTlqUldoptad2LHp8PwtBt2mRpL3bV/14HO3SdZ/r2GJS/ZTOXVZ7H7usz3M9Xdc1lZOd6sNCU/v48XSPw+JPdeOW/aA2JZ7j74+rL9ui+6UyuqZy7kfnOvb4LWRzO6faK405tuXYZ9Zin2o733d/eZ/LRR/rnvtzmxLtup7bUf+nYpPLcl6Xf7b2k+bL1jbQfx+sECfiBAMwAAMwAAO7YqBusKXFpERD3vxWMAsTQSWBETed+42n2srgScxE4ZXPo8DJAtJtlfrUvSiUYtlox6k2Y33bH8elY4sp7afGYDvmthP9KzujmNYYLDo9tug79+l73lt0x7GorVN+yIJb7Wi80YfRlhivc326rei7OM7YlsrkzRyqnegr91va53LRT/HYdeNYsw32f7TZ9djX5ZyW/CS+WrIHW/pjiJgRMxiAARiAARgYkoG6QU0tJrMIESj5WhYjPreIjALMoKmM/p06Vx9+W1gSLe4j1rfIzW2rTL52SkS6rNqasl/louByvTym67QT/ZvHHgWs+sz9Zr/ofh5HPD/lB5WJb6/VTh5vtCXafK5PtxV9FccZY18aj+r7X+7X1/M+l4vtxmPX81jjGHUvnkebXY/9L2PTiy+m8l8vY8DO/rgjZsQMBmAABmAABppnoM7AqcVkFiEKer4m4WFhZKGmaypbEiq+7jo+dx2f+w1kSbSc6zO27fZi+6dEZC6rdvwmUvfiP7UnceVrKhv71bH7nNNO9G8ee7Zb5/KT7Yh92q5cR+3r49+uE33pOqfEdByf6tk30Wa1UdOn66p89I/a8g9SdKzxaW/b4l5jsI/j9Xyc7Yt+iv2pXuwzltO9OGaNUWPQPvfH+dW50rI/pvJfy3ZjWz+MEStiBQMwAAMwAANdMlBn9NzFZBYmEhMSPNok0vTFUhY4FtfHmy/+s4BSGyqrTYIotqFr+pIyC5WSaInlc58SQPoXoZ2yWf1ps20lAfWLEr/4P4pQH6uv3O9128m2ypfabF/0na7HseY+7QPZ6U3t6K2zbY++VBnHTm1p8w81cr+Ks9pRjLPN6neqT8VXXyhnBtyH6qkti+ncjuyxfbqnY4/f9nlcuu9/2b7sp2ir+nAbmd84Zvev8o6N+2P/S9+37gvFr3Ubsa8fnogVsYIBGIABGICBYRioG8geFpMWRRZJQF7HRst+Kv2QpWV7sa1N5vaQ/2CvTfaIC3GBARiAARiAgaYZqDNuL4tJCWneINYx0cPEjm+le7AXG9tkby/5D/7a5I+4EBcYgAEYgAEYaJaBOsNYTNb5CdDxEwyMxwD5b7yYMk+JKQzAAAzAAAzAwAIM1DmRxWSdnxYICL+bGX6PGX/CXQsMkP/gsAUOsQEOYQAGYAAGYKA5BuoMYjFZ5ycAx08wMB4D5L/xYso8JaYwAAMwAAMwAAMLMFDnxL0sJvmd6ToeFgCPN/Arv4Hn98WXY3kv+Y95vRwz+BJfwgAMwAAMwMAuGKgb5HUWk/nPJrUOlL7NW3/GSX8iKdrqPwt1qW/5nvpW8aUFkmOk+HrTOPOfnor+aP3Y8fJ4tG/xS+Xyn+KKftUY9Ke/MouxzLnjud9kbhb0J8i++c1vXvnzYuf6Gv2+GBp9jIyv7lmIn/ATDMAADMAADMBAYKDOGXMXk3MX8sGgzRatp8SNxKVEtv7u8SXsnBLTS/ef/5ay2+9dTN9UiNoPa+5P8aY+lxDTakc/fKn5IVCer6e4WNMfLbc9N/+1PBZsq3vm4Sf8BAMwAAMwAAMwUMFAnZOmFpMlUVC6VmHMFbEqEaBF/dx61y1/SkBIkHz+858vvrW+bl9T9W4qps/5TbF54403jn49NWaVkSCVyJqy9VL39IMM2VTT31JCVH2pz7V+iKK29UMaxTuPq3YMivWUWNY98av21Y+OSzHNtpziIts5dT7V31S9Fu9N5b8W7cWmuucafsJPMAADMAADMAADN2SgzoFTi8m8ENcCPm4WxFrIe9NHSeOiPt7TR3IlYOKmNtWO29Kg1a8Fn9pSPYlEbRYQsd3Yp9p58ODBsc7z58+PbalsbN99WPDk/kttlK7JTvXhTWVKgtnjee211452lURStLHkZ7Udt9iG7YgfeVZ5+yqCZFscI9dV2/ZX9I985M1txnO3Pacd2WU/ua0YQ933Fq/L5lNvpqN/4jhkX/Sn7n39619388e96sp+86A6ts9+lk1iUPbYplN9uq3sO7Wbx+B+bJDatE/tB9vg69q7D9W373O5OG61r7b1T+26rVwmtlEan+zX+L1F5txmT3uNoyd7sbXuuYaf8BMMwAAMwAAMwMANGahz4NRiMi7YbUzpmu9p7wW7j+PC3eViGZfTNd9XH1FMa/FeasflY3s6zmJKdaNIyH3mMZXaKF1z/9pLZEhYaK++oshQ/6pv4ZRtUf1YRiJMNsX2daw29M/XLWxiX76ncnGzT7JvbbPqxXs6Vh3bWjqPMaptRzZbEMsfeayyO8Za5x6fxxvHFct67LLZ1+OYfF/7WMZjPyemLaJjOz6O7WVf2W6VieNXXdmp6zo+xYfK5L7VR7TXduR9Lhf9m32jc/WjfW4njk9jiPHOZXs6n8p/PY0DW+ued/gJP8EADMAADMAADFQyUOeo0mJSC+e8eTGfF+cyRov9uOn8lDBQeS3o9c8DyedxkZ/Fh+uU+nTbuudy2uvcgkXnti3abLF5qo0oQty27FQ9b24jisRov/uNtrgt2WifaK8tjyP6yW05Lm7H+5K9uhd9W4qzxxDLqV4WUHFcc9pRW45H9JOue0zRP7Hf2KfKx3/2mWNhAX7KD+oj+lfjjeI02xLj435P9Zl9p/Iqq39xDDpW/PKmcu5De9sSY53tjeXjcS6ntj3ueOw6jo3OdT9u9mmMiev1utf4erUdu6/mAPyBP2AABmAABmAABhZkoM6ZU4vJvBCXcflaXpD73AIgCiMPTmX079S5+jj11lN13EesHwVCbNvl47U8hlxGZWP5fF/nURSVzt2Gxm8RMuWTklhTXW22xW2qP/+zILMI9nWVtU98Tfvo22hbLONyUVxmARXHP6cdtW3BJn+oD9mk6yX/xH5jn9He3H88P+UHlYn+yUxkW2yz+4196Fo8jz52eccujiEeu1zc674EdI6tymR7Y714nMtFf8Rj1/E443h0L57LLt5M/3IO2nfs8QkMwAAMwAAMwAAMDMNA3UBuKqa1+NaiXOBYgFiklBbrKqfrruNz1/G538KVFu7n+oxtu73Yfqyv+/oXBVC2z23EdmN53ZfYiKLHdkt06J7K2D8+1zX/K9nkdm17yS7Xd9u2UXvXcxnto90WayV7sgjzeLRXO9r749pz2lFd2aU+ZXMU07qX7da5fxgR+1RZ/8t11L7rxPG6vPbqP/onl9O54mnf2Ga3ca7PWDf6J49B7UY73L769RzwtbjP9sd78TjHMdpdGrP61PVYTu3JRvtUY9Cx9rGvHo+n8l+P48HmX+YFfIEvYAAGYAAGYAAGbsBAnfPmLibz4txCQe1IQOjLvywOLPB0T5sX42pDZbVJFMQ2dE1fUubFemnhHsvnPiUC9C86LtqsuhaBsYxtlT2lNk5dk73aJAqzMJQfoiByH7+o8Yv/fV9l1Ucuo/HJftma/Rbtz8dqK28am9rwW//cpsrHGGk8skflchyyH6NtU+2oLY1VtujYdtoPvm/b4/Xcp8rqX/aZGIy2uw+1aX+qLbWtTfdzv/KD2rCd0eZzfcoXYlh1vLmPPIZsu+3z2E7tzYvu2/e2NdbRvewL1XUZ1Ymb28h2ZZ96bObF7fW219h7sxl7655t+Ak/wQAMwAAMwAAM3ICBOuftYTFpYWChcAOnzlp4S0BF4XKpfumnjv1e/SRB7h829TqGVuzeQ/5rxdfYMXZeIr7EFwZgAAZgYDAG6gK6l8WkhPQl36LpjaDefGo/GFiM57/fiG8V1/hWeisbRul3L/lvlHgxjrrnOn7CTzAAAzAAAzBwYwbqGmAxWeenWiD9Flx+9Ud7a+tSbtlY4E/8eY4B8h+MnGOE+zACAzAAAzAAA7tkoG7QLCbr/MQkwk8wMB4D5L/xYso8JaYwAAMwAAMwAAMLMFDnRBaTdX5aICB8PHrjj0cTQ1jPDJD/YCIzwTlMwAAMwAAMwAAMvGCgzgksJuv8VOtPyuFPGOiHAfJfP7FiXhErGIABGIABGICBCzJQ52wWk3V+umDgeINd+YMgYgK7N2WA/AdDN2WI+jAEAzAAAzAAA0MyUDcoFpN1fmKS4CcYGI8B8t94MWWeElMYgAEYgAEYgIEFGKhzIovJOj8tEBDeOPPGGQYaY4D8R/4jt8MADMAADMAADMBAgYE6p7CYrPNTwcEIo8aEETGC5bkMkP9gZi4zlIcZGIABGIABGNgFA3WDZDFZ5ycmDX6CgfEYIP+NF1PmKTGFARiAARiAARhYgIE6J7KYrPPTAgHhTTZvsmGgMQbIf+Q/cjsMwAAMwAAMwAAMFBiocwqLyTo/FRyMMGpMGBEjWJ7LAPkPZuYyQ3mYgQEYgAEYgIFdMFA3SBaTdX5i0uAnGBiPAfLfeDFlnhJTGIABGIABGICBBRiocyKLyTo/LRAQ3mTzJhsGGmOA/Ef+I7fDAAzAAAzAAAzAQIGBOqewmKzzU8HBCKPGhBExguW5DJD/YGYuM5SHGRiAARiAARjYBQN1g2QxWecnJg1+goHxGCD/jRdT5ikxhQEYgAEYgAEYWICBOieymKzz0wIB4U02b7JhoDEGyH/kP3I7DMAADMAADMAADBQYqHMKi8k6PxUcjDBqTBgRI1ieywD5D2bmMkN5mIEBGIABGICBXTBQN0gWk3V+YtLgJxgYjwHy33gxZZ4SUxiAARiAARiAgQUYqHMii8k6Py0QEN5k8yYbBhpjgPxH/iO3wwAMwAAMwAAMwECBgTqnsJis81PBwQijxoQRMYLluQyQ/2BmLjOUhxkYgAEYgAEY2AUDdYNkMVnnJyYNfoKB8Rgg/40XU+YpMYUBGIABGIABGFiAgTonspis89MCAeFNNm+yYaAxBsh/5D9yOwzAAAzAAAzAAAwUGKhzCovJOj8VHIwwakwYESNYnssA+Q9m5jJDeZiBARiAARiAgV0wUDdIFpN1fmLS4CcYGI8B8t94MWWeElMYgAEYgAEYgIEFGKhzIovJOj8tEBDeZPMmGwYaY4D8R/4jt8MADMAADMAADMBAgYE6p7CYrPNTwcEIo8aEETGC5bkMkP9gZi4zlIcZGIABGIABGNgFA3WD1GKSDQ/gATywVw/wQKx7VuAn/AQDMAADMAADMLAjBgj2joLd3FtyCTP8zxyEARiAARiAARiAARiAARjokAGC1mHQhhGgiGnmH/MPBmAABmAABmAABmAABjplgMB1GrghBDVimvnH/IMBGIABGIABGIABGICBThkgcJ0GDjHNF5sNwQDzjxwMAzAAAzAAAzAAAzDQKQMErtPADSGkeDPN/GP+wQAMwAAMwAAMwAAMwECnDBC4TgOHmObN9BAMMP/IwTAAAzAAAzAAAzAAA50yQOA6DdwQQoo308w/5h8MwAAMwAAMwAAMwAAMdMoAges0cIhp3kwPwQDzjxwMAzAAAzAAAzAAAzDQKQMErtPADSGkeDPN/GP+wQAMwAAMwAAMwAAMwECnDBC4TgOHmObN9BAMMP/IwTAAAzAAAzAAAzAAA50yQOA6DdwQQoo308w/5h8MwAAMwAAMwAAMwAAMdMoAges0cIhp3kwPwQDzjxwMAzAAAzAAAzAAAzDQKQMErtPADSGkeDPN/GP+wQAMwAAMwAAMwAAMwECnDBC4TgOHmObN9BAMMP/IwTAAAzAAAzAAAzAAA50yQOA6DdwQQoo308w/5h8MwAAMwAAMwAAMwAAMdMoAges0cIhp3kwPwQDzjxwMAzAAAzAAAzAAAzDQKQMErtPADSGkeDPN/GP+wQAMwAAMwAAMwAAMwECnDBC4TgOHmObN9BAMMP/IwTAAAzAAAzAAAzAAA50yQOA6DdwQQoo308w/5h8MwAAMwAAMwAAMwAAMdMoAges0cIhp3kwPwQDzjxwMAzAAAzAAAzAAAzDQKQMErtPADSGkeDPN/GP+wQAMwAAMwAAMwAAMwECnDBC4TgOHmObN9BAMMP/IwTAAAzAAAzAAAzAAA50yQOA6DdwQQoo308w/5h8MwAAMwAAMwAAMwAAMdMoAges0cIhp3kwPwQDzjxwMAzAAAzAAAzAAAzDQKQMErtPADSGkeDPN/GP+wQAMwAAMwAAMwAAMwECnDBC4TgOHmObN9BAMMP/IwTAAAzAAAzAAAzAAA50yQOA6DdwQQoo308w/5h8MwAAMwAAMwAAMwAAMdMoAges0cIhp3kwPwQDzjxwMAzAAAzAAAzAAAzDQKQMErtPADSGkeDPN/GP+wQAMwAAMwAAMwAAMwECnDBC4TgOHmObN9BAMMP/IwTAAAzAAAzAAAzAAA50yQOA6DdwQQoo308w/5h8MwAAMwAAMwAAMwAAMdMoAges0cIhp3kwPwQDzjxwMAzAAAzAAAzAAAzDQKQMErtPADSGkeDPN/GP+wQAMwAAMwAAMwAAMwECnDBC4TgOHmObN9BAMMP/IwTAAAzAAAzAAAzAAA50yQOA6DdwQQoo308w/5h8MwAAMwAAMwAAMwAAMdMoAges0cIhp3kwPwQDzjxwMAzAAAzAAAzAAAzDQKQMErtPADSGkeDPN/GP+wQAMwAAMwAAMwAAMwECnDBC4TgOHmObN9BAMMP/IwTAAAzAAAzAAAzAAA50yQOA6DdwQQoo308w/5h8MwAAMwAAMwAAMwAAMdMoAges0cIhp3kwPwQDzjxwMAzAAAzAAAzAAAzDQKQMErtPADSGkeDPN/GP+wQAMwAAMwAAMwAAMwECnDBC4TgOHmObN9BAMMP/IwTAAAzAAAzAAAzAAA50yQOA6DdwQQoo308w/5h8MwAAMwAAMwAAMwAAMdMoAges0cLsQ0z4/WBAAACAASURBVLdv3z48ffr0cPfu3SHGC2vkGxiAARiAARiAARiAARgYhoFhBoLY6vBjz7yZZv7xMIEBGIABGIABGIABGICBThkgcJ0GbogfHswV0/fu3Tvcv39/iLHDHbkHBmAABmAABmAABmAABrpmoGvjEVUdvo2OCeOcmI4f85aIjpuEtdp69OjRy8s6dvs6fvDgweH58+fH+8+ePTuoTjxX+yqv63FDsJMXzBF7WIABGIABGIABGIABGDjBAI454ZiXooz76zEiATvl3yimVU4iNwrdfC4B7fs6fvLkyeHWrVvHPkrnKqv7jx8/5veyO//BzBRH3FtvDuNbfAsDMAADMAADMLBjBgj+joM/KWQv4ZcspuMbYgndKTEtESyxnDeJZtkehbXOs/DWucvqWJvPLzF2+iD3wAAMwAAMwAAMwAAMwEDXDHRt/OZiEPhvxo8E7JQPa8S0P+6d25EwjvemxLTrWsyrrK+xv1mM8R/+gwEYgAEYgAEYgAEYGJQBAjtoYLsQgzcR04qbRG/8KHeM5XXEtOpLUPOGmrwQWeIYHmAABmAABmAABmAABgoM4JSCU7oQoiPYPVdM6+9N+wvE/NZZwjdu8bqP5atTb6bzx8XVPn/XmrwwwvxiDHAMAzAAAzAAAzAAA6sysGrjiNIXIg6AT/vgnJjGd6d9h2/wDQzAAAzAAAzAAAzAAAxsysCmnSM0dy62EdPMPx4AMAADMAADMAADMAADMNApAwSu08AN8YMIxDTzj/kHAzAAAzAAAzAAAzAAA50yQOA6DRxieudv9eGW3AUDMAADMAADMAADMAADmzKwaedDCEIAvj5DvJm+vu/gDt/BAAzAAAzAAAzAAAzAwKYMbNo5Ynrnb1cR08w/HgAwAAMwAAMwAAMwAAMw0CkDBK7TwA3xgwjENPOP+QcDMAADMAADMAADMAADnTJA4DoNHGJ652/14ZbcBQMwAAMwAAMwAAMwAAObMrBp50MIQgC+PkO8mb6+7+AO38EADMAADMAADMAADMDApgxs2jlieudvVxHTzD8eADAAAzAAAzAAAzAAAzDQKQMErtPADfGDCMQ084/5BwMwAAMwAAMwAAMwAAOdMkDgOg0cYnrnb/XhltwFAzAAAzAAAzAAAzAAA5sysGnnQwhCAL4+Q6feTN+6devw+PHjw927d2GEHxrAAAzAAAzAAAzAAAzAAAy0yMD1hRAiEt/dlIGSmL59+/bh2bNnh+fPnyOmSZotJk1sgksYgAEYgAEYgAEYgAExgCDEB9sxkMW030h/5jOf4c00c5OHFAzAAAzAAAzAAAzAAAy0zMB2QgoRi++zmDYTFtU1H/PWm+wnT54cHj58qOaOm87VhttjD2swAAMwAAMwAAMwAAMwAAMLM4BDF3YoAm7GT8+kfEv+nyum9bHw+/fvH9tSXYnpe/fuFdsu9cc18gAMwAAMwAAMwAAMwAAMwMBMBnDYTIch0GaI5XO+XUpMP3369MrvV0tYW1yfs4H75AAYgAEYgAEYgAEYgAEYgIFrMIDTruE0BPVCgnopMa030fq4t2OJmGZemwX2sAADMAADMAADMAADMLASAzh2Jce+FHa0f5oxxPRp38ANvoEBGIABGIABGIABGICBphlo2jgE6UJvgFudhHPE9KNHj46/C63fidbvQ/tPZ/kLyHgzzVxulXPsgk0YgAEYgAEYgAEYGJKBIQeFCO9EhJ8S0yQb5iUMwAAMwAAMwAAMwAAMwEDjDBCgxgM09A8GENPMP+YfDMAADMAADMAADMAADHTKAIHrNHBDiGzENPOP+QcDMAADMAADMAADMAADnTJA4DoNHGK6k4+ywxc5BgZgAAZgAAZgAAZgAAaGZGDIQQ0hNEeZcHfu3Dm85z3vKcak9Gb63e9+90F13vGOdxTrjOIXxkHugQEYgAEYgAEYgAEYgIGuGejaeMRWB29nP/7xjx+++MUvFmNVEtOvv/764ROf+ESxPMmG+QoDMAADMAADMAADMAADMNAIAwSikUAMLR6/9rWvHT784Q+/MsYspt/3vvcdnj59enjnO9/5SlnixFyFARiAARiAARiAARiAARhoiAGC0VAwhhWQ73//+48i+V3veteVMWYx/YUvfOHwkY985EoZ4sMchQEYgAEYgAEYgAEYgAEYaJABgtJgUIYUk5/61KcOn/vc566MLYrpD3zgA4dvfetbV+4TG+YnDMAADMAADMAADMAADMBAowwQmEYDM5yofPvb3374zne+c/jgBz/4cmxRTH/1q189fOhDH3p5j7gwN2EABmAABmAABmAABmAABhpmgOA0HJzhhKWEtAS1hLX8bjEtES0xTSyYjzAAAzAAAzAAAzAAAzAAA50wQKA6CdQwQlMf9f7kJz95RUzr4936mDexYD7CAAzAAAzAAAzAAAzAAAx0wgCB6iRQwwhNfQmZvrFbX0qmTV84pi8eIw7MRRiAARiAARiAARiAARiAgY4YIFgdBWsYwak/k6U/l6VNwlp/Eos4MBdhAAZgAAZgAAZgAAZgAAY6YoBgdRSsoQTnF7/4xaOYfv3114caFzyRU2AABmAABmAABmAABmBgFwzsYpCItRdf9tXahP6t3/qtw/e///3Du9/97uZsa81X2NMev8SEmMAADMAADMAADMDA7hkYwwHHV5z8hwfwQHMe4CEzRo4ljsQRBmAABmAABmAABl5h4JULXb4llIIguGPEkjiOE0fm5TixZF4SSxiAARiAARiAARh4hYFXLnQpSlm0jxFHJuhYcWRejhVP5ifxhAEYgAEYgAEYgIErDFw56VJIK6As2seII5NzrDgyL8eKJ/OTeMIADMAADMAADMDAFQaunCCmG/yiLoAdg9E9xhExDbt75J4xwz0MwAAMwAAM7IaBMQbKon2MOJJ4xooj83KseDI/iScMwAAMwAAMwAAMXGHgyglvpnkz3S0DTOz25jJiur2YME+ICQzAAAzAAAzAAAwsxsBiDW0qwli0jxFHJvZYcWRejhVP5ifxhAEYgAEYgAEYgIErDFw52VQQ3yQwLNrbjOOjR48UmuN27969bvm6CZt7rqvA73n8jL3NvERciAsMwAAMwAAMwMBCDIzhSBbt7cZRghoh3W58FkokRdHMvNxn3NdkirZhCgZgAAZgAAZgoCEGxggGi/Z24xjF9K1btw46v337dlF8NTQxsG+B7w9gXrY1LxUPNjwwxwPk5LbmMPEgHjAAAzDQHAPNGXQtEaPFAXC1GUuLaQnoZ8+evVzHPXny5CBxrX869nb//v1jLFVe1x8+fOhbRyGu+97UNnFvM+6Kizbi0058iEc7sehhXsALvPTAKTbCKQzAwMYMjBEAHvrtxtFiWqBbIMc30/G+hbU+Fm7xHcW1xHg8f/r06eHu3bsItgXeIq+RiJiXbc1L4tFWPNaYc0u2CS/wsiRPtAVPMAADgzIwRmB56LcbxyiWs5i2YFb84ibBrHtRLEtoP378+KV4jsJ70MnZ/Q8JFFNi087cJB7txKKHeQEv8NIDp9gIpzAAAxszMEYAeOi3G8dzYjoK5jgZsvBGTLcb4xi3eMy8bCtmxKOteMS50uIxvMBLi1xiE1zCAAw0xsAYAeGh324cp8S0JoPu61+eGIjpdmOaY3XqnHnZVgyJR1vxODVvWrkOL/DSCovYAYswAAMNMzBGcHjotxlHiWRv/vNYvnbqC8ieP39+/Cg3YrrNmM5JZszLtmJIPNqKx5y5tEVZeIGXLbijT7iDARjojIExAsZDf4w4djZ5Xnmbjv1XOWReXvXH1nwQj7bisTUP5/qHF3g5x0iP9/OvjPU4BmxmbsJAUww0Zcy1xQkP/THiSHIYK47My7biOUI89AkXfau/PrkS84U+8eJPv8TrHF+fwRF4If7Xj/+ovkNMw8SobDOuzdjerOMrC6GbAsBDf4w43pQD6rfFAfOSeCw9J/V35/Wt/lk4I6aXZ435u7xPl54PtDc/RkuIaf1JTuUi/D/f//gMnw3IwBhB5aE/RhwHnGC7ftgyL9ual73Hw9+jICEtQa1FsXPGdcT0WgtiLbLVtm3rdd87L736Hbt/8cWkDx48OOg7VLTFT6Nobmn+6742/SlN+czfx6JrsbzuqYw3/QURfWeL52jOHcov/k4X1dW5N9nz9a9/3afHvfuP5XRD56qvPKX2vGXbVIZ/+AAGumaga+NfJiAlKUAcI5bEcZw4Mi/bimXv8dCiVf9Kb5a0ID61+JYI1wLWmxa2f/mXf+nT417tlhbpua76cY7Ki+Q333xzqEWzHOOxsm9rLo8eD82zKGg1P32ueSpRq2v2g47j3MzlJaD9qyESuf6iU9VXPQtfnes49hXruj+Vif3JplhO58o52ueyboM9cwoGhmFgjIFcWRVxggfwwOYeuHPnztEGHhbt5FgFpId4eGEcF6hZQKuM/nk8U4vvXNZ18iJX/eVFustqn21Qn9GGUplYR2XjAjy23eJxL7y06Dtsqs978QdWFrF5bqmM7mkf84L87B9qaT7b77F8nndxTqq8+op1dWw7cl23n3NHqZzb9fiigHc77Os5wVf4qmEGxggOD/0x4tjwRHn5kMbGetaYl/W+ug5Xf/zHf3z4+Mc/Xs1mD/HwojQvmC10NQZvXvDKd+cW31rI5o9X5gVx7lPteiHsPrVXPV3XmyjVibHLC3Xdi4t9jy/WafVYY62xTQzqh2c1ZSmzbk4Yxb/n5nP8NY84vzz+lsS0bbKdOQ/5PnvmBgx0y0C3hl95cNc+9AF1jHgTxz7iyLxcN07vfe97D1/84hcPX/va1w7vf//7r+TE0hxpPR5ebHohHRedEqH653GprBbUFrOu4/txMR2vqU2L8JKYnlqk277rimmPIY7LtrW4P8eLmBN7YvA973nPy9i0OBZsWjcXLe1fzWfPU7WtueNzzfk4T31fdWxHLK/5Guec6uv8VO6IfatM/Pi22y/ljlgu9+F6OW/5Ovu++CRexCsxMIZDzj3006BfJlyujxF/4thmHJmXl4nLhz/84eOC75Of/OTh7W9/+8n81ks8tBDWgtYL2c9+9rPFt8Aup/kfF8A6j4vpmB+iyC4tiOMiPb99lj16w6167lP9xPbzYjmeR3tjnVaPT/Eixj71qU8dYyL2WrUfuy6Tf9bws+bzqe9A0DyM89T9q463KJ51X3PPm0SvhLna0T3Pa99Xv7H9WNcf1VZuUB/anAOUF+LmPJGvy07bzL5fRokdsQsMjOEMJbAwKI5fPCDwBz7YmgHm5eUYfNe73nX43Oc+d/jOd75z+OAHP1ic/73GQ4tRv5WKTGsR7LdB+gbtN9544yh2Nc64mI6LYd3z4jcviEuL9LgQlg1aZHuRHOurXS+S3V+0Idrdy7HGlG0VW2JMrIm5fJ/zy835kX2tueR5NvI4GRvzBQaGYGCIQeiZz0MdAQ0DjTHAvLx8fp0SO8Tj8vHoeaEUean5YU3PY8X2tuYGYrqteDA/iAcMTDIwebMbcRIf+lsGXA8Av/XIdpTeeuQypfPaeurXb0ZK7XBtDNZ7imMr87Inny1h66mP4RIPcsAcvsxL7a8RzGmbsrA4xQBiGj6m+OAefDTGwBgB8UO/Mede+WFErSjOY7huvdwO52Ow3lMce5iXPflzrq3xC6J+8zd/U+G4kpPmtkf5feUQ8TLnC+7gY198EG/iDQMwAANHBsYAYatFon5PT2K3BqbriuJcb06fp+xaoo1TbXN9jDm1RBw1L72d+tM5/nvULuc95X/B0VL++f73v3907RJxpY19zHEB873vfe/IDf/hATxw1QNf+tKXqtZ+5Mt95EvivOs4jzF4pbgakCVM9W2M3vwFF/pIkbf4pTH66LSEp7+1UWVUx38iJdeJH/POZfTFNfEbIk/1OVXPX3hT+ih5/Ji3Bbj686b+cttxrDX+o8wY8+VScRR7l+qLfl5l8yMf+cjxC7pef/31w7vf/e5jKsBPr/oJn5R9ImDEjr7kTSzhp7Kf8Ms+/aL5Qez3GXviTtwTA2M4pCapSYhqUSChmZxw5Vyi1GJV+yg4JaT9rbISphKrsb0opqO4VX+657q5/9ynyrrMVD2X0T725x8a+IcFcewlu2M7HI8xJ1qIY828bMHO0Wz40Ic+dPjWt751+MIXvnB43/ve9zKXEA/m9hzWzYsYEktiSmzNaYOyMDcqA54fo46PcTF3YaCageqCTT9AS0lNQtKbhGYUwhkQCda4WcxGgao6EqUSxNqXRKnqqY7fAFvMqq7fFuuezkt91tTLtvs82qq+/CdjfF/9yZ6S3S7Dfoz50EocNadasWUPdnzgAx84fPWrXz3+03Ee81LxcJ6KOVP5R/1p7+Pcf2vn8RmhscQfnLZg61Sunrq3lO2Zl3N8LdUv7fAc6oGBPD96sBkbmVswsAoDqzT6yiJu7eDVJLVTYjqKUNkZz/PCcCkxHfuIfXqROiXCT/kytpmFu+ogpsdg/VT8W7xeMy9btLs3m2rfHC4Vj5gHs6+cZ/L1Fs9zfm/Nxik/T91bahyneDn1yYeafi/xQ4AaOyjD8/CmDJyaHzdtl/qwCQPdMdCdwUWhXpPUtPgofcxbiz8tqgSvxayu6TwvtuICprQoiG3p2O24LX/MO5bLfU7Vm5pgiOkxWJ6KcW/3auZlb2NqyV79HvSc32ldKh6lH9bJL6dy7CV9Jtv0PRc1fSrXxh9c1tQplVHuXaKd3PapHwCr3NS93M51z8/xkn8n/1w/4kNv//W9JYrTufLc55nWMgPn5kfLtmMbcwsGFmVg0cY2ezjWJjUtQOKmcz/gdV0P+QcPHrwUwVNiWiDqvjZ/PLAkko8FXvwXv4Bsqk+L66l66jdPBF1T/7peWuzGhWO2O7fF+RjzYus4iuGtbRi5f33T9yc+8YnDO9/5zio/LxUP5U3nmujfnHecZ9Svc5Zyn+oqz2pT7vzoRz96/PUZnfsHjmo35knnWF1XW2+88caxbqwT+7Ngi22orGxXG6UfhnossR31I3tVPudmiXbZ603Hr7322stfBfIYdF125LHbllP96bqeG+5De9lgH+i+x+IyHrfHcpO9xnWuvtgTg6e+fd/17e/PfOYzr3zXiMuw57nTEwM186On8WAr8w8Grs3AtSuefcheMigktTHieElm6Gt9ZpiX6/r4He94x6w8vFQ8JC7jZlEXRbauWQBLZPs7HFRGm+uoLQtAiU1/esgiOJbTsQWt2451fM8i1W34XHvXk03q15uvxzJuz2JaglXHMXfEsel6/oGC2rMI1rE2j0nlT/Wne9E3tkXlfU/Hvm671LaPVe4m/2Rrbf1aFmVv/uLOU30ofvKdfmjhzb48VYfrN4s5/qv335z5gV/r/Yqv8FWHDIwRNJLaGHHscAJVLzb3ODbmZVvzcol4WLxZ1EWuJeKi4HUZXbMIimIvt2XxpL3quk4UxTq24FbfUczG+rqnNqKwjPfzPZXP9uia6qtsFsm6V+ojjk/3da5/Po72TPUXx+y+bEv0QRy/23N/rnfd/RK85L5l4xwxrR9yeDwen+KR2+W8rVyzh3isMT/24DfGyFwdkIExgkpSGyOOA06wXS/6mJdtzcsl4hGFXJyvUehYCKo/bRaQsYzqqpwEs/Y6l0iygJaA8uY317mMz91+Frxqw0LMZWP78Z7uZ3t0buFeEt+qk/uw4NW9ON54rHvn+osi2WVtS7wnu+K2pNBUu7Z1qb38MEdMe8zuP/vb19m3lWv2EI815sce/MYYmasDMjBGUElqY8RxwAm2+GK0Jx8xL9ual0vEIwtW8xiFaDz2fe2jONV5bisKpXgc29B1i2ddj+Xise+5bBazUfS6/Wify1t8R6Hv8lkYuo4Frfrwx8dLPjnXn+uqP7Xlsaj90rHtWmq/BC/ZluyzfD+el3yWYxzLc9xWvhk9HmvMj9F9xviYo4MyMEZgSWpjxHHQSbZbQc28bGteLhEPCbm4WfBlYRzL+c1yLpOFkQSihaiFqfuyeMxl4ltO92mbchvqTzlmStCpfW2yWV8+Fr8Z3Pd0P9oTz9WHt/jlZXnsznVuM/endkpfsqZ6Jb+5T4t/t3+Tvdq8Sf1S3Snf5/KI6bbyR47P3s/XmB979ynjZ853ysAYgfNCgj0ewANteEDf7qut08Q4pN3EY4zn3aXm1Bq8lMS0fqDgHwLoByL+4QtiGl4vxfp1+lljflzHDuowT2BgcwY2N2CRRStJbYw4khDGiiPzsq14Eo+24tF6voMXeGmd0S3tY34wP7bkj76b4q8pY64trElqY8SR5DBWHJmXbcWTeLQVj9bzHbzAS+uMbmkf84P5sSV/9N0Uf00Zg5h+8ftwTBB8MAoDLDbaYpl4tBWP1uc5vMBL64xuaR/zg/mxJX/03RR/TRlzbSFJUhsjjiSHseLIvGwrnsSjrXi0nu/gBV5aZ3RL+5gfzI8t+aPvpvhryhjE9Jk30/pyFn9RCxOpf3b1xTv+huER48lioy1GFQ82PFDjAb5AsK25O+LzofcxaR71PgbsZ57DwCIMLNLI5gnlOknNf8LEf0aldaDyt6Dqm05le9wstDU2/+mW1seV7XNc4rj853Jy2S3P5d9TdunP4Dx9+vT4d3WnbCx9W+1UeftGcf/mN7/ZfIyvMy+nxs+9m+Vr4nEz/+2NP3iBl70xP2e8zA/mxxxeKDs0L2MMbm5SmytiWpgE+e+UagwSbLqe7etdTPfwg4AlxLTiNtVOjGtmtocYz52XcbwcL5+bicfyPh2ZU3iBl5H5vunYmB/Mj5syRP1hGBpjIFNJLYtQwVu6NhdqvZWUoJlb77rls3jqRUzrjboEo+ytGXseZ02dU2UePnxY/GHDqfJzrk+JYPFV82Za/YkjtaXjKV9lZpfw01R/c3xxquzUvDxVh+vr5WTisZ5vR+S2lpd//clPVJQND0x64PnPfnbQrw+MMlc02FHGwjh4NsDAjRi4UeVmEslUUssiROIlbhbEEjTe8ke/4z19lFoiLW4W1m5LUEZB5beKb7zxxrGaxVNsN/apdh48eHD8/ejnz58f21LZ2P4cMR37cd+yUcfqR31okw0aSzyPIri2HdusumrTmz+GLt+4D92L49JxtNETPLcVy0gUqm1vb7755pVz+1Z1ND63qeNo0+PHj4/+sE1Tfaqt7Dv7KsZefakfb7bFNkQ+7ZdoY65v27KfYh8qE9tQWW/nYmO7ltirzyXaoY1l8jTxWMaPe+GxlheV+/9++7f5hw8mGRAn2kYR1BrLXnIB4+TZAQOTDEze7CZRTCW1KFYMQ+ma72kv8aF/Po7CzeViGZdzHZ2rD7+dtCgrtVNqT+1Y9Ph+FoJuU2P35vZVPx5Hu3Td5zq2mFQ/pXOX1d7HLuvzXE/XdU3lZKf6sNDUPn483eOw+FPduGU/qE2JZwlf+TjbovNSGZdzPzrXscevttSXx+R2vC/16boqo3o+j7HXsWxV/dynzvN995f3uVz0cezPbUq063puR2M+FZtc9qbniuNN26D+cjmaeCznyz1wWcuLyiGm+WHCOQbEyf95/XXthhDUGsce8gBj5LkBA2cZOFugi2RRSmoSDXnzW8EsTASKBEbcdO43nlGAGSqJmSi88nkUOFlAuo1Sn7oXhVIsG+041Wasb/vjuHRsMaX91Bhsx9x2on9lZxTTGoNFp8cWfec+fc97i+44FrV1yg+yOQputaPxRh9GW2K8zvXptqLv4jhjWyqTN3OodqKv3G9pn8tFP8Vj141jzTbY/9Fm11tyr3Ev2R5t3SxftxSPtdkzK6XcFXOAy53al+bWqbKjXa/lReXOCSnuI7bNySiCunZ+jJYXGM/NnsP4b0j/jTGoqaSWRYhAztfygsnnXoiVFl8qo3+eGPlcfcQ301FQqo77iPUtcnNbLh/7OyUiXVZtTdmvclFwuV7swzbObSf6Ny+ao4BVn7lf9+l72uf+4/kpP6jMXDEd3yDHPko2yHfRV3GcMfal8cSxRV/F6/k4l4vtxmPXc2yzv+N5tNn1ltxPzcsl+6GtujzeUjzWZs9M5Hnq6+zPM1PLi8ohlhHL5xiInIwgqGvnB7nmfK7BR/iocwbGCOBUUssiRAHL1+KCyyJK11S2JFR8XfcMQC6nc7+BLC0cz/UZ23Z/tknnajN+XNp25LJqx28iYxkdq734gwKVjf3q2H3OaSf6N489261z+cl2xD5tb66j9vWRbNeJvnSdU2I6jk/17Jtos9qo6dN1VT76R235Byk61vi0t21xrzHYx/F6Ps72RT/F/lQv9hnL6V4cs8aYf8iT+73J+dS8vEm71L1e3m4pHkuzV/qyQedy54nMja7HfJDv7/28lheVOyekuI/Yzpz0Lqhr58fe8wjjv97zGr915beujC2KEQE3N6llYaKFnQSPNok0fbGUBY4XZMebL/6zgFIbKqtNi7LYhq5pcWehUlo4xvK5Ty3w8iJvymb1p822lQTUL0r84n8vLjVGH8uPud/rtpNtVT/abF/0na7HseY+nVBkpze1o7fItj36UmUcO7WlzT/UyP0qzn4bnW1Wv1N9Kr76Qjkz4D5UT21ZTOd2ZI/t0z0de/y2z+PSff/L9mU/RVvVh9vI/MYxu3+Vd2zc3xJ7tbtEO7TxSw5u4ouaeDhXxS9ZzGx4Pqu9zL3mk/55M6fxXGMo9ZPnheaX2ncfmWXPG89/n0cf6Zrr5+u2SXvNF5XV/NB4Na8153TNdulYflF73jzP1HacgyqjsvF+7L+HY42xxk6VQywjls8xUOKkZ0Gt8dTMD8os8/zCj/ixYQbGCM4ekpoXkj0vzhqeCJs8FC0otB/RN3uYlz3FrSYeWZjmvBPFpcauc4vt/MOg0rl/yHSqH7WndiVgswjWNee/bNdUHKLIdX3b7v58bhHt9uJ4dRxtUlseu8YTPymUx+72etrX8KLxaDsnpLiP2D7F9OmriwAAIABJREFUSa+CWuPpaT5j6xh6hzg2GccmjZqdoPaS1OLijQnVP7sSB3ExP1pM9zIve4lbKR5RaIrFLAo1Nl3Xv5KAVXkJSu0lIC2WVS/e87kFZ6kf2eK3wHluqHx8I6yxaJszf7LA9bgcP527/9K1fD+Or5Sb1Zauu63e9vJvjc0ql8Xyn/3BHxz+5Yc/PPzTi08pxHv/63/8j+N17eN1jscX2yVOHPceBbXGUzM/KNP/Wo0YEsMzDIzhIJLaGHE8AysPrhcCpScfMS/bildNPKJANGsWnTVi2r82obq5LZ3PEdNRiMa6tus6e49FdeNx6dzXLLBz+Tg+xPRVMWgxLeb+9i/+4qVwRkxf9ZPF5B72YmFqnL0Jao3nOjmIOm09F4kH8ViAgTGcSFIbI44LAM3DrSHBzbxsa17WxCMKRM/HKCJ1bHGp+zr3R5315neOmNabZtVXOxbqPi+91dW12Lftq927D4t09eX+PJZ47mvuM5ePvtLYNR7tVU/3dO6+am1sqVwNL7JXWxZJEtM/+sEPDn//jW8c/v3f/u3gN9FzxPSX/uf/PPzDt7/9Stu5L877EOglTnLsehLUGk9L8xVb2nreEo9dxWOMwZLUxogjyWesODIv24pnTTyiQPR8zCJS4tKbBKPqqOxcMa129IVf3ixa1ZaOsxC1GHZ5/36zhWsWwrm86sUystdfIKi+8jhlh67Zrnw/+0pteJNf9EOGPAb7tIe9xlJjp8plUWQxLUGsj3o//r//91gmi2nd//lbb6mJ4+Zyepsdt9L1KNJz/5y3J7AVz5q49CKoNZ6a+UGZtp6DxIN4rMDAGE4lqbUTRy0e/aZqBWBfeXh5wdzzovUSftqiD+ZlO/NS8Scel41H6QcCW8zD6/ZZy4vKZZEUxbQE9E9//OODhHMU0/G66utcAtkfC9c+/s616uttt9pWed3X72X7PNvAeVuC+vt/+7dCpXp7/rOfvfK8vy7La9TTQNZolzYvm6fxN/5egIExnLh2UtOiyG804vECAXiZjNV+3OIbnyX60VsU/75iqb3rLvxiPQlbfczTH3VUP/Htz9e//vUrX1BUsuM61/IbsXNtyGZtEv1vvvnmy9ieq8f9eflCPsZn83y2pr+Ix+VioZykHB5z4ZqxXaPtWl5ULgvXKKZ1T2+WJXz/6tOffvkFZCUxrHLxLXQU07qeN95OtyWYMwc3OVes1+B6qTZbt2+pcdLO5Z4b+LpbX3dr+JUku3ZSW0tAe+JISC8tnt127T6K4to6KhfrlURtvh+/7XdOP1NlSyL+VPls49qxPWXHHq6vPS/34MMlx0g81nve+RMy8rE3/wB2yRhesi2No6Y/lcuiKYtpnUtMf+crX7mRmI7iOvfJ+VjCupa/GkbXKNO6fWuMmTbXe4bg265927XxLx/0aye1NQXXWm8w1O7Dhw9f+ujcRI2i91zZeD/W0+JR576fRa5sWkJMa1xqy/1or769eJ0auz4OHm3UsevF9uYcT/U3p53Ryq49L0fz19rjIR5jPO/W5sTt1/KiclnIZjGt+/79aL9Nvs7HvFVX7eT+OB9LSCuetfyZ10vvW7fv0v6gP54vO2ZgjODXJjWJJm/+8hoFX2JIH0/WP29RYEXBFY9VV+fe/LvCas9fbKN7bsv9+Et3dP3c7xj7y3Xch/ozsDpWW+7LY1KbcVM/+WPesUz+spxT9qvfqXrRN9lu+ebP//zPr4jpqX5K9/Lbn/g2X3bZNxpvvGd/6XrcXEfXXUZteMttlO5Ff6hebMtt7nUvf+x17C2Om3iM8by7FFu1vKhcFrMlMa0yerNsMa1zC2y1oc0f8dY9/w51vK6PhsfNb6q19+9Pq4y+1AzR3bfAVpwvxfp1+mndvuuMiTo8I2DgWgxcq1JzCe46Sc1CSuBYuOmazi0EfR5FYjyWcNL5FHxqS0JSe/cTBVdNG24/v+lV3xbwKhPbiuPzmPw707LFx7pnuzxe9+d6tv9cPdkT28j2qh+/mc5t6VziNda3HbpnG3KbLpPH6+t5n8tNxVP+jP6Nbeme/ulabjOW2/Pxdeblnv219tiJxxjPu7U5cfu1vKhcFtOc9y1kW4hfLX/m9dL71u27tD/oj+fLjhkYI/ilpCaB482iR/u4WShFkWcYoliKgsvHfkuqflzHe4tT9+U3xqV+VN92uH7cW2S6Le3dp21xebXvv/OqMrrve1G8lvpUWbd7yv5z9WIb6jcL3zj+UlvR56dsyG16fGovjtfX8z6XUx31W4pnFPFqR2Xj5v5ym7nPvZ7LV3sde4vjbiUeMQ/cxE8xR3z5y1++8gPCm7RL3V+sC2p5UbkWxBc2jCXga/nbar62bt9WfqHfMXQVcZwVx1mFm10Y1yS1LN7ieWlxF4WdBZfg8nFJfOl+FK35XP1Y7BpUXdMbWe19zfvcRz6XLRqHy8f2s8CLdsWxu67biuV0L55P1VPZ6DOdy16N12PT3m+mS225fuwz25Db1H39y+P19bzP5abiKTv8Rly2qazbi+e5TZfZ+75mXu7dR5cc/2jxcM6SD3POuKRfR+2rlheVQ8iOJWRbiGctf1vNv9bt28ov9DuGriKOs+I4q/BLIdGak2uSWhQ/sl8LMb8RlsjT22OJIt3Twix+5NiCy/XUlo5zm7oWBaPO1WZ8M53FtNvMv5+r63mBmO2Mi0n37fazwIttqZ0o4ON4z9l/qp76z/7Iwje2He3xWO3zWE73og9zm7rvvh0XXyvts19ibLP9OjcjsZxs0HVdUx+5zVK/e7xWMy/36JetxtxjPDS3SvM654GcT67r49KXG163rd7r1fKici2IL2wYS9DX8rfVPGvdvq38Qr9j6CriOCuOswofhUOLDq5JahZAKqtNX9xl4SnxpmP98xYXcFFIxePcpoWX6npzu+rD/ahe9qPajVsUar6u9tWeFpiqrzI+1nls3wJZdWVPXmyqnjeJWLXttk7Zrz6m6sX+VTYveHXfb6Ztr37Q4C36fMoG35PdGpfjEO33PfUT/6mMfavrOo796txbbCP6UzaLH7cT78W2Yr97PJYf9zjuVsdcEw+xrFwgUenNnGtc4lvsq4x/SOj55/JxDmjOxzmu+TcnD6hv9RVzZpxv6lP3X3vttSsf8879Ttmke3kMce63Gs+17ZJva/pQOYTsWEK2hXjW8lfD6BplWrdvjTHT5tX1JP7AH//NwBiOuGlS08JLIjUu2Jgk89nwgtSi9lI+JH7zY3WJ2Nx0Xl7Cxj31URMPC1WLT89pn2tvEW3fSfB6zru8ztVW/KJDl49iOpdx/27PdfJe/Shnqy3di+3EY9+TOC61qbIS49rnNnOfezuv4UU+0VYSX/qGbW3+xu1SmbWu+Vu/4zeHr9UX7a7zgwSx0/Kca92+ln2HbW2u2YjLteNy7YpNJbmbJjXE2HIcaMGa3yStOUHj4n3Nfmh7PiM3nZf4fL7Pp3xWiofmqzcJ5SxE1Z7K+O20yvhY91ReQjVvKncqF0QxXSqjuvo3NZYsfKPd59pU//FtuX84kNuc6n8P9xTTmnGqXElQSkRL1MZ7Ftj6M1b/+O1vLyq09aewfvSDHxz0Z7nUp/60lvrR3jbEP7clu7XFP8flcnP3Gqd/aCA7fvrjH1/pd257slNtqK14XGqn5OdSuXwt2pzvtXCu2NTwt1WZ1u3byi/0u+xzG3924c8ujDybUG+a1BDTY3BA0mkrjjedl8Rz2XjWxCOKUvs/i+kodEvlY73SD9a2FNPZ3niOmL7KWw0virW2kvjKIi+L3VKdm1zL7UuERjFtIb2EeM52Li1Mzwno2H/2c7w3dby0zVN9XedeLX/ON5fet27fpf1Bf1fzJ/7YlT/GGCxJbYw4knzGiiPzsq141sRD4lJvmi2Y/ckPn2vvY89XvamOb6t9PQpVX9M+iulcxv1LwMc6+TgL39hOPFa92GbsW/fUD2+my5zW8CIfaiuJpSzy1hZv58S07NG/kq03vbb02BDTv33kKs/7ls5lYEv2YEs5j+EX/HIBBsZwMkltjDheAHgefi8Wv5fyM/Pycr6uiWlNPCQ89TZ56gvIspi24Fb72ixOZZPEatx0ngWtzuPHrmP7Eumlt9tTYlr9TrWp9r3FL4hUPd/jC8h+IZJruSqJ0Sim9TY4bhKfuqYyfmOsa2onn+u6t/g70Po4t948e9NHvE99zNtl3ccpe91W7Ed2/v03vnHs6+dvvfXyo9cq4y0KdYl6f8zbAl92eYuCXvfVpje/NY9iOh7L7uwP+cDjsu/cXuyrdC/eL/lky2saQw1/W5Vp3b6t/EK/bT33icdF4nGRTlZPiCS1MeLIpB8rjszLtuJZEw+Lae2Zj23F79LxqOFFNmkriS4JNYs8i8Ao3iymdS8KxljPYtS/B632JB51HuurDdXzPbepc7Ud29e9c//UtoWt9hbRrqe+fN9C3WPLYlp17YcpO3SvZG+sE49li8W427d92ssuiXiV0fmUzbFeK8e1/F16Xri/1u2znez3nceJ/0Xif5FOVl+UkdTGiCOTfqw4Mi/bimdNPBDTbcVsy5xYw4vs01YSYBJvUeTp2IJT5SVG47nua4vXVCZveiP8lT/906PwjO1n4R3FqQVvLJ9tVr9xsx3Zzixo1U4cWxbTfkvt/tSu7bAYdr8W7bGPeKx68QcGajO2p7LxjbnaVZ3Yhu2INvtaS3vZviX/5/pu3b5z9nOfXA8DizGwWEObJj2S2hhxZGKPFUfmZVvxrIkHYrqtmG2ZE2t4kX3aSiIsijzdz+Iti1Td12YRqzq5jPspieMpMa16aje27bZK/cR+dax/Ln9OmGYxHT96bjtKAje2e+pY9U6J6eyTeB7b8zhyPHy9lb1Y2JL/c323bt85+7lProeBxRhYrKFNkx5JbYw4MrHHiiPzsq14Eo+24tF6vqvlReVKAmyOmI4CVPUsXnVdb1q1z31kcaw6UWhKQPpj06qrNvTm123H9mKfFqG6pjIqH+v4frwWbYlj0fEpMR3LqR+J23NvplUn+kNj1HlJnKusP2J+zuboi1aOa/nbah61bt9WfqFfnjM7ZGCMoJPUxojjDifgpj+EWtvfzMu25iXxaCsea8+/m7Zfy4vKlQSYBKZEnu/lN6ESoyoTRZ/KZuGnenGzyHU535NojcI1i2m17b5cJ4pXfzxa1/SFY+4ni2m1YxHrdlTW5dWHP9qt42iT6qqc/aK2vdl+1VH7p/7OdPSHbNYPDNxevKfratP3pmyWXa39k19uyvCa9Vu3b82x0zbPEhi4wsCVk6YT11TgSGpjxHEqxtzrL8bMy7Zipniw4YEaD9y5c+dYrCbvqmBJiEXRWLq/9rWSmF67T9pfTpSLqxr+tirTun1b+YV+23ruE4+LxOMinayeEElqY8SRST9WHJmXbcWTeLQVj9bzXS0vKlcSkRLT2vzGtlRmrWt+Q6s3txLVa/VDu8uJ5+xLsdPyHGndvpZ9h208iwZjYIyAktTGiONgk6vphcAlfM28bGteEo+24nGJOXiTPmp5UbkshDhfT2Tuxbe1/N2E8ZvUbd2+m4yNujwrYGAWA7MKNysOSGpjxJHJO1YcmZdtxZN4tBWP1vNdLS8qtxeBxzgv90OCWv62mket27eVX+iX58wOGRgj6CS1MeK4wwnY7A+ologF87KteUk82orHEnNszTZqeVE5ROblROZefF3L35pzYKrt1u2bsp17PAtgYFEGFm1sM2FAUhsjjkzuseLIvGwrnsSjrXi0nu9qeVG5vQg8xnm5HxrU8rfVPGrdvq38Qr88Z3bIwBhBJ6mNEccdTsDNfgB1CV8zL9ual1vF4969e+r65fbo0aNNuL9///5BfWsvm2rmgG1/9uzZ4ctf/vKxfk29EcooYDXjULksMvOfrVKZVr8MTLbqT0jpT1LlcSx1ri9hi3+X+lS78c9qnSqzxHV/QVv8u9zn2lWdmi+TUxn/Oa5zbU7dFzM1/G1VpnX7tvIL/bb13CceF4nHRTpZPSGS1MaII5N+rDgyL9uK51bxkHjVP83v27dvH54+fXq4e/fuIs8FtaP21O5U/pAofvLkyeHWrVvHvh8+fDhZvmRrHMdUX6Pcq+VF5bIospheQlTltpc+v4SYXtrmm7SnmPgHGzquFdQqi5j+ZU6vnR+j5APG8cvY4wt8kRgYwyGHn/9ceY0ND/Ttgf/8z77tL1ifEs5ZAUP59XKywnPKvxKjemsrsXmqTO31/OZX7fpNsNqXqPV5bZs3Kac+H794W2YBXztWlVc91V/Kbol423GTMV2i7hQvsX+Vy+IOMX25j0Nn3587j2+O58QJMX01N9fOjzhXOL7qQ/yBPwZhYIxAlh7m5x4o3G/3Yb/X2IhjbXfu3LmxoBkkQeGHF29zl4ql2DrV1imB6Y85q+6DBw+OgttvgeM9C3EJZW86/tjHPnZFyKqOPjKtNtyn2tVmgS0x7s1vtGV3vO63zLrmMmpPbXtze9rLPo9d5VRfewlb1ckCN/al+5/97Gdf1lE7p/rSPfXnzT5T/WhbtMd2tbbXGGpsUrmcs6dEmj7KrI9V65+30htPfSw6Xo9t+tj1/RFqCb64+Q1stk/lvf30xz8+vp31x7xPtR3b0N+u1hvdf/j2t93M0dbYbrRdx7ZRx3//jW8cfv7WW8e62rvv+DHvkp/Uhup7c5uyTeXdpu7He7ZdY8sfaY+2uZz2GqP8503l9M9loh35ehxfjkGMUbwne1VPfvU4avjbqoz8slXf9LvccxFf4ssFGBjDiUpqTvDsEcm9MiCO/8/rr2uHoF5QRC6QKIdYNImr7Iso/HRf2/Pnz4/iUvd8rHoSgBax8Z6EpT+6LVEaP3atc7XhTYJS5dWe+7YY1jUdu0xsK173GOLbYotbtem23Y7s9nXdU1mLaV13Obfrvfq0bbLFb6mn+lI5tae92sk+s//cR8t7xazGPpXLOTcLUpXxx4kt+iSqVE+iTYJW12M7Fqza67rKuw2JN9d3Xz53GxaePvde/ai/2G4UtDVtq66EoAVr6TyOSW26rI49DtkU7Yy2ZT+Vzj0O9R/7sz3ZJ7mc+7dt9pH20Wb7WNdKdWLZ0vg8Xo1BYl7tqZ0YU9kQ4yBmavjbqkzr9m3lF/odQ1cRx1lxnFW42cSmpBYfAhwjqHtkwBwjqMfIS609jKYWfxKIEn4SqLZb5xaTuhbFZbwXBamOdc9t5HNfd3uxbBTHvi/xmd9uu40simNbvvfaa69deTOuulEYu628L9ni9vOY3Jd9eMpn0X+5vxbPp3iJ9jpvxZxr8ZXFnMpEweg6EmClslmkSXBZKKrfuEVBGEWa+/Be5dSuz2Wr39bWtK16WZTGNnQ/j780DvcfBWb0TTx2nxKl6tvnFtCl8Wqc0Se2y2N1/6VyeXwqqz40Do8t+l7H9mkcq+203eorb347rXtuQ/W0Rc5aO27dvtb8hT2sawZmYIzgKqn5wcAeId0rA5FjBPUYuamlh8fU4s9C0GJa+/h7xlFc+ljtaYtvW7NgzOf2h9uQMPU12aC3ut4sXqNYdVntVdd95358T2JaZdSG62Yx7Otxn/uULepDZU71lUV/HqPaiOON/bV4rDjU2KVyOedacJUEchSPricRNVX2rz796ePbXIm8ktBzO9pnERrv6TiLtiiEz7XttlTOAlHXYhs+132PKQrMPNboj2h7vK42c5/RVvWj/mSHbSyJ5FJcsj3uy0Ld7akPlS214TLax7G6Lfsq+z7Wy/bW8lfD6BplWrdvjTHTJusSGCgyULxY9QBtyaGlh3lM0hwjsHtgIHOMoB4jP7WSK+cs/kpC0B/51r0otD2+0vVTAjKLVbVRuubr/hi5+9I+ilodW3xH23Ob8V7+SHZs22Jc5fO4TvUV21ZbsscfIc92xL5aPa7lJect5dopwZVFosqXBJ3b0ZtU/S6tyjiP6zie+3oUmL6W9xKFfhuqe7JH59rr/FTbsZ0sbDXe+MY3j19tSiy6fYts96+6qiMb/NHt7KfcZxxrPFabOteYYj+2PwraXM9lbL9t1vXoF13P4t11VS7ei2Wzr11He5WL/dXyt9X8ad2+rfxCv6xbdsjAGEEvPcxjkuYYMd0DAyWOEdRj5KgWHi5zF38Sjd70RVr+nWGNRUI0/i6037hKQGrTPovQ6INTH7VWO94s3lUvXrdAVR/u10LWdWW76mURG/udEtNRMOc2TvWl/qLP3njjjZd+iHVsW/RHi8fyZY1dKpfzq8WY7nmzgM0iUXUlwErCT/cksOLv0upabt/3VTZuvp7ti+UkXiX+ZNdU27ENiVC/bXWdLcW0bJD9Gq+3KEyj7dl3p8pZkLu9KKbVns7j5vjpS9m+85WvvLTFcbcNKhc3taN7siPaojI1/G1VpnX7tvIL/bJm2SEDYwRdSc2Jmj3CuVcGTnGMoB4jT239gLnJ4i+Ky63HMbd//zmqKXGf24xCPd/by3ktL6fyVq95GLvbWEPU8rfVfGzdvq38Qr+sV3bIwBhBLz3M/dNX/9TTD8j8E2VfZ9/GA3TPcShxbH8gqMfIVVs+ZK67+NObWb0N9lvgLcdwnb5ltwS1fne65q2wxlv6WPl1+u65Ti0vU3nL+Ys9z9e5DNTyt9Uca92+rfxCv6xVdsjAGEEvPcwtpnXPHz9SMkdM81Cf+1C/VPkSx7FvBPUY+WqrB434qu07f4y7RoTWtt1yOY1T217GOxUL+WHqvu+pXMxTHPOMXYKBWv7M4aX3rdt3aX/QH+uTHTMwRvBLD3OJaX9xSfydnTliWr+DpN//WeLBQBssMM4xUOI410FQj5GztnjosPiDnTnc1fLyrz/5iYqy4YFFPSCu5vB66bIa7KX7pD9yOAw0yUCTRs1OUEpqWXRYTEsQ66Pe/mKLLKZPfWlH/pIM14/Xo0jP/XOOeJ7LQInjUhsI6jHy1qUfiuLr0n3SX7+swku/sWPerR875sf6PoZjfNwJA2MESkkti44opiWg/TcTo5iO11Vf5xLI/li49vF3riW8/ScsVF7345+AyDZwjqCew8D3//ZvhXL19vxnP0McvfgG5U6S7eZ2Cix8BS+1DMALrNSyssdyzA/mxx65Z8xF7osXu1twKall0RLFtO7pzbKE7199+tMv/6RFSQyrXHwLHcW0rueNt9MI5szepc7FIoltjBx2iTjCC6zM4Qxe4GUOL3sry/xgfuyNecZ7kvmTN7papCupZQGTxbTOJab19w/99yGvI6ajuM59co6wviQDPMzHyF+XekDBC7zMYQ1e4GUOL3sry/xgfuyNecZ7kvmTN4YT0xI5/v1ov02+zse8VVftXFI00RcivcQAD/Mx8telHlDwAi9zWIMXeJnDy97KMj+YH3tjnvGeZP7kjSHFtASJ3ixbTOvcAluJUZs/4q17/h3qeF1vs+PmN9Xa+/enVebnb72F6H7hw5II5NoyfhGHJLcxctgl4ggvsDKHM3iBlzm87K0s84P5sTfmGe9J5k/e6GqRrqSGQFtGoOHHfvzIw3yM/HWpBxS8wMsc1uAFXubwsreyzA/mx96YZ7wnmT95AzHNW1V+QNE4AzzMx8hfl3pAwQu8zGENXuBlDi97K8v8YH7sjXnGe5L5kzcQ040LKd4g9/MGea1Y8TAfI39d6gEFL/AyhzV4gZc5vOytLPOD+bE35hnvSeZP3kBMI6Z5M904AzzMx8hfl3pAiRe2Vz3wsxd/r52t7IFLsUk/5LLeGNCM6c1m7GWewcAqDKzS6MUTjJLaWm//aJc3wK0ywMN8jPzFw227OP77v//74Uc/+tHhpz/96cWfW8R9u7jje3x/UwZ4/sLQTRmi/jAMjTGQU2Ja37Ctzd+4fUlR5G/9jt8cfsn+6Wv8HwKIbZLxGDmMOF4+jt/97nePIvrXfu3XDv/1X/91+JM/+RPm09suHwfYx+c9MsDzF2575BabV+F2lUYvviBRUiuJR4loidp4zwJbf8bqH7/97UWFtv7M1o9+8IPDn/3BHxz71J/WUj/aRxv057f8Z7Ti9dGP49/1PuWb3n0gBn764x+/EnOPq8Sk703tS/V4mI+Rv3i4XT6Ov/d7v3cU0H/4h394fF79xYvnhN5SE4vLxwKf4/MeGeD5C7c9covNq3C7SqMXX5DUiuksdqfEy3Xu5fZLglFCW8JIolvlr9PPCHVKvhlhXOfGUBLF5+rofqkeD/Mx8hcPt8vHUR/r/pu/+Zsrz6q33nrr8Nd//ddXrhGby8cGn+PzHhjg+QunPXCKjRfh9CKdrL44qRXTekstUVIjXq5TpkZMu8z//7//96q2XMf+m9TxDwkkkmvauamY/ocXnypo4YcRskG21IxZZUqiuKZuqR4P8zHyFw+7y8bxwYMHh//4j/84/Mqv/MqVZ5M+5i1BTTwuGw/8jb97ZIDnL9z2yC02r8LtKo1efDFSI6b10eq4SVjrmkSKhJ1+t9kfCc/nuu4t/g60BKQ+ru1Nb5vPfczboqgkJqONaldlLRh1/J2vfOVop23QvZ+/WPxp095lJc6m2or1VFdlVcc2qR9t6jMLvdiu+7S/jpVe/Cfbv/qnf3rcx7ZUTh+BVv/uS0LUW+xP/dgu2aA6qvuV/27XdeyLHIupj9GrH28ul8dgW0p2uk7kQu3JXtuperI7lpGtqmvOTsXhXD3HRH2SGMfIYcTxMnH81V/91cN//ud/Hj7xiU8U586/vZijjx49Kt4jRpeJEX7Gzz0wwPMXTnvgFBsvwulFOll9YaKkZoER9xJEFi4WKBZJOpf48bnEj4VerCfBEwWy2rOYivXVnur5ns4txCys8nnuJ/6urfqxWHXbFo6ltqOIi8cqm9vSNf+LNulYfdgnLnNqr3ZdNraj8qW2dM0+9n0LZothn2vvY7UXx6Sy+WPysiOW17lti/arTOl6LBPbP2Wnxq460QfZzjhe31NMXTc1EuhhAAAgAElEQVT2qbJiR/vaejzMx8hfPOwuF8dnz54dHr/IDad8/kd/9EeHn//85yfvn6rH9cvFEF/j6xYY4PkLhy1wiA1NcNiEETdeuCwhpi2M1FYUWxJfeZPg9BvSKIyy8I4CKbYf23NfWeRFQae6KhfFovrNm8X3ubZkp8p6c70s4qLY83H2h394kMdaaitei8duOwpT9RPHOyWmS23lWKgPC/YYM/etNhTXuKlcqe1oW7RZbUU7dc/+cT+Ko/s/FYdz9dyWbCWRjpHDiOP6cfz85z9//NKx3/iN35icN//0T/90+Md//MfJMsRr/XjhY3zcMgM8f+GzZT6x7aJ8XrSz1RYnSmoWGHEfhYuuZ+EjUWQx6/tqK17LZdx+SZhlASch5reNqpftifdzPyUxbRFmW7NQs21TbWVxGM+jPW4r7rPIi+e5bj5XO7kvv6V2HzE+GoP++V4Uqdk3sd1YPn6iQNdLMStdj+VK44i2RZvVVrQz+sd2mYFsczyfqud2tNdGwhwjhxHH9eOo34f+sz/7s7Nz5kMf+tBRdL/3ve89W5a4rR83fIyPW2SA5y9ctsglNm3C5SadLr5AUVKLIsPHFi4+z8Inis4oglTPQk7X9cZSe7fjvcrpn89VJwrcKMRi+y6vvfuSbepHdXQ996tyKuO6Kqfy8ZrvTbWV7VDZ+GY6in+35330l67JJo83jlX38rmvWUDbfvvZAtbnuS+d2z9ZTNsW1/V5jI2u6V9uV9dki+3SuXwkn8g3pXGoDfelMrGf6N8cQ49ZdWI59RnjMFVPZf2Ph/kY+YuH3/px/OGLX6H453/+5+pnz9/93d8d/uVf/qW6PDFcP4b4GB+3xADPX3hsiUds2ZTHTTtfbKFyUzEt8WLxJKGShZ2ETtwsnlzO9/QmNL4NjUKsJOIsoixIVcabxJ2uyzaVU5+yw0JKe9vtOm5H96baivdss9qK9sZ+fJzH+/ff+MaV8cpGbbLDX0CmNl1fxxatOlZ5teHNflV53Zd49qYvKlO7bs9jiAJb971FX7h/7fMYXC7GWNfkF11Tfzp3v2pDfetftlPX5EeN0eVju7JVbTmOHoNsjnFQu1P15Ce1o40EOkYOI47rxvFnP/vZcb7M+U91fv3Xf5059rZ1YwP7+LdHBnj+wm2P3GLzKtyu0ujFFx9KahIg+Z9Eh4VLvneJ85IQq+1Xok8Cy2K6tl6p3JJtldrn2qvsXcInPMzHyF883LaNI/NoW//DP/7vkQHyBtz2yC02r8LtKo02JaaV8OIbz0uIHPXhN4t+czq3X9W/bt3c15Jt5bY530ZIy+88zMfIXzzcto0j82hb/8M//u+RAfIG3PbILTavwu0qjTYjpnsSenqLLfEct+u+VV+yrZ58uDdbeZiPkb94uG0bR+bRtv6Hf/zfIwPkDbjtkVtsXoXbVRpFTBc+cr43ocd4139jzcN8jPzFw23bODKPtvU//OP/Hhkgb8Btj9xi8yrcrtIoYhox/crvryOulxfXPMzHyF883LaNI/NoW//DP/7vkQHyBtz2yC02r8LtKo0iphHTiOkLMMDDfIz8xcNt2zgyj7b1P/zj/x4ZIG/AbY/cYvMq3K7SKGL6AkKKN73Lv+ntzac8zMfIXzzcto0j82hb/8M//u+RAfIG3PbILTavwu0qjSKmEdO8mb4AAzzMx8hfPNy2jSPzaFv/wz/+75EB8gbc9sgtNq/C7SqNIqYvIKR6e4uKvcu/SedhPkb+4uG2bRyZR9v6H/7xf48MkDfgtkdusXkVbldpFDGNmObN9AUY4GE+Rv7i4bZtHJlH2/of/vF/jwyQN+C2R26xeRVuV2kUMX0BIcWb3uXf9PbmUx7mY+QvHm7bxpF5tK3/4R//98gAeQNue+QWm1fhdpVGEdOIad5MX4ABHuZj5C8ebtvGkXm0rf/hH//3yAB5A2575BabV+F2lUYR0xcQUr29RcXe5d+k8zAfI3/xcNs2jsyjbf0P//i/RwbIG3DbI7fYvAq3qzSKmEZM82b6AgzwMB8jf/Fw2zaOzKNt/Q//+L9HBsgbcNsjt9i8CrerNIqYvoCQ4k3v8m96e/MpD/Mx8hcPt23jyDza1v/wj/97ZIC8Abc9covNq3C7SqOIacQ0b6YvwAAP8zHyFw+3bePIPNrW//CP/3tkgLwBtz1yi82rcLtKo4jpCwip3t6iYu/yb9J5mI+Rv3i4bRtH5tG2/od//N8jA+QNuO2RW2xehdtVGkVMI6Z5M30BBniYj5G/eLhtG0fm0bb+h3/83yMD5A247ZFbbF6F21UavbiY/tef/ER5jQ0P7MoD4p7EOEYOI47bxVFJA/9v5398j+97ZIC8Abc9covNq3C7SqMsTN6GX5mwMAADMNADAyyK4bQHTrGxLU7JG23Fg/lBPDZkAOdv6Hx+6MAPHWAABmBgYwZYFLMOYB0AA3MZIG/AzFxmKD8sM8MOjAXqxgtUkgZzCwZgoAcGWBTDaQ+cYmNbnJI32ooH84N4bMgAzt/Q+Qh+BD8MwAAMbMwAi2LWAawDYGAuA+QNmJnLDOWHZWbYgbFA3XiBStJgbsEADPTAAItiOO2BU2xsi1PyRlvxYH4Qjw0ZwPkbOh/Bj+CHARiAgY0ZYFHMOoB1AAzMZYC8ATNzmaH8sMwMOzAWqBsvUEkazC0YgIEeGGBRDKc9cIqNbXFK3mgrHswP4rEhAzh/Q+cj+BH8MAADMLAxAyyKWQewDoCBuQyQN2BmLjOUH5aZYQfGAnXjBSpJg7kFAzDQAwMsiuG0B06xsS1OyRttxYP5QTw2ZADnb+h8BD+CHwZgAAY2ZoBFMesA1gEwMJcB8gbMzGWG8sMyM+zAWKBuvEAlaTC3YAAGemCARTGc9sApNrbFKXmjrXgwP4jHhgzg/A2dj+BH8MMADMDAxgywKGYdwDoABuYyQN6AmbnMUH5YZoYdGAvUjReoJA3mFgzAQA8MsCiG0x44xca2OCVvtBUP5gfx2JABnL+h8xH8CH4YgAEY2JgBFsWsA1gHwMBcBsgbMDOXGcoPy8ywA2OBuvEClaTB3IIBGOiBARbFcNoDp9jYFqfkjbbiwfwgHhsygPM3dD6CH8EPAzAAAxszwKKYdQDrABiYywB5A2bmMkP5YZkZdmAsUDdeoJI0mFswAAM9MMCiGE574BQb2+KUvNFWPJgfxGNDBnD+hs5H8CP4YQAGYGBjBlgUsw5gHQADcxkgb8DMXGYoPywzww6MBerGC1SSBnMLBmCgBwZYFMNpD5xiY1uckjfaigfzg3hsyADO39D5CH4EPwzAAAxszACLYtYBrANgYC4D5A2YmcsM5YdlZtiBsUDdeIFK0mBuwQAM9MAAi2I47YFTbGyLU/JGW/FgfhCPDRnA+Rs6H8GP4IcBGICBjRlgUcw6gHUADMxlgLwBM3OZofywzAw7MBaoGy9QSRrMLRiAgR4YYFEMpz1wio1tcUreaCsezA/isSEDOH9D5yP4EfwwAAMwsDEDLIpZB7AOgIG5DJA3YGYuM5QflplhB8YCdeMFKkmDuQUDMNADAyyK4bQHTrGxLU7JG23Fg/lBPDZkAOdv6HwEP4IfBmAABjZmgEUx6wDWATAwlwHyBszMZYbywzIz7MBYoG68QCVpMLdgAAZ6YIBFMZz2wCk2tsUpeaOteDA/iMeGDOD8DZ2P4EfwwwAMwMDGDLAoZh3AOgAG5jJA3oCZucxQflhmhh0YC9SNF6gkDeYWDMBADwywKIbTHjjFxrY4JW+0FQ/mB/HYkAGcv6HzEfwIfhjogIEvfelLWjexDeqBH//4x4OOjGH14AHlF9Yh/a1FxRZx6y9uxIyYrcAATl3BqSTYDgQScWfu1zLAoglWalmhHKzMZYD80iczxK3PuM2dn5QnzhUM4KQKJyGOEccwsGMGWDTxnOA5AQNrMUB+6ZMt4tZn3Naax7S7ax52PXgE0o4FEomPuV/LAIsmWKllhXKwMpcB8kufzBC3PuM2d35SnjhXMICTKpyE6EZ0w8COGWDRxHOC5wQMrMUA+aVPtohbn3Fbax7T7q552PXgEUg7FkgkPuZ+LQMsmmCllhXKwcpcBsgvfTJD3PqM29z5SXniXMEATqpwEqIb0Q0DO2aARRPPCZ4TMLAWA+SXPtkibn3Gba15TLu75mHXg0cg7VggkfiY+7UMsGiClVpWKAcrcxkgv/TJDHHrM25z5yfliXMFAzipwkmIbkQ3DOyYARZNPCd4TsDAWgyQX/pki7j1Gbe15jHt7pqHXQ8egbRjgUTiY+7XMsCiCVZqWaEcrMxlgPzSJzPErc+4zZ2flCfOFQzgpAonIboR3TCwYwZYNPGc4DkBA2sxQH7pky3i1mfc1prHtLtrHnY9eATSjgUSiY+5X8sAiyZYqWWFcrAylwHyS5/MELc+4zZ3flKeOFcwgJMqnIToRnTDwI4ZYNHEc4LnBAysxQD5pU+2iFufcVtrHtPurnnY9eARSDsWSCQ+5n4tAyyaYKWWFcrBylwGyC99MkPc+ozb3PlJeeJcwQBOqnASohvRDQM7ZoBFE88JnhMwsBYD5Jc+2SJufcZtrXlMu7vmYdeDRyDtWCCR+Jj7tQywaIKVWlYoBytzGSC/9MkMceszbnPnJ+WJcwUDOKnCSYhuRDcM7JgBFk08J3hOwMBaDJBf+mSLuPUZt7XmMe3umoddDx6BtGOBROJj7tcywKIJVmpZoRyszGWA/NInM8Stz7jNnZ+UJ84VDOCkCichuhHdMLBjBlg08ZzgOQEDazFAfumTLeLWZ9zWmse0u2sedj14BNKOBRKJj7lfywCLJlipZYVysDKXAfJLn8wQtz7jNnd+Up44VzCAkyqchOhGdMPAjhlg0cRzgucEDKzFAPmlT7aIW59xW2se0+6uedj14BFIOxZIJD7mfi0DLJpgpZYVysHKXAbIL30yQ9z6jNvc+Ul54lzBAE6qcBKiG9ENAztmgEUTzwmeEzCwFgPklz7ZIm59xm2teUy7u+Zh14NHIO1YIJH4mPu1DLBogpVaVigHK3MZIL/0yQxx6zNuc+cn5YlzBQM4qcJJiG5ENwzsmAEWTTwneE7AwFoMkF/6ZIu49Rm3teYx7e6ah10PHoG0Y4FE4mPu1zLAoglWalmhHKzMZYD80iczxK3PuM2dn5QnzhUM4KQKJyG6Ed0wsGMGWDTxnOA5AQNrMUB+6ZMt4tZn3Naax7S7ax52PXgE0o4FEomPuV/LAIsmWKllhXKwMpcB8kufzBC3PuM2d35SnjhXMICTKpyE6EZ0w8COGWDRxHOC5wQMrMUA+aVPtohbn3Fbax7T7q552PXgEUg7FkgkPuZ+LQMsmmCllhXKwcpcBsgvfTJD3PqM29z5SXniXMEATqpwEqIb0b0LBrQ4YMMD8gB58dVnI2TgATyAB0b0APn+1XyPT/DJDAZw1gxnscBEVA/NgBYJzAdyIhyUGcAvZb+QM/ALDPTLAHmt39gx75qJXTOGsIhHqMLAxgzwUCUf6uEMB2UO8EvZLyzo8AsM9MsAea3f2DHvmoldM4YgpDYWUkxK5gIPVRhQHoCDMgf4pewXnh34BQb6ZYC81m/smHfNxK4ZQxDTiGkY2JgBHqrkQ8T0aQaYH6d9w6IO38BAnwyQ1/qMG/Otqbg1ZQxiamMxxeTc93zgobrv+Hv+w0GZA/xS9ou5YY9/YKA/Bshr/cWMedZczJozCEGNoIaBjRjgoUo+1EMaDsoc4JeyX1jY4RcY6JcB8lq/sWPeNRO7ZgxBQG0koJiMzAEzwEMVFsQCHJQ5wC9lvzh/sMc/MNAfA+S1/mLGPGsuZs0ZhKhGVMPARgy0/lC9f/++THy5PXv27HD79u1FeLl79+7h8ePHh1u3bi3SXs8POzm4Z/vXsh2/sF44x9aaOUp9k6dg8ByDc++T12BqLjOUf4WZVy6wiNpIyAAnLG7NQOsPVS1UHz169DJH6fzJkyeLCGAWqb+cf61zsNU8wS+/ZGSrGLTcr/LRkj/gK42VPAWDJS5uco28BlM34Ye6R36ACBBgAAZ+wUDrD9UsprWwfPr06SJvp5dYpN67d+8gG3vnqXUOtvIvfuFZcYo95Q8Jae1PlVni+hJ5agk7aGOcuUBeGyeWzMvNYrlZx6s+cACKuMLAfAZaf6hmMa1zv5nW8YMHD47nz58/Py5q9ZFt3ffmsmIj39NHvP0xb310XGXjR8j1RjwKZZ17U9mHDx/69LiXsFY/sdzab62WYl4DWKqtkdrBL/NzykjxnxqL5nvML7lszjexrPKK8ofygzblL7UXzy3SLaaVq7zFvKT7qu8t3ss2cQ7PYkAbLMACDNyIgRtVZgLykXAYGIiB1h+qWhjGLS9ILaL9UCgJYF3TfbXlY53r2O2dE9O5rvvTdf2L57EP3XMfLtPivnUOtvIZfmG9cIq9UznB5ZUHYm7QuXODrscftJXOXdZi2T+sU65SXZ3rWJ/UsfCO92wHexjODJDXYCIzwflsJmZXeLlQxNn4DgbGYqD1h+rUgjXfywtLseq3Oh/72MeOotYL0nhPb5BUV6JXezPuxbDfMMW6LiMb9E/npXKldl23pX3rHGzlK/wyVr5bkiPlg1M/KJvKRcoTOXepLYtn2RjbVg7Lv9rivBPLeWy+53P2MJwZIK/BRGaC89lMzK7wcnGJs/EdDIzFQOsP1bzojPzlRePUAhYxPc1t6xzEuF/yGL9Mc3PJWLTWl0Su3hD7rXC0byoXWUwrf7kOYhrOzMIl9uQ1eLsEZ4P3AUSDB/jlA5pxwvo5Blp/qM4R0xqr3yZ73Dr3G594rPtq22+W8uJX51ooe8F7yg5ddxm36f587j5sU4v71jnYymf4hRw6xZ7mevy4diyrezE3xPyT88Y5Me3fqVb7zk2qcypv6V60hWM4jgyQ1+Ah8sDxtXi4ViUS84uHGMDhg9EYaP2hqkVnFKfR/3lBqnv+qLXGpS0K2XwvfgGZ6qo9b1og6wuCdG2qXb2V8pf/eAEre72dWmjHcbRwLHtbsKM1G/ALOf8ck3G+ixfnq5xvYi7KueucmFYuiv04L8m2mIPUf7x3znbu75NvcULs9xl74r5Y3BdriMmIwIaBzhngoUo+1MMVDsoc4JeyX1iQ4RcY6JcB8lq/sWPeNRO7ZgxBiHUuxJjU/c8lHqr9x3CJeQgHZQ7wS9kvSzBHG/gWBrZhgLy2jd/hfSi/DzUYBDmCHAZuwAAPVfKhHvBwUOYAv5T9wqIQv8BAvwyQ1/qNHfOumdg1Ywgi6AYiiAkFx0swwEMVjsQRHJQ5wC9lvyyRe2gD38LANgyQ17bxO7wP5fehBoMgR5DDwA0Y4KFKPtQDHg7KHOCXsl9YFOIXGOiXAfJav7Fj3jUTu2YMQQTdQAQxoeB4CQaOKor/du2BO3fuHMe/BE+jtbFrMBg8HsADw3mAfM/acbTn9EbjAaSNHM8PD/jhQXMMaKXAfCAnwkGZAfxS9gs5A7/AQL8MkNf6jR3zrpnYNWMIi3jEJQxszAAPVfKhHs5wUOYAv5T9woIOv8BAvwyQ1/qNHfOumdg1YwhCamMhxaRkLvBQhQHlATgoc4Bfyn7h2YFfYKBfBshr/caOeddM7JoxBDGNmIaBjRngoUo+REyfZoD5cdo3LOrwDQz0yQB5rc+4Md+ailtTxiCmNhZTTM59zwceqvuOv+c/HJQ5wC9lv5gb9vgHBvpjgLzWX8yYZ83FrDmDENQIahjYiAEequRDPaThoMzBXL/cu3fv6Mv43/3796/kN53nTfUUh1z/yZMnh1u3br2sn+s+e/bscPv27cOjR48OuR9dV33t1YaO4+a6uq/jXP/u3buHx48fH1577bXj/VjXx7bbbfj68+fPD6pfswAs2V5T7yZl5A+NLdvoccyx/yZ2ULc87/DLun7RPMXH6/oY/w7v3+EHSJLYSJiRPPqbWzxU+4vZGvMMDsoczPWLxGUUwBaxEoyOm0RrPPd1CbunT58exa+vxb3qWQDH6zouCVIJwyymLX5j/VMC0mI6innVz7arnMRnbFvHrQrSU+P1ddmuY8Uii+3oN47Lcwa/tO+XuXmNmLYfU2J08RhdvMOXiwiCje9hoC0GeKi2FY+t5gcclDmY8sspsRnFtOKZhdkpMS0Rl+uaB/UlIX1K3N1UTKvfhw8fXun/1PiymC71LbvjOCXIVU6+8Jjm7pdqQ2+kP/OZz7zyZlr+j2OL9s+1lfLl+YRf2vDLVF4jRm3EiDg0H4fmDbz2wxb4iC0MzGOAh+o8f43KFxyUOZjyyymxWRLEUXCeEml+M6r7mbMpoa2ysX3XVXuyRXu/IVc7vu+9y330ox89lneZU+OLgnOq3Vhfx/nttfuPtmvsEvX6wYE32WPf+Fr2cb7vch6L+/JeduePeavv6HvVzf24PvvyfMEvffhF84NY9REr4tRsnJo1jMn9YlHExMEHl2SAhyq8iTc4KHMw5ZcoFj1nTwmwLBiPDv/v/+LHoS1OdSsKOYm8KGLdn/exfV+zSNY+tuu+3X4spzH5o+anxhftUN1TH4eObdmm0j7arnHGj7JHf0Y7S+3MuVYS09EOtVUa/5w+KFueU/hle78oBxCH7eNADLqOQdfGkwAQ3DCwIAM8VMmHeqDDQZmDkl8k8PJmARjFX1woRaF2Thi7nupY8J5qN5aNb1V1PYpPi2m14zrex3K6pn71ryQmVV/3XHeq3VJ914t7tWfbs2+ibfE41r/OcUlMq2/boTZr7b9O/9Qpzzf8chm/lPIavr+M7/HzMH4eZiAvH+jASUxh4HoM8FC9nt9G4w0OyhxM+aUktkqiVyIwvr3NgvEUS1E8qq+p35nOQlBtqo7fMk+J3tiP6tneN9544/hRaNW1jVlM63oUwy6nfe04Y/08jmhbPI796Fj34kfDFTdtpR8eqPwpMR1/UFAaa+6X8/K8wS9t+0Vzgxi1HSPi03x8mjeQSf7iYc9EwgeXYICHKpyJMzgoczDllxoxbZEXRVqtyMzCXG34DXjODSWxrfLud46YVtvqW5vfjLu/ksBU3/n3oVUufnzd9Ut72Sif6N51xXSp3alrJTEdf/igutGuqba4V547+KVdv0zlNeLWbtyITVOxacoYROOLhzYTBB9sxQAPVdgTe3BQ5mCuXyxCjw797/8sFD3HdZ431ct1S8JZAi9uFstqO9eP9yymY123X3rj6/I1Ylp9+4cGbj8L6ZLgtj+iaJ0S0yrv8We73FbtviSmVTfG5qZ91NpCufLcwy/r+UXzFP+u5198uwvf7mKQJIoXCwMmND44xwAPVRgRI3BQ5gC/lP1yLq9wH7/BQLsMkNfajQ3zppvYdGMoYhBBDAMrM8BDlXyohzcclDko+eXOnTtHf/Hf/jyg2LPYLc8V/NKPX0p5jfj1Ez9i1USsmjCCB9LKIonJBuc1DPBQhRNxAgdlDvBL2S81uYUy+A4G2mSAvNZmXJgvXcWlK2MR3YhuGFiRAR6q5EM9wOGgzAF+KfuFRR9+gYF+GSCv9Rs75l0zsWvGEETSiiKJCQfnNQzwUIUTcQIHZQ7wS9kvNbmFMvgOBtpkgLzWZlyYL13FpStjEdwIbhhYkYGjiuK/XXvAvwPMg/zVZ+OuwWDweAAPDOcB8v2reZ5nHz65BgM47RpOQ9CtKOiIx3ZzUisF/L+d/1vxPRyUGcAvZb+0wi12EB8YmM8AeW2+z+AMnyUGcEhyCGICobxbBniokg+VD+GgzAF+KfuFZyh+gYF+GSCv9Rs75l0zsWvGkN0KGCYDDLbCAA9VWBSLcFDmAL+U/dJK/sIO4gMD8xkgr833GZzhs8QADkkOQdTzZnq3DPBQJR8qH8JBmQP8UvYLz1D8AgP9MkBe6zd2zLtmYteMIbsVMEwGGGyFAR6qZRZ/93d/9/C9733v8N3vfvfwO7/zO4evfe1rhx/+8IeH3//93x8yb8FBmQP8UvbL3uZHK/kaO8o84pd5fiGvzfMXfOGvAgM4peCUIRfIjBPWzzHw/9o7u5dLjqrt/wX+Bx574IHwHHgoyJyJiEeCCAMiKCp6oINC5HlVgpggEcUPQh5iAvEDwUcfHKMvYlQijKJmxiiGCepoXjPxazTJMybGexztd34dr511r6nuXfvevffuj6th39XVtWqtVauurqqrq/e+Dz2p3nrrrc3R0RFutMc//vGP5ic/+Unzqle9atB78rbbbmv+/ve/Nz/4wQ+q9N55552t/O23397K33LLLc1zzz3X3H///VX18f/ixYvNv/71r+b69evNz3/+87adDzzwQFX9df02dDnBH1rnHPQdOi6+PzyGz+E+chvGheNDj2vGw7jw4P44UX+cqJIXWn4V2hiYIQYOPamKLDzxxBPNV77ylYaU40c/+tGgeHvnO9/ZPPbYY81nP/vZtXpf9KIXteSXnejXvOY1rfxLXvKS5pe//GVz+fLl5tSpU2t1fOYzn2mJ9KVLl5ovf/nLzde//nWT6QneP74/bl4vLPH+8GLzZhw4JtONyaHHNWNnuthx3636bnWydkHooDlWxsC8MdA3qb7tbW9rHnzwwebVr371IGPFm9/85uapp55q4u6syPQjjzzS2njTm97U/PWvf60mrbvA5+te97rmL3/5S3P+/Plj7f7mN7/Z/O1vf2ve+973ttc/+clPtqT/9OnTx+TwiTZy3H333W2Z2hnbflLfpUu6T6on1uvDQZRb2nlfXHx/LOf+WBru3d7lzvvu+3n3vft3sP4dTNFNC0h3kmNrDEwLA31kAdJ25cqVJpLFl770pc33v//99tVlXs9++OGH29efRRJ5vZlrvNrMK86Q0g984AMNO8NPPvkk5tqDuugXMRSZfsc73tE888wzzeOPP9684hWvaLj+m9/8poHIUgc7XTbAHrtm7AQ/++yzrR1eGz979uzKjvx85Stf2fz4xz8+5ufHPkNlRIcAACAASURBVPaxdkx7//vf377i/dWvfvXYGAd5/ec//9l86lOfaq/jW8wL+/fee28bk383tX0wcN999638R67P/ste9rI2xryWzkEbzp071xD7D3/4w8d0X7169Vj/yIdNU+xsWmcJ8n1x8f2xnPtjCVh3G6c1d2/TX33j2jZ6XXc5GHJfT/BVO3eab1BjYDcYKE2qkN+f/vSnza9+9auWVPLd34ceeqhhJ+4LX/hCS5Ih2byWzavQHJBUiCwEle8Wf+ITn2gJ9O9+97vmz3/+c8N3lvkRLw703XPPPc1rX/vaFcnl9e6vfe1rLflGRqQXwsoBOYdgf+QjH+m0wY+DQXSRhcRDhvE7kvboJ2Sf7zJ/4xvfaAk8O+Jvf/vbVz7lnV8Rf12H1L/73e9uXvziFx8jouxc00YOvqP98Y9/vPn0pz+9ItOKU5d9sA6x55X0t771re13yEXa3/jGNx7TfddddzX8GNS29we+bqtjjvVLcfH98fzvHOg+UL/P+f5QG53uZh5yXPcb19K45j7Ybx843pOP9+Qb4EWfH4gYAwNhoDSpQkjZ8WR3FxLHTjGE+H3ve1/76jM7pXfccUfbBx/60IdWJFGvR6MzHuywstvL4ptDRJnJRAtwyUPEv/e9760IImT62rVrzUc/+tHW3jobvJod/dOEJTvYlo74nejvfOc7rQv4KNlMFtTWfF02YoodDslKZ419dq0h4dpdbxUFXVl3tHvSc2yctO6c65Xi4vujTKbnfH/MGeNu2/LWxKVxzThYHg7c51v1+VaVveAaiMQYxMbhGDDQN6lCAPNr3pmslkgiu8Lvec972tePeUX8DW94Q/uKMsSSAzKotqs+pFnXYsr1+CqziHCXjeyfdMlODZmtfc1buktpJryb2GdHnYPX6dn9zrpyvmR/02vY27TOEuT74kKf+v54YRzn/tYbFOuwkTE89vtjXXtc/gIOHIvxx6JvXHP/jb//3Eej6KNROOGFm0m5MTACDPRNquxE833l17/+9au+iq95f+lLX2rL0cHiOL++zPeEeRX8W9/6VltfZPq3v/1t+wo2+rWIriXT62zIP73mzevq/JK27JT8zK95Q/6ffvrptT9Aht4//OEP7aveeXLrIwu5Ddm+yPSFCxeaL37xiy1hI8ba5ZZuYsb3w3n9PtvfNI/+TessQb4vLr4/+n+AbE73xxKw7jYuZ23cN64ZB8vBgft6q77eqrIXXCMgQL4BjOGhMLDppJp/gAxCx2vVEDx80g9rcY2D9Nvf/nZbxi7rr3/96/Y711zndVmR3Foyvc4G/vFjZbwuzkH6uc99bmWn5Kd+KE0/QMa/wXr00Ufb74P3/Wusn/3sZ+33s/lOdO4PEV4RYLWzxj6/aM53yPGLV7358THaIV18j/pPf/pT2z6+5w2py/Y3zaNs0zpLkN80Lr4/XvjXcXO6P5aAdbdxOeuKTcc1Y2M52HBfV/d1taAXVybOxsDMMbDtpKrdZpHEuQzEd955Z/vja7fffnt7D9xyyy3tv8Xil8HVRogTDwiUn3K6LQ6m3PY+37eNi++PedwffRhxmdeUU8PAtuPa1Nprf32P7gADDuoOgjqLBbXjsrx7Y9NJlV+v/u53v9vwCvfnP//55ve//33n7uyU8cQvZLOL/otf/KJ5+ctf3v6COD9Yxi+GT7ldXb5vioMuPXO7vmlcfH/M8/6YG67dnuXN9bHPNx3XYl2fLxs77v9V/69OZrkodEe7f42BegxsOqlCFvg+Mq8gc/CaMa9R8z1gx70+7mOL1aY4GJv/u/Jn07j4/pjuPbArDFmvMTE2DGw6ro3Nf/vje2oEGHAnjKATTDxm/vr0VDDmSdXjIVg1Dso4cFzKcZnK+GY/3X/GwM0Y8Lh2c0yME8dkQww4YBsGzMTXxHe2GPCk6vGQ8dA4KOPAcSnHxXOo42IMTBcDHtem23e+70bTd6NxZLYExWA3xqaCAU+qxipYNQ7KOHBcynEZ6/h26tSp5vLly6tfvt+Hn/zIHDaxvQ97tjEtTI6xvzyuGUNjxOXEfDKIJtZhnqC9M74zDHhS9XjIeGgclHGw67jwL+H0S/jxfIg56vTp083Vq1fbvtWfuZM+iG3+N3vkOWj7+fPnbyofItbYwHaNLv2bPHzif8lfuXKloa9q6lqmfJ86LpvFBew5ZpvFzPFyvBIGHJAUEA8qJquLxYAnVY+HjIfGQRkHu47L0AQ6zm0QNIga5E3XIe4Q7LmSt0xqafulS5dWu8a0HxnFY6i0ROK7dEcf8c9kunzvdcXP17eP167HNffR9n3kGI4+hqN3cPCJzqB0nxsDZQx4Ui3HZWl4MQ7KONh1XPZNpsH1Lm0Ofd9ANtlNrtFbeniQSe4QZLrkE7bZ+dZDCnxGLvvNq+CQe5WRDkGmu+xl+86X7/OlxWXX49rS4un2LvK+WmSjb5rUDH7jwBjwjqQx8Pw44MVVeTysjQskTcfR0dExsgR54qMDWeEuEtt4Tjl5HXo9G/KFfh3SxXVsnDt3ri3ieolcoheCKX3ZDjblW2wTSvUac/aB67Kv7w3n7y4rn/0WCYUM6pBv6I2H2pqvR78iMS35z7XYxhjjvGNfKsu25VMkybQJXSpTPHVdbaKd99133zEynWMbdZTKclxzG2Tbafn+XmpcwOBS2+52+14YCAMO5ECB9GB0Y2HmWE47Bp5Up91/Q91/xkEZByeJC4RLhE0ESIRPhEp55ESY4jnXpKOrj0VESWVHuqjD9fyaN9exLcKKfKwjH6LuaL9LJ/Yh85A75EXyYjt1HsvQF4lnLJOvMQ7YiYSZPPVJsw+l+jGu8RxZ8ooL+fihjE9JJ9fwm/bjQ6yXz7Mc8mpPjq1io7hFXZThK2nWGeV8frwfHY/n43GScc2xM5aMgWMYOJbpHfgdOMfKGJg3Bjypzrt/a+9f46CMg1JcIDc6RLBI4yFSFsmS+iISM5FXynSeCaXqkaIv7kxrF7xkJ5Mz6cF//Dtz5kybRr85F3kl5VAbqa+6+Ch98quLTIsUtsrCH/SWfIzxwZ78wQ5lMc818sgRg+gDZV31SzHGFxFU6Q3uruxmncjWEtosF/sNvcINOvnEWHT1fdapuk7L97Tj4jfSjAHfGwNgwEEcIIjHFhLWZ0xNFQMsFqfqu/0e7r4zDsqxrIlLJkExH8mS8BoJEkSQPGU6LxE9yjPxjPkSkYzlsl1jJ8pyjn8ctCu2Lcpl+7ENXX5Qn7JIYGVPMcFeJM9cj3nkySNX0tVVP/qndsT62U7MZ53UryW0WS7iA71dZDrHMOazTrXHafmedlxMpo0B3xsDYMBBHCCIJiA3FhCO4/RjUEMW3M/T7+d1fWgclPu4Ji6RaBFnyJ1IEWSJ3WOIEmWQIF5LVh5Z6quezrNOyiPxIo+OuDOdd2Uj4UJeNuL3arEjXyVTSpHjU9KJfPYtt5t28sm60bcJmS7Z0WveJd+IUbQb4xrP8Yu8YhH7RcRberJO6pbakdtKPhPf2J7sP3lhJcqhJ/Z91lmy62vl+3upcakZ15YaG7fb90olBhyoykDdNPG7nrEzNwx4UjWmwbRxUMZBTVxEttog3vjDj4CJ2EKCOOejA9KmcSSStniedYrkUVeH9GJDdqgn3SJjkieVHsmQYjceELVcNxJwyuNBPuvBDv6pLLdHDwGwgyypfKKNilH0Q9e67MsH2STPuUgweXTEfGx7bGO0i6/0qerFsuiTYqtylaldpMSBuNBf5En1nWnlsacj6uBcR+x76qkstoHr/jgGJQyAo9J1XzNejIFqDFQL+mbzZGQMzBwDnlQ9HjJ5GgdlHGwblxLJ9WKlHOsh4gJ5FqkdQl+tDoh2JPG19Sy3Oyw4tt2x3XZcc2y7Y+vYLCY2i2moieDMiaAHre3vZU+q28dwDjg0Dso42DYuJtPluO7qntEO+D6J7aEI/K5iaL37xewh4r3tuHYIn21z/ricWB+7QybWYX4o4IcCO8OAJ1WPh4yHxkEZB9vGxWS6HFfPwY6LMXA4DGw7rrnvDtd3jv1oYj8aR3ZGEAw297ExUIcBT6p1cZo7noyDMg4cl3Jc5n4/uH3u9zljwOOa8T1nfO+pbQbRngLthwXeUR49BjypejxkPDQOyjhwXMpx8RzquBgD08WAx7Xp9p3vu9H03WgcGT3RMGiNlbljwJOqMQ7GjYMyDhyXclzmPi66fe73OWPA45rxPWd876ltBtGeAu2HBd6ZHj0GPKl6PGQ8NA7KOHBcynHxHOq4GAPTxYDHten2ne+70fTdaBwZPdEwaI2VuWPAk6oxDsaNgzIOHJdyXOY+Lrp97vc5Y8DjmvE9Z3zvqW0G0Z4C7YcF3pkePQZaFuU/jsCNCHhcvHluBBiOy81xcUwcE2NguhjwuDbdvvN9N5q+G40jXqSYbBoDxoAxYAyMFgNedHq94MWrMTA3DHhcM6bnhukDtMcgOkDQR7tYdCx8PxgDxoAxUMaAF53luBgvjosxMF0MeFybbt/5vhtN343GERNM70gZA8aAMWAMjBYDXnR6veDFqzEwNwx4XDOm54bpA7THIDpA0Ee7WHQsfD8YA8aAMVDGgBed5bgYL46LMTBdDHhcm27f+b4bTd+NxhETTO9IGQPGgDFgDIwWA150er3gxasxMDcMeFwzpueG6QO0xyA6QNBHu1h0LHw/GAPGgDFQxoAXneW4GC+OizEwXQx4XJtu3/m+G03fjcYRE0zvSBkDxoAxYAyMFgNedHq94MWrMTA3DHhcM6bnhukDtMcgOkDQR7tYdCx8PxgDxoAxUMaAF53luBgvjosxMF0MeFybbt/5vhtN343GERNM70gZA8aAMWAMjBYDXnR6veDFqzEwNwx4XDOm54bpA7THIDpA0Ee7WHQsfD8YA8aAMVDGgBed5bgYL46LMTBdDDTXrzO0+XAEFhGBo+eeaz74wQ8OzcOmOwB48HbfGQPGgDFgDOwLA6w09mXLdoxrY8AY2AcGGNf+z3/8hz+OwSIwAN45BibUHqz2MVjZhnFmDBgDxsC0McAEPIY+PHXqVHP58uXm7rvvHoU/Y4jJlH1wf057XJgy9vCdw2TaDxOWggHw/p277iIZklB7EJv6QGj/jWFjwBgwBnaPASbfXcUZYvzII48U9UO2Ll261Nx6661teZZ94IEHcO3Ygczp06ebK1eurOrtyvdd6BXBjI26evVq26Zd2DupTmLMgw3Skg76lP4plcVr9C19TLvj9aHO8aELX7u2PVQbrGc3Yxz32FKIlNvphwbC+8CEejc3pwc9x9UYMAaMAWNgThhgEt5VezJBjnYymYYUIS+ZLqI0BzId26n2jikdikznPt5nG02mlz1Oi1yYaJpoLgEDEe8DEuplDyL7nLBsy1gzBowBY2C6GOgj09sSkloyXSLIUyHTtLFml5Z7RDvTQ5Bp+ub8+fOrhw9D3oNDkWl8IjaKzy59zu3fFrtZn/PTGuMiuVgCmXIbl/3QION9IEI9rZveg7T7yxgwBowBY+AQGNiUTEO0eDVZR3zNtlQWyyFVOnhVm1eJIT18yFNfMUA21tV1ZOJr3tQ9Ojpq1ZKSRxY59EM4daAv+hD1d+nhOq8q89GhelEXZSLJlOuIr3H3kemoK7aDtqBXB2UXLlxQtk2pq/bGGKq96OD87Nmzbd/Jp9hmFKGnL3aUSZdklZdDio1k8V3XqCPbKi/FBL+EB5VLP33KNeqjT7qznPpMsrLndBnjLHgxwVw2wVxS/5fwPgChXsZg4UnB/WwMGAPGgDGwDQaYhLvqi0h2ERKuQ1qQQwfERiRL5EZkJxIkZCFZIo0lO+iJh2Qjmc4EMtqgDOImf0p5kfI+PejEtogysqpHO9AvG8qrzcqLAComsV0qQ1afSEBjm1ROGmXI5zZwLfYH55nIRn2xPucxdvJb7Yx6c/tjWcnPaFPnuS1RRzxHnjwfzrFdOpdcKbay6fQFvM0xFtxjSyJTbuuyHxx04X1LQj3vQWKOA5/bZMwaA8aAMbB/DDAJ57hDbvIhIiaiFcuR53okmeiMJCkSH8oiEe8i0yJK0b9op+RniXRne8pDttDRp6dEZvGLOuiJZFKkU2WU4y92SEvlyEhPjKmIYI6b5LER4xPtSIZy6pOP5yrXgwLZ7Yod8tGedKk9qq80+hXryW5OY592natOxIpiIz9i3KOc6jrd//hyqJiDxUww733LW5r//eMfmz/deAAYy/77P/+zvU4ar/t82QR1Sv1fwrv834JQL2fAONRAZbvGmDFgDBgD08cAk3BXP2ZCkklLzEcSJH2RSIn4qIy62tUuEcEsr3rRDvpFOlWuNOuM9pCJvvfpyTGgLmRRxA0/+WSdJT+iTZWTZvsx3xUHZCJpze1Fr0ivzuUz+RjHnM9llEd70tvVHuT1ifV0rZQqjlG+5EfsD8Wm5EeUK9nztRf6aI6xKJELkWnKHvqf/1kRZ5Npk2YRz6mmJbzHtpyQUM97kJjjwOc2GbPGgDFgDOwfA0zCXXHPhCSTG8r1CrQIjYglOiFdInyQJO1uU0Zd8qRZL+UiStm3KMs5OtBdktOOMGX4J/KuPOXU7dOTY0Bd2iSbIoGyn/0mL8KvGKluVx30qw729f1hyZOiQ7ElH+OiPLHBPvnoM/msF31xZzrWld9Rl85j+9CbP5RLNpfFvOJMH8X44HesT17t5rrO43X0UqYYRjs+v7mP5hiTErmATD/5+OPN/3v44ebvzzzTaCd6EzL93f/6r+aJixdXRDwSFp+blB8KAyW8Z19OQKiXMVjMcQB0m4xdY8AYMAb2h4E+Ml3qB4iODshKJD8ipSovERyVQRCpD4nCDrKRREGG8kF5Jo3UhwTqEIFCjnNS9PeRacq79IjkUV/xiL7GevKfch2Q0ugDPklO+kRWVefcuXNtXGUzxiITXupQjq4oh11+fE1l0WfZjfL0ox424C/y+KGDvOpxLr1cIx8PtU/tUp46MR7SRypZ9Z/KdF36Yzn65FeWU3u4Ll1O9zeuHDrW4CWTCZFpCDGvel/64Q9bmUymKb9+7Zogt5JjNzseqh+vR5Ke7Ttvsr0rDIDLGt0bEurlDBiHHrBs31gzBowBY2C6GGASHkP/QbgiURqDT/ZhO1yXHkQ4ptvF1PGri1+JXEQyDYF+9qmnGohzJNPxOuSEPARZr4WTxu9cU5/dbnQjTznfy1a+huBYxiR7Wwz85qGHgHz1cfTcczXzft3N5kHJcTIGjAFjwBhYMgaYfcfQfu0sahdzDD7Zh5OPDe7Pk8fOuNs+doxrmaBEMk0ZO8sQ3/97xx2rHyArkWHk4i50JNNcz4d3p02OM/bGlgezFePM9jdihZEaRyxz4/Utx9IxMAaMAWNgnBionFQ9jnsuMwaMgclggHEtE5hMpslDph998MGtyHQk19mm8ybWY8RA5bw/zkWLF5PuF2PAGDAGjIExYaByUp3MInpMsbUvvteNgcNgoIZMQ3L0/WjtJp/kNW/qomeMpMk+mcyXMFA57x/m5vWg6bgbA8aAMWAMTAkDlZOqybR3JY0BY2AyGKgl0xANdpZFpsmLYKODQ694U6bvUMfrvBoeD+1Uk+r708jwo2Ym3Sa3JXK772vgtWKd4sVcRZBqAmkZT57GgDFgDMwYA5WT6mQx4B82m9d6KP+SuNc68+rfofqTcW3fBMX2TJSngoHKed+Dy1ADkvUYS8aAMWAMzBcDlZPqJMk0P4Klf/cEhvmXT/xrpnjoF8SnTNLiv7hS28b4Q27EuMsvfvm79P+089hDH9Jn+ndjuXzbfJ8fGU/b2nL93Y2r3AdTITb20yR83xjg/qgYf3Z3g1YYr3HQMjPe6TFGfP8ZA8bAVDBQOalOcs7K/5oJAgZh43run6mTafzPbRpbfggyTZv69OyyzSbT0xnXGdf2TVBsz6R4KhionPenc8PvcuC3buPAGDAGjAFjoA8DfZNqJqN9esZYxo5tJJlTIdOQNvyu3X3N7dymL86fP1982LCNTtXtI8F9O8Kqr5TdbfXrprGSjpOkJtPTGUtNpk1sp0JsD+Fn37wfxsbp3PDB6dE/VbavxpUxYAwYA/PCQN+kWiLTELdz5861r9oeHR2tiBfkRoeIDljhHHlkOXjNGjIU85E0Rj3IUoa8XscW/pDDF/KU61Ad2ZYM+U3IdPSD82j3pO3p06NY4mN8FV3tpi8UM9oa28V51C1fs64oAzFEt47HHnvsWF5xpA7xlc7YF8IH8eDAjz6b6MqxQx7dmUx39alkeX2fNigu0Udkop/yHfuKG+c61Fbpjq+bI6+D68QMm9LpdJzjIX12CJJimybxU8AA90fF2DXOm7vC8ZrGWebGROlYOgbGgDFgDGyPgb5JVWQJ0qJYQy5E/OI1kRSuZdIiQqiynFddUupGvcieOXPm2HefI/HKPkYSha5IsjLRo+2yF33GD/kkn5VHLvuf85LdRA+y8gU/0SmiSRpfT1c71DbqxiP3D23Iu6qxvYp3llHbZYd8jC+xx5baKz1Ks74cO+opdrV9iu7c57IX02w76o+xpk6fH5FY0/ZSbKNdn28/Jg0RQ+6HEqnhF7Y59IvbJZldXdOvfsdfDt+VLes1qe/DAPdAxX02jpu5wtGaxljmxmTnWDoGxoAxYAwMj4HSpAppyId27zIRgbRAiPIhYphJG/X5qC+lT3oicYukUnLUy+fZtnzFdtYXSal8IJWf8iPrPGl7avVEghjbjW+0QaRTPhMDPuRjPFROKtIdfUAX10txyAQUHTmG0ZdIUGW3y6Z0yWf5p4cGURcy+VCfUi/GSnZLaYyLztW/GRddfqjf0V+KT8murw0/Tm0aU/BTIhOQaEhtLBPB5t9Y/e7ixUGJNv8K68nHH2/ufctbWpv8ay3skEYffG7yu08McH9U3FOHv5ErnKxpiGVuTGCOpWNgDBgDxsBuMNA3qZZIC6SEj/qjRE5URprJWK5fS3JEMN/1rncd26VW/WhT59lWF4mUn8jvsj3yS/YioYuxVltJkY0EVjpi20oxyO2I+a44IBN//bzkZ/Ql+oxstFHKgwV8VRtiO9GlXeBSe1SHNNuNZfFc+iNmso/IS460z49SfKI9n+9mjDpJXBnXSuQkk+lMdkt1trmW9ZtMmzRvg6eh6vbN++F+G88NHZxaTSC+5v4xBowBY8AYGAMG+ibVEmmJJE7+cy3vnKqslkwjn0lU1osuvnOr78tSBx/ZtSSVTaVZH2SptCOLfCR62a70SS6SYGT5SCba3ERPjHUkd+jNfpOnzfIj2pQfuQ76eUVZdWJ7VadEFrMcefV19LnkZ8mm6iIf44OsyDTnXX1KPdqAH/K7L0UuYybHq8sP7OQd8T6/+vxw2X7H+1oyzS71Ll/5Npk2eR6KAA+pp2/eD2PVfm/aYLhqcLe8+8cYMAaMAWNgDBionFRXcxvEg0/2HdISj0jadE6dXJ98JEZRTyQy1EUPR9QXr8u+9JXIHjrjIXJHndiu6Afyssl1nW/anj492VfZl3+UQ4Z1RF9zDPErxwU9PISQ7yLk0oc9tYdrin22G4lp9nmdTX4p/OzZs6t2yAb10CUynfXgj/yjjHO1X/6pXZTHD9c5crniS1mfH9jRgX/EEZvRhs+Px3wM8aDPSuQj7kxf+uEP1bVtCrHmGjLsIPPdZr0SnvNc1xG/A83r3LzGrYNXvP2atwl1CYuHvAY+K+7T8d3YFU7XNMwyaaJ0XI11Y8AYMAZOjoHKSXWSc0/plV5j5eRYGUPseAgAoSUdgz/2YZx4YlwrkZVIpinPO9Mi05RBoJ996qmG3eVYL+82owMCDZGO9dFBPZVJp78zbXINFg75qZz3x3lze9B1vxgDxoAxYAyMCQOVk+pkiQs7ktrdHVPc7cvJxoG4K+0YniyGS4jbEGQasqMdaEixyE/e0cYWu9MP3nNPS5ypI9lMvP2d6cOSSPXL0tPKed8DzBIGS7fRODcGjAFjYDsMVE6qkyXTxsd2+HD8HL8pYoBxrUSY4g4z5X070ypHVybTMS87esXbZNqEWZgYawqmK+5rD34VQaoJpGX8WrkxYAwYAzPGQOWkagzMGANeL3jNODcMMK6ViMwmZJpdZV7zZjeZeuxIo5Pr7ESTZhvIRaJNHb/mbXKdcXLofOW874FxbgOj22NMGwPGgDEwPAYqJ1WTaZNpY8AYmAwGtiXTEOXr166tfoBMu84i1Hr9GzscItCSe/5q0/74mH+AzGT60OQ52wefFeup4RccFUZrHLOMJyNjwBgwBoyB0WCgclIdjb+ei8e1vvGPvI2rP7a9P/Kvqm+r71D1GdcygSAP6Y2vYZdkdnnN35k2sd4lvmp1V8778xrcDjUY2a5xZAwYA8bAvDFQOakOTqZFwrCvQ/+iaMoLev0rJrWJVP/GaUz3EjGO/687+pb/R3Usy+e0N/7bqvivpBQDZKbcp/nfiNGuMf6o3VB9Sh/uErN9PyKX8ZTxVpunj0rEAjLNoZ3kksyurmk3O/4rrV3Zsl6T9j4McA9U3EvzXvxUBKAmSJbx7pgxYAwYAwvHQOWkOjhORKZZPOc5bcrEi/aMkWiVYjwEmYYYxT6EhEVyLbtT7tNNHi6ovYdIhyLTfXp23a5dk+k+guEyE9ClYKBy3jeZ3vWAZ/3GmDFgDBgD08dA36Q65KIa8gzJ0v8HnhKZPn/+fLuzWoP3Ick0una1Q9jXt7XksSQ3FTK9SZ+W2lmDhZIMccd2qWzba0P0KT5wb/KgBX3kd4nD3GaTaRPapRDaQ7azb94P9+T0FzihMTsZdK3fGDEGjAFjwBjom1RLi3ORYOpxQAwgyVwHT9Q5Ojpqy0jJQ0Z4hVsHO7dnzpxpd3BZPGccUufKlSsr4o2MDr0KLlss+vnoEJmLeenv0kMd2hF9RDa3Vbbz9bgTTb2Yl21S4qRDulQey6iPP/FAb+4P+UEZMabe2bNn1TgsNgAADsJJREFU22roQzdt06H+4Lp05dhRlsmj7EgPOqUj9pPsyTZ5fXKfks84kc5N+nQTPfiV2xL7IfZBvJ7joTaRdsWXMvpFB229cOGCsm1KXfUDflFH/lGXPD7Rp/gjn7psStc2fYpN2Y0+ZEyXYoK85GK/0FhhRrqVRw/t0kF7+ciPk6boOyRZsW0/FBgzBrg/Ku6tFwbwCuEahZb59wDreBpbxoAxYAzMBwN9k6oW51ro0+8sguNil3MtoFkYc06KLPVFtnKZSAP2dUhPrJd9KC3YtehHFtIS87Lfp4c2iajgd7SBn5AT6gv3tFlkgGvkFRPq5kP+qD4p9aWDVPW7ZLie26AYol+kpKRHOpFTeY6V6ksXcVObqaM2RJvZH7Urtl8EHln1RcZCLOM892HOn0QPNtWmUp/mPiAvPCo2sV2Ko2JLmuMrP7tkuJ5jGONLOXYiNqMuzrPNGCv5vUmfSn/sc13LKTHiw/Xod4w1ZdEP8uhWvXguHVzLtjbN01djJjP2zWT7kBjg/qi4p+az0KlobE1ALHNjAHcsHQNjwBgwBo5joDSpsvjOBwv62267rSUYlCuOkQyU6olMsaCORFsL56gr6hQRYdGdD5GLSMKom23ERX2fHsriAj7qwc9IpqPO6C8yyNIekTCVK8VGPMj3xQG/+Kh+jDXXYt2SX8jkdsu3HDvJIh91cU6884Fc9kc6Yiy5xifa68NJlKMe9iNuom+b6EEXflEn92mMo/yNdqNNlSvtii/XS3HAfryeY5h9QRZdskfaZTPHTrLIxzZw3tWnsqNYKV9Ko714ThuFM9XDB7VDbYo+SS7HR9c3TcFrJiv531Yhs+7HwPj1bf7XdOl/Smf9S83v8hfSiXv812K7ijF29D/Fh7RBbPTv1IbUu60usF9xTx1fLFRUqFFqmRuDuGPpGBgDxoAxMB8M9E2q6xb64CDKlBbRwgoL50iKMmmQnHRGMh3JR5YTieV6thEX6yzku/TEhX7Wk4lX1ClfamKQ7SvfF4fsV7SD7Vg3t53y3B8xjy7FWO2QvdjGeC45pSWbapdklEZ70Q+VK81tzDaiP5voQb8IYu7TGEf5Ee1GmyonzfZjvisOyEQc5vZmX+Sz7EYb2YcYY8lv2qeql+3qek4lJzuUZx+5FsupQ74U1xyfbK82z7iWCYfI9Cb/Gstkev0Ossn0+hhlLB463zfvh3tsPgud0CgT2RsDsuPhGBgDxoAxMBwG+ibVvNAn7iyE+agPWBRrF4rFMTteLIhVrjSSE65l0iA50kgKOEcnaZSRXC2Z7tMTF/rojb5m4kW5yID8iTEpEYlcR21XHLGvc+kkzX7FuFBOXq/1Rp+lI+vFhvoq1kU+9h3nEG1kKIvtk27ViXJcyzYlH32PtlSuFLnaPt1ED/ppB/1T6tPsN3nFKsdDvuY6Ob75YQX1MlmMcaGcvPo0+lxrM9aN8clt6OpT7JTiI/s5pT30Fx98pzzbin5Qjm1ip/uAc+nt80syNemuyPQTFy/ufJf60Qcf3LmNSObYlaVd8dom5ybTJtOrG7jm5rTMcAs4x9KxNAaMAWPg8BjoI9Ol/tECmHocWkhzHXmRgedLj/8/XhbKHJAU/QCZ5EghzSy8M8FgwR4P9MhWLfFCvksPi/m4oMcHfCSlHmUc8i/HQKRLNmKea3xEKNAD4Tl37tyKQHfpi7HEd/QohujBDu2nLPuMbNaLTcUL3frxOHRxKAboiiQ568F/6ssf+UZesXpe4/N/Kc99GtuGlGLGdfmIvtyu7Futnuyr/FSfqlx+x+vZJrJ8clxifCmXDXQqZuhCN4fi3dWn8inGt88msRiiT9ETHwTgn/pHbVeq9uie1PXcL2qr2qS86rcBufEHPVmXdG6Soi8Twr6daQjl9WvX5Mbq1VztTD98//3N//7xj6tyvR5OOec6IJbY5TrykFQd5PEh+5Xz8hN/8CuXK8/rw+iXfeTZdY/5WF//5xp/5H+8xnW9kpyvk5fdWIYe2hXLiYEO2aFujlUpHmq76vOKd3zNO/ZTX3yij1Guyzf0xte8++zU6FbbsKeY5rZJhtjkvqT9MaZd/tTEVP0WU/RX3E+HX6BUOFnTEMv8e9JyPI1pY8AYMAaGx0DlpNo5F7FojuTHfTR8H405phC9LqI1Zr/tWzdOIboiu1ONE+NaJA+cZzKDTCQ0khcRJuWj70xTH2IHsZFsTGO5SE4mUpEgxbqlc/lb8hF5dEeyWsqL3ONzJKX4Ib2cSw69yGZiiR2ux3hIViRePkVd+CQ7nPNBrutDeazPuepjm3NS2Y5+Smf2X9ezbvLSHev02Yly0kuadasM/ykjH8+VV1uRiX0Z+6fPH+pJv2zWpGC/4t7uHiQqKtcYsIxJrjFgDBgDxsDkMVA5qXa2c6idJM/N01y3aKc07p66L6fZl/Rb3pWeal8yrmVSIXJaIrSQJEihDu1mQmT6yDTlkKB4oD/Wkx9dxIfrOrJv0i/SJ12k1BMZI0/dnFe9aEO2RN5yvawX3ehFjo90yheVleKL/8iTKsayq/pKS/Wpo4cA2M6H+kk6SEv+l3Rn30TM++zU6pY/xIY62BKOVBbblvVG3/r8WRdT2copcay4t6c7kFU0riYAlvEi3xgwBowBY2AtBion1ZUeSFM84uuwnr+89jAGjIExYIAxKhOIEqFCJhOdmI/n1I8701lfzEcyJD8gTHyU70trSFLWB+nqI9OxLNrO9TKxQ1aEGdmTkmnZJDYQ6qwnxk+ykXCWbEsupiX/S7pjH2Enkunsm/TX6pb8JmQa3aoXfatpd1dMpS+n3B8V96kHs4og1QTSMl6MGwPGgDEwYwxUTqrGwIwx4PWC14xzwwDjWiYQJUKFTCRS5CEv2vGEpGhHkfqRTMcy6aEe9SMZkh+QpUiYdD2nyHSRuSib9WE3EuZIwmgjBJY06uA818vxiHXjOXVF4tBBHp+iD11tKcWH+tTtqp9tIV/6ZP8l0+dbrNNnJ8pJL2nWrTLaQhn5eK682oqM5CiL8enzR3ZynXi9dF4573tgnNvA6PYY08aAMWAMDI+ByknVZNpk2hgwBiaDgU3INGQDIqMDwizSDJERmY5yelUZEqkDAkw9rkUyJDKTCZOunzTN+jIpJh9JefQVn0XkRNa4JkKXZcnLz1imHeZYjl4dihN1Y4yjLekl1QMP1VdfcJ1yyCwPLHTE9kU90ZYejFDe5VsmyX12Srqz3/ILe4pplwx+ISM58hk/Xf5EX7piGuOic2Qr1lPDLzgqjNY4ZhlPRsaAMWAMGAOjwUDlpDoafz0Xe31jDBgD6zDAuCbi4LS8g+u4LDculfO+B5p1A43LjRFjwBgwBoyByknVZNoPgIwBY2AyGDCZXi5R9EOC9X1fOe97geRFsjFgDBgDxoAxsA4DlZPqZBbR69rrct8TxsD8MWAyvZ5QmXQuN0aV8/78BwpPBu5jY8AYMAaMgW0xUDmpmkx7V9IYMAYmgwGT6eUSRT8kWN/3lfO+F1jbLrBc3xgyBowBY2D+GKicVCeziDZm549Z97H7eB0GTKbXEyqTzuXGqHLe90CzbqBxuTFiDBgDxoAxUDmpmkx7V9IYMAYmgwGT6eUSRT8kWN/3lfO+F0heJBsDxoAxYAwYA+swUDmpTmYRva69Lvc9YQzMHwMm0+sJlUnncmNUOe/Pf6DwZOA+NgaMAWPAGNgWA5WTqsm0dyWNAWNgMhgwmV4uUfRDgvV9Xznve4G17QLL9Y0hY8AYMAbmj4HKSXUyi2hjdv6YdR+7j9dhwGR6PaEy6VxujCrnfQ806wYalxsjxoAxYAwYA5WTqsm0dyWNAWNgMhgwmV4uUfRDgvV9Xznve4HkRbIxYAwYA8aAMbAOA5WT6mQW0eva63LfE8bA/DFgMr2eUJl0LjdGlfP+/AcKTwbuY2PAGDAGjIFtMVA5qZpMe1fSGDAGJoMBk+nlEkU/JFjf95XzvhdY2y6wXN8YMgaMAWNg/hionFQns4g2ZuePWfex+3gdBkym1xMqk87lxqhy3vdAs26gcbkxYgwYA8aAMVA5qZpMe1fSGDAGJoOB5vp1hjYfjoAjUIjAX59+uuZe9gLJi2RjwBgwBowBY2AdBphn18m43DgyBoyBKWHA45rxOiW8jtRXg2ikHeNFm59sGwPGgDEwIgx40en1gtcLxsDcMOBxzZieG6YP0B6D6ABB9wJ5RAtk97/HAGPAGKjBgBedxkkNTixjnEwJAx7XjNcp4XWkvhpEI+0YE24TbmPAGDAGRoQBLzq9XvB6wRiYGwY8rhnTc8P0AdpjEB0g6F4gj2iB7P73GGAMGAM1GPCi0zipwYlljJMpYcDjmvE6JbyO1FeDaKQdY8Jtwm0MGAPGwIgw4EWn1wteLxgDc8OAxzVjem6YPkB7DKIDBN0L5BEtkN3/HgOMAWOgBgNedBonNTixjHEyJQx4XDNep4TXkfpqEI20Y0y4TbiNAWPAGBgRBrzo9HrB6wVjYG4Y8LhmTM8N0wdoj0F0gKB7gTyiBbL732OAMWAM1GDAi07jpAYnljFOpoQBj2vG65TwOlJfDaKRdowJtwm3MWAMGAMjwgCLTh+OgCPgCMwtAl4HmwsZA1thYKvKXuiNaKHnG8FYNgaMAWPAGDAGjAFjwBgwBowBY2BvGNibIRNvE29jwBgwBowBY8AYMAaMAWPAGDAGjIG5YMBk2k9ujAFjwBgwBowBY8AYMAaMAWPAGDAGjIENMeCAbRiwuTxFcTv8RNAYMAaMAWPAGDAGjAFjwBgwBoyBk2PAZNpk2hgwBowBY8AYMAaMAWPAGDAGjAFjwBjYEAMO2IYB85Obkz+5cewcO2PAGDAGjAFjwBgwBowBY8AYmAsGTKZNpo0BY8AYMAaMAWPAGDAGjAFjwBgwBoyBDTHggG0YsLk8RXE7/ETQGDAGjAFjwBgwBowBY8AYMAaMgZNjwGTaZNoYMAaMAWPAGDAGjAFjwBgwBowBY8AY2BADDtiGAfOTm5M/uXHsHDtjwBgwBowBY8AYMAaMAWPAGJgFBv4/GfhFkBaQzT4AAAAASUVORK5CYII=;" vertex="1" parent="1">
          <mxGeometry x="30" y="1119" width="790.4" height="461" as="geometry" />
        </mxCell>
        <mxCell id="HJQ2WrZzmwikBVrHChBw-34" value="&lt;i&gt;Mc Chombo 1&amp;nbsp;&lt;/i&gt;:&amp;nbsp;&lt;br&gt;&lt;b&gt;Combo&lt;/b&gt;" style="shape=umlLifeline;perimeter=lifelinePerimeter;whiteSpace=wrap;html=1;container=0;dropTarget=0;collapsible=0;recursiveResize=0;outlineConnect=0;portConstraint=eastwest;newEdgeStyle={&quot;edgeStyle&quot;:&quot;elbowEdgeStyle&quot;,&quot;elbow&quot;:&quot;vertical&quot;,&quot;curved&quot;:0,&quot;rounded&quot;:0};" vertex="1" parent="1">
          <mxGeometry x="229.99999999999997" y="2340" width="100" height="440" as="geometry" />
        </mxCell>
        <mxCell id="HJQ2WrZzmwikBVrHChBw-35" value="" style="html=1;points=[];perimeter=orthogonalPerimeter;outlineConnect=0;targetShapes=umlLifeline;portConstraint=eastwest;newEdgeStyle={&quot;edgeStyle&quot;:&quot;elbowEdgeStyle&quot;,&quot;elbow&quot;:&quot;vertical&quot;,&quot;curved&quot;:0,&quot;rounded&quot;:0};" vertex="1" parent="HJQ2WrZzmwikBVrHChBw-34">
          <mxGeometry x="45" y="80" width="10" height="330" as="geometry" />
        </mxCell>
        <mxCell id="HJQ2WrZzmwikBVrHChBw-36" value="" style="html=1;points=[[0,0,0,0,5],[0,1,0,0,-5],[1,0,0,0,5],[1,1,0,0,-5]];perimeter=orthogonalPerimeter;outlineConnect=0;targetShapes=umlLifeline;portConstraint=eastwest;newEdgeStyle={&quot;curved&quot;:0,&quot;rounded&quot;:0};" vertex="1" parent="HJQ2WrZzmwikBVrHChBw-34">
          <mxGeometry x="55" y="330" width="10" height="40" as="geometry" />
        </mxCell>
        <mxCell id="HJQ2WrZzmwikBVrHChBw-37" value="7-&amp;nbsp;&lt;br&gt;&lt;div style=&quot;&quot;&gt;-aplicarDescuento(subtotal)&lt;/div&gt;" style="html=1;align=left;spacingLeft=2;endArrow=block;rounded=0;edgeStyle=orthogonalEdgeStyle;curved=0;rounded=0;" edge="1" parent="HJQ2WrZzmwikBVrHChBw-34" target="HJQ2WrZzmwikBVrHChBw-36">
          <mxGeometry relative="1" as="geometry">
            <mxPoint x="55" y="320" as="sourcePoint" />
            <Array as="points">
              <mxPoint x="55" y="320" />
              <mxPoint x="95" y="320" />
              <mxPoint x="95" y="360" />
            </Array>
          </mxGeometry>
        </mxCell>
        <mxCell id="HJQ2WrZzmwikBVrHChBw-38" value="subtotal +=&amp;nbsp;&lt;i&gt;precioGaseosa&lt;/i&gt;" style="html=1;verticalAlign=bottom;endArrow=open;dashed=1;endSize=8;edgeStyle=elbowEdgeStyle;elbow=vertical;curved=0;rounded=0;" edge="1" parent="HJQ2WrZzmwikBVrHChBw-34">
          <mxGeometry x="-0.0641" relative="1" as="geometry">
            <mxPoint x="50.00352941176464" y="289.6470588235295" as="targetPoint" />
            <Array as="points" />
            <mxPoint x="424.7" y="289.57142857142844" as="sourcePoint" />
            <mxPoint as="offset" />
          </mxGeometry>
        </mxCell>
        <mxCell id="HJQ2WrZzmwikBVrHChBw-39" value="&lt;i&gt;Hamburguesa&amp;nbsp;&lt;/i&gt;: &lt;b&gt;Producto&lt;/b&gt;" style="shape=umlLifeline;perimeter=lifelinePerimeter;whiteSpace=wrap;html=1;container=0;dropTarget=0;collapsible=0;recursiveResize=0;outlineConnect=0;portConstraint=eastwest;newEdgeStyle={&quot;edgeStyle&quot;:&quot;elbowEdgeStyle&quot;,&quot;elbow&quot;:&quot;vertical&quot;,&quot;curved&quot;:0,&quot;rounded&quot;:0};" vertex="1" parent="1">
          <mxGeometry x="430" y="2340" width="90" height="440" as="geometry" />
        </mxCell>
        <mxCell id="HJQ2WrZzmwikBVrHChBw-40" value="" style="html=1;points=[];perimeter=orthogonalPerimeter;outlineConnect=0;targetShapes=umlLifeline;portConstraint=eastwest;newEdgeStyle={&quot;edgeStyle&quot;:&quot;elbowEdgeStyle&quot;,&quot;elbow&quot;:&quot;vertical&quot;,&quot;curved&quot;:0,&quot;rounded&quot;:0};" vertex="1" parent="HJQ2WrZzmwikBVrHChBw-39">
          <mxGeometry x="39.77" y="110" width="10" height="50" as="geometry" />
        </mxCell>
        <mxCell id="HJQ2WrZzmwikBVrHChBw-41" value="&lt;i&gt;Papas&amp;nbsp;&lt;/i&gt;: &lt;br&gt;&lt;b&gt;Producto&lt;/b&gt;" style="shape=umlLifeline;perimeter=lifelinePerimeter;whiteSpace=wrap;html=1;container=0;dropTarget=0;collapsible=0;recursiveResize=0;outlineConnect=0;portConstraint=eastwest;newEdgeStyle={&quot;edgeStyle&quot;:&quot;elbowEdgeStyle&quot;,&quot;elbow&quot;:&quot;vertical&quot;,&quot;curved&quot;:0,&quot;rounded&quot;:0};" vertex="1" parent="1">
          <mxGeometry x="530" y="2340" width="80" height="440" as="geometry" />
        </mxCell>
        <mxCell id="HJQ2WrZzmwikBVrHChBw-42" value="" style="html=1;points=[];perimeter=orthogonalPerimeter;outlineConnect=0;targetShapes=umlLifeline;portConstraint=eastwest;newEdgeStyle={&quot;edgeStyle&quot;:&quot;elbowEdgeStyle&quot;,&quot;elbow&quot;:&quot;vertical&quot;,&quot;curved&quot;:0,&quot;rounded&quot;:0};" vertex="1" parent="HJQ2WrZzmwikBVrHChBw-41">
          <mxGeometry x="35" y="180" width="10" height="50" as="geometry" />
        </mxCell>
        <mxCell id="HJQ2WrZzmwikBVrHChBw-43" value="&lt;i&gt;Gaseosa&amp;nbsp;&lt;/i&gt;: &lt;b&gt;Producto&lt;/b&gt;" style="shape=umlLifeline;perimeter=lifelinePerimeter;whiteSpace=wrap;html=1;container=0;dropTarget=0;collapsible=0;recursiveResize=0;outlineConnect=0;portConstraint=eastwest;newEdgeStyle={&quot;edgeStyle&quot;:&quot;elbowEdgeStyle&quot;,&quot;elbow&quot;:&quot;vertical&quot;,&quot;curved&quot;:0,&quot;rounded&quot;:0};" vertex="1" parent="1">
          <mxGeometry x="619.04" y="2340" width="70.96" height="440" as="geometry" />
        </mxCell>
        <mxCell id="HJQ2WrZzmwikBVrHChBw-44" value="" style="html=1;points=[];perimeter=orthogonalPerimeter;outlineConnect=0;targetShapes=umlLifeline;portConstraint=eastwest;newEdgeStyle={&quot;edgeStyle&quot;:&quot;elbowEdgeStyle&quot;,&quot;elbow&quot;:&quot;vertical&quot;,&quot;curved&quot;:0,&quot;rounded&quot;:0};" vertex="1" parent="HJQ2WrZzmwikBVrHChBw-43">
          <mxGeometry x="30.48" y="250" width="10" height="50" as="geometry" />
        </mxCell>
        <mxCell id="HJQ2WrZzmwikBVrHChBw-45" value="6-&lt;br&gt;+getPrecio()" style="html=1;verticalAlign=bottom;endArrow=block;edgeStyle=elbowEdgeStyle;elbow=vertical;curved=0;rounded=0;" edge="1" parent="1">
          <mxGeometry relative="1" as="geometry">
            <mxPoint x="285.68" y="2600" as="sourcePoint" />
            <Array as="points">
              <mxPoint x="290.68" y="2600" />
            </Array>
            <mxPoint x="650.1999999999999" y="2600" as="targetPoint" />
            <mxPoint as="offset" />
          </mxGeometry>
        </mxCell>
        <mxCell id="HJQ2WrZzmwikBVrHChBw-46" value="5-&lt;br&gt;+getPrecio()" style="html=1;verticalAlign=bottom;endArrow=block;edgeStyle=elbowEdgeStyle;elbow=vertical;curved=0;rounded=0;" edge="1" parent="1">
          <mxGeometry relative="1" as="geometry">
            <mxPoint x="285" y="2530" as="sourcePoint" />
            <Array as="points">
              <mxPoint x="290" y="2530" />
            </Array>
            <mxPoint x="565" y="2530" as="targetPoint" />
            <mxPoint as="offset" />
          </mxGeometry>
        </mxCell>
        <mxCell id="HJQ2WrZzmwikBVrHChBw-48" value="subtotal +=&amp;nbsp;&lt;i&gt;precioHamburguesa&lt;/i&gt;" style="html=1;verticalAlign=bottom;endArrow=open;dashed=1;endSize=8;edgeStyle=elbowEdgeStyle;elbow=vertical;curved=0;rounded=0;" edge="1" parent="1">
          <mxGeometry x="-0.0653" relative="1" as="geometry">
            <mxPoint x="285" y="2490" as="targetPoint" />
            <Array as="points">
              <mxPoint x="290" y="2490" />
            </Array>
            <mxPoint x="475" y="2490" as="sourcePoint" />
            <mxPoint as="offset" />
          </mxGeometry>
        </mxCell>
        <mxCell id="HJQ2WrZzmwikBVrHChBw-49" value="subtotal +=&amp;nbsp;&lt;i&gt;precioPapas&lt;/i&gt;" style="html=1;verticalAlign=bottom;endArrow=open;dashed=1;endSize=8;edgeStyle=elbowEdgeStyle;elbow=vertical;curved=0;rounded=0;" edge="1" parent="1">
          <mxGeometry x="-0.0643" relative="1" as="geometry">
            <mxPoint x="285" y="2559.8571428571427" as="targetPoint" />
            <Array as="points" />
            <mxPoint x="565" y="2559.9957142857143" as="sourcePoint" />
            <mxPoint as="offset" />
          </mxGeometry>
        </mxCell>
        <mxCell id="HJQ2WrZzmwikBVrHChBw-50" value="1-&lt;br style=&quot;border-color: var(--border-color);&quot;&gt;+getPrecio()" style="html=1;verticalAlign=bottom;startArrow=oval;startFill=1;endArrow=block;startSize=8;curved=0;rounded=0;" edge="1" parent="1" target="HJQ2WrZzmwikBVrHChBw-34">
          <mxGeometry x="0.0105" width="60" relative="1" as="geometry">
            <mxPoint x="134.99999999999997" y="2430" as="sourcePoint" />
            <mxPoint x="229.99999999999997" y="2430" as="targetPoint" />
            <mxPoint as="offset" />
          </mxGeometry>
        </mxCell>
        <mxCell id="HJQ2WrZzmwikBVrHChBw-51" value="2-&lt;br&gt;+getPrecio()" style="html=1;verticalAlign=bottom;endArrow=block;edgeStyle=elbowEdgeStyle;elbow=vertical;curved=0;rounded=0;" edge="1" parent="1" target="HJQ2WrZzmwikBVrHChBw-40">
          <mxGeometry relative="1" as="geometry">
            <mxPoint x="280" y="2460" as="sourcePoint" />
            <Array as="points">
              <mxPoint x="285" y="2460" />
            </Array>
            <mxPoint x="560" y="2460" as="targetPoint" />
            <mxPoint as="offset" />
          </mxGeometry>
        </mxCell>
        <mxCell id="HJQ2WrZzmwikBVrHChBw-52" value="&lt;i&gt;return&lt;br&gt;subtotal&lt;/i&gt;" style="html=1;verticalAlign=bottom;endArrow=open;dashed=1;endSize=8;curved=0;rounded=0;" edge="1" parent="1">
          <mxGeometry x="-0.1273" relative="1" as="geometry">
            <mxPoint x="274.5" y="2739.9999999999995" as="sourcePoint" />
            <mxPoint x="125.49999999999997" y="2740" as="targetPoint" />
            <mxPoint as="offset" />
          </mxGeometry>
        </mxCell>
        <mxCell id="HJQ2WrZzmwikBVrHChBw-53" value="&lt;b&gt;&lt;font style=&quot;font-size: 15px;&quot;&gt;Diagrama de secuencia para cada McChombo1:&lt;/font&gt;&lt;/b&gt;" style="text;html=1;strokeColor=none;fillColor=none;align=center;verticalAlign=middle;whiteSpace=wrap;rounded=0;" vertex="1" parent="1">
          <mxGeometry x="245.07999999999998" y="2240" width="360.23" height="50" as="geometry" />
        </mxCell>
      </root>
    </mxGraphModel>
  </diagram>
</mxfile>
